<?xml version="1.0" encoding="utf-8" standalone="no"?>
<!DOCTYPE svg PUBLIC "-//W3C//DTD SVG 1.1//EN"
  "http://www.w3.org/Graphics/SVG/1.1/DTD/svg11.dtd">
<!-- Created with matplotlib (http://matplotlib.org/) -->
<svg height="888pt" version="1.1" viewBox="0 0 864 888" width="864pt" xmlns="http://www.w3.org/2000/svg" xmlns:xlink="http://www.w3.org/1999/xlink">
 <defs>
  <style type="text/css">
*{stroke-linecap:butt;stroke-linejoin:round;}
  </style>
 </defs>
 <g id="figure_1">
  <g id="patch_1">
   <path d="
M0 888.3
L864 888.3
L864 0
L0 0
z
" style="fill:#ffffff;"/>
  </g>
  <g id="axes_1">
   <g id="patch_2">
    <path d="
M108 297.842
L777.6 297.842
L777.6 88.83
L108 88.83
z
" style="fill:#ffffff;"/>
   </g>
   <g id="line2d_1">
    <path clip-path="url(#pf852ae8543)" d="
M108 271.715
L110.678 258.548
L166.925 100.848
L169.603 99.2806
L442.8 99.2806
L445.478 100.9
L450.835 115.688
L504.403 266.124
L507.082 271.715
L646.358 271.715
L646.358 271.715" style="fill:none;stroke:#0000ff;stroke-linecap:square;"/>
   </g>
   <g id="line2d_2">
    <path clip-path="url(#pf852ae8543)" d="
M108 271.715
L110.678 272.63
L113.357 271.846
L116.035 268.711
L118.714 264.008
L121.392 258.13
L124.07 251.598
L126.749 244.674
L137.462 215.151
L150.854 177.399
L153.533 170.083
L158.89 154.93
L161.568 147.615
L164.246 139.777
L169.603 125.015
L172.282 117.308
L174.96 110.776
L177.638 106.073
L180.317 102.677
L182.995 100.587
L185.674 99.4112
L188.352 98.4968
L191.03 98.2355
L193.709 97.8436
L196.387 97.713
L199.066 97.713
L201.744 97.8436
L204.422 98.2355
L233.885 98.2355
L236.563 98.4968
L241.92 98.7581
L247.277 98.7581
L249.955 98.4968
L252.634 98.4968
L255.312 98.7581
L279.418 98.7581
L284.774 99.0193
L287.453 99.0193
L290.131 98.7581
L295.488 99.0193
L298.166 99.0193
L300.845 99.15
L303.523 99.0193
L308.88 99.0193
L311.558 99.15
L314.237 99.0193
L316.915 99.0193
L319.594 99.15
L322.272 99.15
L324.95 99.0193
L327.629 99.0193
L330.307 99.2806
L332.986 99.2806
L335.664 99.0193
L338.342 99.0193
L343.699 99.2806
L346.378 99.0193
L349.056 99.0193
L354.413 99.2806
L359.77 99.2806
L362.448 99.0193
L365.126 99.0193
L367.805 99.2806
L381.197 99.2806
L383.875 99.0193
L386.554 99.0193
L389.232 99.2806
L397.267 99.2806
L402.624 99.0193
L407.981 99.2806
L429.408 99.2806
L434.765 99.0193
L440.122 99.2806
L448.157 99.2806
L450.835 99.4112
L453.514 100.979
L456.192 104.114
L458.87 108.947
L461.549 115.218
L466.906 130.24
L469.584 138.078
L472.262 145.524
L474.941 153.362
L507.082 242.846
L509.76 250.553
L512.438 257.607
L515.117 263.485
L517.795 267.535
L520.474 270.148
L523.152 271.715
L525.83 272.238
L528.509 272.107
L533.866 271.062
L536.544 271.454
L539.222 272.238
L541.901 272.499
L544.579 272.891
L547.258 273.022
L549.936 272.368
L555.293 271.323
L557.971 271.062
L560.65 271.715
L566.006 272.76
L568.685 272.76
L571.363 272.107
L574.042 271.585
L576.72 271.193
L579.398 271.062
L582.077 271.715
L584.755 271.977
L587.434 272.63
L590.112 272.76
L592.79 272.107
L598.147 271.062
L600.826 270.932
L603.504 271.715
L606.182 271.846
L608.861 272.499
L611.539 272.63
L619.574 271.062
L622.253 270.801
L624.931 271.454
L627.61 271.846
L630.288 272.499
L632.966 272.63
L635.645 272.107
L641.002 271.323
L643.68 271.062
L646.358 271.585
L646.358 271.585" style="fill:none;stroke:#008000;stroke-linecap:square;"/>
   </g>
   <g id="matplotlib.axis_1">
    <g id="xtick_1">
     <g id="line2d_3">
      <path clip-path="url(#pf852ae8543)" d="
M108 297.842
L108 88.83" style="fill:none;stroke:#000000;stroke-dasharray:1.000000,3.000000;stroke-dashoffset:0.0;stroke-width:0.5;"/>
     </g>
     <g id="line2d_4">
      <defs>
       <path d="
M0 0
L0 -4" id="m93b0483c22" style="stroke:#000000;stroke-width:0.5;"/>
      </defs>
      <g>
       <use style="stroke:#000000;stroke-width:0.5;" x="108.0" xlink:href="#m93b0483c22" y="297.841764706"/>
      </g>
     </g>
     <g id="line2d_5">
      <defs>
       <path d="
M0 0
L0 4" id="m741efc42ff" style="stroke:#000000;stroke-width:0.5;"/>
      </defs>
      <g>
       <use style="stroke:#000000;stroke-width:0.5;" x="108.0" xlink:href="#m741efc42ff" y="88.83"/>
      </g>
     </g>
     <g id="text_1">
      <!-- 0 -->
      <defs>
       <path d="
M56.9844 36.375
Q56.9844 16.7969 50.8594 7.64062
Q44.7344 -1.51562 31.8438 -1.51562
Q18.75 -1.51562 12.7188 7.76562
Q6.6875 17.0469 6.6875 36.2812
Q6.6875 55.6719 12.7812 64.9219
Q18.8906 74.1719 31.8438 74.1719
Q44.9219 74.1719 50.9531 64.7656
Q56.9844 55.375 56.9844 36.375
M44.1406 14.2031
Q45.8438 18.1719 46.4531 23.5156
Q47.0781 28.8594 47.0781 36.375
Q47.0781 43.7969 46.4531 49.2656
Q45.8438 54.7344 44.0938 58.5469
Q42.3906 62.3125 39.4219 64.2031
Q36.4688 66.1094 31.8438 66.1094
Q27.25 66.1094 24.2344 64.2031
Q21.2344 62.3125 19.4844 58.4531
Q17.8281 54.8281 17.2188 49.0156
Q16.6094 43.2188 16.6094 36.2812
Q16.6094 28.6562 17.1406 23.5312
Q17.6719 18.4062 19.4375 14.3594
Q21.0469 10.5469 24 8.54688
Q26.9531 6.54688 31.8438 6.54688
Q36.4219 6.54688 39.4531 8.45312
Q42.4844 10.3594 44.1406 14.2031" id="Verdana-30"/>
      </defs>
      <g transform="translate(104.9821875 310.959889706)scale(0.12 -0.12)">
       <use xlink:href="#Verdana-30"/>
      </g>
     </g>
    </g>
    <g id="xtick_2">
     <g id="line2d_6">
      <path clip-path="url(#pf852ae8543)" d="
M241.92 297.842
L241.92 88.83" style="fill:none;stroke:#000000;stroke-dasharray:1.000000,3.000000;stroke-dashoffset:0.0;stroke-width:0.5;"/>
     </g>
     <g id="line2d_7">
      <g>
       <use style="stroke:#000000;stroke-width:0.5;" x="241.92" xlink:href="#m93b0483c22" y="297.841764706"/>
      </g>
     </g>
     <g id="line2d_8">
      <g>
       <use style="stroke:#000000;stroke-width:0.5;" x="241.92" xlink:href="#m741efc42ff" y="88.83"/>
      </g>
     </g>
     <g id="text_2">
      <!-- 500 -->
      <defs>
       <path d="
M56.5 23.0938
Q56.5 18.0156 54.6406 13.375
Q52.7812 8.73438 49.5625 5.5625
Q46.0469 2.15625 41.1875 0.3125
Q36.3281 -1.51562 29.9375 -1.51562
Q23.9688 -1.51562 18.4531 -0.265625
Q12.9375 0.984375 9.125 2.73438
L9.125 13.0312
L9.8125 13.0312
Q13.8125 10.5 19.1875 8.71875
Q24.5625 6.9375 29.7344 6.9375
Q33.2031 6.9375 36.4531 7.90625
Q39.7031 8.89062 42.2344 11.3281
Q44.3906 13.4219 45.4844 16.3438
Q46.5781 19.2812 46.5781 23.1406
Q46.5781 26.9062 45.2812 29.4844
Q44 32.0781 41.7031 33.6406
Q39.1562 35.5 35.5156 36.25
Q31.8906 37.0156 27.3906 37.0156
Q23.0938 37.0156 19.1094 36.4219
Q15.1406 35.8438 12.25 35.25
L12.25 72.7031
L56 72.7031
L56 64.1562
L21.6875 64.1562
L21.6875 44.8281
Q23.7812 45.0156 25.9688 45.1094
Q28.1719 45.2188 29.7812 45.2188
Q35.6875 45.2188 40.125 44.2188
Q44.5781 43.2188 48.2969 40.6719
Q52.2031 37.9844 54.3438 33.7344
Q56.5 29.5 56.5 23.0938" id="Verdana-35"/>
      </defs>
      <g transform="translate(231.4190625 310.959889706)scale(0.12 -0.12)">
       <use xlink:href="#Verdana-35"/>
       <use x="63.57421875" xlink:href="#Verdana-30"/>
       <use x="127.1484375" xlink:href="#Verdana-30"/>
      </g>
     </g>
    </g>
    <g id="xtick_3">
     <g id="line2d_9">
      <path clip-path="url(#pf852ae8543)" d="
M375.84 297.842
L375.84 88.83" style="fill:none;stroke:#000000;stroke-dasharray:1.000000,3.000000;stroke-dashoffset:0.0;stroke-width:0.5;"/>
     </g>
     <g id="line2d_10">
      <g>
       <use style="stroke:#000000;stroke-width:0.5;" x="375.84" xlink:href="#m93b0483c22" y="297.841764706"/>
      </g>
     </g>
     <g id="line2d_11">
      <g>
       <use style="stroke:#000000;stroke-width:0.5;" x="375.84" xlink:href="#m741efc42ff" y="88.83"/>
      </g>
     </g>
     <g id="text_3">
      <!-- 1000 -->
      <defs>
       <path d="
M52.9375 0
L13.5781 0
L13.5781 7.42188
L28.7188 7.42188
L28.7188 56.1562
L13.5781 56.1562
L13.5781 62.7969
Q16.6562 62.7969 20.1719 63.2969
Q23.6875 63.8125 25.4844 64.7969
Q27.7344 66.0156 29.0312 67.8906
Q30.3281 69.7812 30.5156 72.9531
L38.0938 72.9531
L38.0938 7.42188
L52.9375 7.42188
z
" id="Verdana-31"/>
      </defs>
      <g transform="translate(361.7915625 310.959889706)scale(0.12 -0.12)">
       <use xlink:href="#Verdana-31"/>
       <use x="63.57421875" xlink:href="#Verdana-30"/>
       <use x="127.1484375" xlink:href="#Verdana-30"/>
       <use x="190.72265625" xlink:href="#Verdana-30"/>
      </g>
     </g>
    </g>
    <g id="xtick_4">
     <g id="line2d_12">
      <path clip-path="url(#pf852ae8543)" d="
M509.76 297.842
L509.76 88.83" style="fill:none;stroke:#000000;stroke-dasharray:1.000000,3.000000;stroke-dashoffset:0.0;stroke-width:0.5;"/>
     </g>
     <g id="line2d_13">
      <g>
       <use style="stroke:#000000;stroke-width:0.5;" x="509.76" xlink:href="#m93b0483c22" y="297.841764706"/>
      </g>
     </g>
     <g id="line2d_14">
      <g>
       <use style="stroke:#000000;stroke-width:0.5;" x="509.76" xlink:href="#m741efc42ff" y="88.83"/>
      </g>
     </g>
     <g id="text_4">
      <!-- 1500 -->
      <g transform="translate(495.7115625 310.959889706)scale(0.12 -0.12)">
       <use xlink:href="#Verdana-31"/>
       <use x="63.57421875" xlink:href="#Verdana-35"/>
       <use x="127.1484375" xlink:href="#Verdana-30"/>
       <use x="190.72265625" xlink:href="#Verdana-30"/>
      </g>
     </g>
    </g>
    <g id="xtick_5">
     <g id="line2d_15">
      <path clip-path="url(#pf852ae8543)" d="
M643.68 297.842
L643.68 88.83" style="fill:none;stroke:#000000;stroke-dasharray:1.000000,3.000000;stroke-dashoffset:0.0;stroke-width:0.5;"/>
     </g>
     <g id="line2d_16">
      <g>
       <use style="stroke:#000000;stroke-width:0.5;" x="643.68" xlink:href="#m93b0483c22" y="297.841764706"/>
      </g>
     </g>
     <g id="line2d_17">
      <g>
       <use style="stroke:#000000;stroke-width:0.5;" x="643.68" xlink:href="#m741efc42ff" y="88.83"/>
      </g>
     </g>
     <g id="text_5">
      <!-- 2000 -->
      <defs>
       <path d="
M57.0781 0
L7.85938 0
L7.85938 10.2031
Q12.9844 14.5938 18.1406 18.9844
Q23.2969 23.3906 27.7344 27.7344
Q37.1094 36.8125 40.5781 42.1562
Q44.0469 47.5156 44.0469 53.7188
Q44.0469 59.375 40.3125 62.5625
Q36.5781 65.7656 29.8906 65.7656
Q25.4375 65.7656 20.2656 64.2031
Q15.0938 62.6406 10.1562 59.4219
L9.67188 59.4219
L9.67188 69.6719
Q13.1406 71.3906 18.9219 72.7969
Q24.7031 74.2188 30.125 74.2188
Q41.3125 74.2188 47.6562 68.8125
Q54 63.4219 54 54.2031
Q54 50.0469 52.9531 46.4531
Q51.9062 42.875 49.8594 39.6562
Q47.9531 36.625 45.3906 33.6875
Q42.8281 30.7656 39.1562 27.2031
Q33.9375 22.0781 28.3594 17.2656
Q22.7969 12.4531 17.9688 8.34375
L57.0781 8.34375
z
" id="Verdana-32"/>
      </defs>
      <g transform="translate(629.2884375 310.959889706)scale(0.12 -0.12)">
       <use xlink:href="#Verdana-32"/>
       <use x="63.57421875" xlink:href="#Verdana-30"/>
       <use x="127.1484375" xlink:href="#Verdana-30"/>
       <use x="190.72265625" xlink:href="#Verdana-30"/>
      </g>
     </g>
    </g>
    <g id="xtick_6">
     <g id="line2d_18">
      <path clip-path="url(#pf852ae8543)" d="
M777.6 297.842
L777.6 88.83" style="fill:none;stroke:#000000;stroke-dasharray:1.000000,3.000000;stroke-dashoffset:0.0;stroke-width:0.5;"/>
     </g>
     <g id="line2d_19">
      <g>
       <use style="stroke:#000000;stroke-width:0.5;" x="777.6" xlink:href="#m93b0483c22" y="297.841764706"/>
      </g>
     </g>
     <g id="line2d_20">
      <g>
       <use style="stroke:#000000;stroke-width:0.5;" x="777.6" xlink:href="#m741efc42ff" y="88.83"/>
      </g>
     </g>
     <g id="text_6">
      <!-- 2500 -->
      <g transform="translate(763.2084375 310.959889706)scale(0.12 -0.12)">
       <use xlink:href="#Verdana-32"/>
       <use x="63.57421875" xlink:href="#Verdana-35"/>
       <use x="127.1484375" xlink:href="#Verdana-30"/>
       <use x="190.72265625" xlink:href="#Verdana-30"/>
      </g>
     </g>
    </g>
   </g>
   <g id="matplotlib.axis_2">
    <g id="ytick_1">
     <g id="line2d_21">
      <path clip-path="url(#pf852ae8543)" d="
M108 297.842
L777.6 297.842" style="fill:none;stroke:#000000;stroke-dasharray:1.000000,3.000000;stroke-dashoffset:0.0;stroke-width:0.5;"/>
     </g>
     <g id="line2d_22">
      <defs>
       <path d="
M0 0
L4 0" id="m728421d6d4" style="stroke:#000000;stroke-width:0.5;"/>
      </defs>
      <g>
       <use style="stroke:#000000;stroke-width:0.5;" x="108.0" xlink:href="#m728421d6d4" y="297.841764706"/>
      </g>
     </g>
     <g id="line2d_23">
      <defs>
       <path d="
M0 0
L-4 0" id="mcb0005524f" style="stroke:#000000;stroke-width:0.5;"/>
      </defs>
      <g>
       <use style="stroke:#000000;stroke-width:0.5;" x="777.6" xlink:href="#mcb0005524f" y="297.841764706"/>
      </g>
     </g>
     <g id="text_7">
      <!-- −500 -->
      <defs>
       <path d="
M71.0938 27.9375
L10.75 27.9375
L10.75 35.75
L71.0938 35.75
z
" id="Verdana-2212"/>
      </defs>
      <g transform="translate(73.371875 301.193327206)scale(0.12 -0.12)">
       <use xlink:href="#Verdana-2212"/>
       <use x="81.8359375" xlink:href="#Verdana-35"/>
       <use x="145.41015625" xlink:href="#Verdana-30"/>
       <use x="208.984375" xlink:href="#Verdana-30"/>
      </g>
     </g>
    </g>
    <g id="ytick_2">
     <g id="line2d_24">
      <path clip-path="url(#pf852ae8543)" d="
M108 271.715
L777.6 271.715" style="fill:none;stroke:#000000;stroke-dasharray:1.000000,3.000000;stroke-dashoffset:0.0;stroke-width:0.5;"/>
     </g>
     <g id="line2d_25">
      <g>
       <use style="stroke:#000000;stroke-width:0.5;" x="108.0" xlink:href="#m728421d6d4" y="271.715294118"/>
      </g>
     </g>
     <g id="line2d_26">
      <g>
       <use style="stroke:#000000;stroke-width:0.5;" x="777.6" xlink:href="#mcb0005524f" y="271.715294118"/>
      </g>
     </g>
     <g id="text_8">
      <!-- 0 -->
      <g transform="translate(97.964375 275.066856618)scale(0.12 -0.12)">
       <use xlink:href="#Verdana-30"/>
      </g>
     </g>
    </g>
    <g id="ytick_3">
     <g id="line2d_27">
      <path clip-path="url(#pf852ae8543)" d="
M108 245.589
L777.6 245.589" style="fill:none;stroke:#000000;stroke-dasharray:1.000000,3.000000;stroke-dashoffset:0.0;stroke-width:0.5;"/>
     </g>
     <g id="line2d_28">
      <g>
       <use style="stroke:#000000;stroke-width:0.5;" x="108.0" xlink:href="#m728421d6d4" y="245.588823529"/>
      </g>
     </g>
     <g id="line2d_29">
      <g>
       <use style="stroke:#000000;stroke-width:0.5;" x="777.6" xlink:href="#mcb0005524f" y="245.588823529"/>
      </g>
     </g>
     <g id="text_9">
      <!-- 500 -->
      <g transform="translate(82.998125 248.940386029)scale(0.12 -0.12)">
       <use xlink:href="#Verdana-35"/>
       <use x="63.57421875" xlink:href="#Verdana-30"/>
       <use x="127.1484375" xlink:href="#Verdana-30"/>
      </g>
     </g>
    </g>
    <g id="ytick_4">
     <g id="line2d_30">
      <path clip-path="url(#pf852ae8543)" d="
M108 219.462
L777.6 219.462" style="fill:none;stroke:#000000;stroke-dasharray:1.000000,3.000000;stroke-dashoffset:0.0;stroke-width:0.5;"/>
     </g>
     <g id="line2d_31">
      <g>
       <use style="stroke:#000000;stroke-width:0.5;" x="108.0" xlink:href="#m728421d6d4" y="219.462352941"/>
      </g>
     </g>
     <g id="line2d_32">
      <g>
       <use style="stroke:#000000;stroke-width:0.5;" x="777.6" xlink:href="#mcb0005524f" y="219.462352941"/>
      </g>
     </g>
     <g id="text_10">
      <!-- 1000 -->
      <g transform="translate(75.903125 222.813915441)scale(0.12 -0.12)">
       <use xlink:href="#Verdana-31"/>
       <use x="63.57421875" xlink:href="#Verdana-30"/>
       <use x="127.1484375" xlink:href="#Verdana-30"/>
       <use x="190.72265625" xlink:href="#Verdana-30"/>
      </g>
     </g>
    </g>
    <g id="ytick_5">
     <g id="line2d_33">
      <path clip-path="url(#pf852ae8543)" d="
M108 193.336
L777.6 193.336" style="fill:none;stroke:#000000;stroke-dasharray:1.000000,3.000000;stroke-dashoffset:0.0;stroke-width:0.5;"/>
     </g>
     <g id="line2d_34">
      <g>
       <use style="stroke:#000000;stroke-width:0.5;" x="108.0" xlink:href="#m728421d6d4" y="193.335882353"/>
      </g>
     </g>
     <g id="line2d_35">
      <g>
       <use style="stroke:#000000;stroke-width:0.5;" x="777.6" xlink:href="#mcb0005524f" y="193.335882353"/>
      </g>
     </g>
     <g id="text_11">
      <!-- 1500 -->
      <g transform="translate(75.903125 196.687444853)scale(0.12 -0.12)">
       <use xlink:href="#Verdana-31"/>
       <use x="63.57421875" xlink:href="#Verdana-35"/>
       <use x="127.1484375" xlink:href="#Verdana-30"/>
       <use x="190.72265625" xlink:href="#Verdana-30"/>
      </g>
     </g>
    </g>
    <g id="ytick_6">
     <g id="line2d_36">
      <path clip-path="url(#pf852ae8543)" d="
M108 167.209
L777.6 167.209" style="fill:none;stroke:#000000;stroke-dasharray:1.000000,3.000000;stroke-dashoffset:0.0;stroke-width:0.5;"/>
     </g>
     <g id="line2d_37">
      <g>
       <use style="stroke:#000000;stroke-width:0.5;" x="108.0" xlink:href="#m728421d6d4" y="167.209411765"/>
      </g>
     </g>
     <g id="line2d_38">
      <g>
       <use style="stroke:#000000;stroke-width:0.5;" x="777.6" xlink:href="#mcb0005524f" y="167.209411765"/>
      </g>
     </g>
     <g id="text_12">
      <!-- 2000 -->
      <g transform="translate(75.216875 170.560974265)scale(0.12 -0.12)">
       <use xlink:href="#Verdana-32"/>
       <use x="63.57421875" xlink:href="#Verdana-30"/>
       <use x="127.1484375" xlink:href="#Verdana-30"/>
       <use x="190.72265625" xlink:href="#Verdana-30"/>
      </g>
     </g>
    </g>
    <g id="ytick_7">
     <g id="line2d_39">
      <path clip-path="url(#pf852ae8543)" d="
M108 141.083
L777.6 141.083" style="fill:none;stroke:#000000;stroke-dasharray:1.000000,3.000000;stroke-dashoffset:0.0;stroke-width:0.5;"/>
     </g>
     <g id="line2d_40">
      <g>
       <use style="stroke:#000000;stroke-width:0.5;" x="108.0" xlink:href="#m728421d6d4" y="141.082941176"/>
      </g>
     </g>
     <g id="line2d_41">
      <g>
       <use style="stroke:#000000;stroke-width:0.5;" x="777.6" xlink:href="#mcb0005524f" y="141.082941176"/>
      </g>
     </g>
     <g id="text_13">
      <!-- 2500 -->
      <g transform="translate(75.216875 144.434503676)scale(0.12 -0.12)">
       <use xlink:href="#Verdana-32"/>
       <use x="63.57421875" xlink:href="#Verdana-35"/>
       <use x="127.1484375" xlink:href="#Verdana-30"/>
       <use x="190.72265625" xlink:href="#Verdana-30"/>
      </g>
     </g>
    </g>
    <g id="ytick_8">
     <g id="line2d_42">
      <path clip-path="url(#pf852ae8543)" d="
M108 114.956
L777.6 114.956" style="fill:none;stroke:#000000;stroke-dasharray:1.000000,3.000000;stroke-dashoffset:0.0;stroke-width:0.5;"/>
     </g>
     <g id="line2d_43">
      <g>
       <use style="stroke:#000000;stroke-width:0.5;" x="108.0" xlink:href="#m728421d6d4" y="114.956470588"/>
      </g>
     </g>
     <g id="line2d_44">
      <g>
       <use style="stroke:#000000;stroke-width:0.5;" x="777.6" xlink:href="#mcb0005524f" y="114.956470588"/>
      </g>
     </g>
     <g id="text_14">
      <!-- 3000 -->
      <defs>
       <path d="
M50.6875 35.0156
Q53.0312 32.9062 54.5469 29.7344
Q56.0625 26.5625 56.0625 21.5312
Q56.0625 16.5469 54.25 12.3906
Q52.4375 8.25 49.1719 5.17188
Q45.5156 1.76562 40.5469 0.125
Q35.5938 -1.51562 29.6875 -1.51562
Q23.6406 -1.51562 17.7812 -0.0625
Q11.9219 1.375 8.15625 3.07812
L8.15625 13.2812
L8.89062 13.2812
Q13.0312 10.5469 18.6406 8.73438
Q24.2656 6.9375 29.5 6.9375
Q32.5625 6.9375 36.0312 7.95312
Q39.5 8.98438 41.6562 10.9844
Q43.8906 13.1406 44.9844 15.7188
Q46.0938 18.3125 46.0938 22.2656
Q46.0938 26.1719 44.8438 28.7344
Q43.6094 31.2969 41.4062 32.7656
Q39.2031 34.2812 36.0781 34.8438
Q32.9531 35.4062 29.3438 35.4062
L24.9531 35.4062
L24.9531 43.5
L28.375 43.5
Q35.7969 43.5 40.2031 46.5938
Q44.625 49.7031 44.625 55.6719
Q44.625 58.2969 43.5 60.2656
Q42.3906 62.25 40.375 63.5312
Q38.2812 64.7969 35.8906 65.2812
Q33.5 65.7656 30.4688 65.7656
Q25.8281 65.7656 20.5938 64.1094
Q15.375 62.4531 10.75 59.4219
L10.25 59.4219
L10.25 69.625
Q13.7188 71.3438 19.5 72.7812
Q25.2969 74.2188 30.7188 74.2188
Q36.0312 74.2188 40.0781 73.2344
Q44.1406 72.2656 47.4062 70.125
Q50.9219 67.7812 52.7344 64.4531
Q54.5469 61.1406 54.5469 56.6875
Q54.5469 50.6406 50.2656 46.125
Q46 41.6094 40.1875 40.4375
L40.1875 39.75
Q42.5312 39.3594 45.5469 38.1094
Q48.5781 36.8594 50.6875 35.0156" id="Verdana-33"/>
      </defs>
      <g transform="translate(75.2525 118.308033088)scale(0.12 -0.12)">
       <use xlink:href="#Verdana-33"/>
       <use x="63.57421875" xlink:href="#Verdana-30"/>
       <use x="127.1484375" xlink:href="#Verdana-30"/>
       <use x="190.72265625" xlink:href="#Verdana-30"/>
      </g>
     </g>
    </g>
    <g id="ytick_9">
     <g id="line2d_45">
      <path clip-path="url(#pf852ae8543)" d="
M108 88.83
L777.6 88.83" style="fill:none;stroke:#000000;stroke-dasharray:1.000000,3.000000;stroke-dashoffset:0.0;stroke-width:0.5;"/>
     </g>
     <g id="line2d_46">
      <g>
       <use style="stroke:#000000;stroke-width:0.5;" x="108.0" xlink:href="#m728421d6d4" y="88.83"/>
      </g>
     </g>
     <g id="line2d_47">
      <g>
       <use style="stroke:#000000;stroke-width:0.5;" x="777.6" xlink:href="#mcb0005524f" y="88.83"/>
      </g>
     </g>
     <g id="text_15">
      <!-- 3500 -->
      <g transform="translate(75.2525 92.1815625)scale(0.12 -0.12)">
       <use xlink:href="#Verdana-33"/>
       <use x="63.57421875" xlink:href="#Verdana-35"/>
       <use x="127.1484375" xlink:href="#Verdana-30"/>
       <use x="190.72265625" xlink:href="#Verdana-30"/>
      </g>
     </g>
    </g>
    <g id="text_16">
     <!-- v (pulsos/Ts) -->
     <defs>
      <path d="
M54.25 0
L45.0625 0
L45.0625 6.0625
Q40.4375 2.39062 36.1875 0.4375
Q31.9375 -1.51562 26.8125 -1.51562
Q18.2188 -1.51562 13.4219 3.73438
Q8.64062 8.98438 8.64062 19.1406
L8.64062 54.5469
L17.8281 54.5469
L17.8281 23.4844
Q17.8281 19.3438 18.2188 16.375
Q18.6094 13.4219 19.875 11.3281
Q21.1875 9.1875 23.2812 8.20312
Q25.3906 7.23438 29.3906 7.23438
Q32.9531 7.23438 37.1719 9.07812
Q41.4062 10.9375 45.0625 13.8125
L45.0625 54.5469
L54.25 54.5469
z
" id="Verdana-75"/>
      <path d="
M38.2344 -20.125
L27.0469 -20.125
Q18.4062 -10.2031 13.625 1.51562
Q8.84375 13.2344 8.84375 27.9375
Q8.84375 42.625 13.625 54.3438
Q18.4062 66.0625 27.0469 75.9844
L38.2344 75.9844
L38.2344 75.4844
Q34.2812 71.9219 30.6875 67.25
Q27.0938 62.5938 24.0312 56.3906
Q21.0938 50.3906 19.2656 43.1562
Q17.4375 35.9375 17.4375 27.9375
Q17.4375 19.5781 19.2188 12.6406
Q21 5.71875 24.0312 -0.53125
Q26.9531 -6.54688 30.7031 -11.4062
Q34.4688 -16.2656 38.2344 -19.625
z
" id="Verdana-28"/>
      <path d="
M56.2031 54.5469
L34.125 0
L24.9062 0
L2.98438 54.5469
L12.9375 54.5469
L29.8281 11.1406
L46.5781 54.5469
z
" id="Verdana-76"/>
      <path d="
M57.0312 27.9375
Q57.0312 21.2969 55.125 15.7969
Q53.2188 10.2969 49.75 6.5
Q46.5312 2.875 42.1562 0.890625
Q37.7969 -1.07812 32.9062 -1.07812
Q28.6562 -1.07812 25.2188 -0.140625
Q21.7812 0.78125 18.2188 2.73438
L18.2188 -20.125
L9.03125 -20.125
L9.03125 54.5469
L18.2188 54.5469
L18.2188 48.8281
Q21.875 51.9062 26.4375 53.9844
Q31 56.0625 36.1875 56.0625
Q46.0469 56.0625 51.5312 48.6094
Q57.0312 41.1562 57.0312 27.9375
M47.5625 27.6875
Q47.5625 37.5469 44.1875 42.4219
Q40.8281 47.3125 33.8438 47.3125
Q29.8906 47.3125 25.875 45.5938
Q21.875 43.8906 18.2188 41.1094
L18.2188 10.2031
Q22.125 8.45312 24.9219 7.8125
Q27.7344 7.17188 31.2969 7.17188
Q38.9688 7.17188 43.2656 12.3438
Q47.5625 17.5312 47.5625 27.6875" id="Verdana-70"/>
      <path d="
M48 15.7188
Q48 8.25 41.8125 3.46875
Q35.6406 -1.3125 24.9531 -1.3125
Q18.8906 -1.3125 13.8438 0.125
Q8.79688 1.5625 5.375 3.26562
L5.375 13.5781
L5.85938 13.5781
Q10.2031 10.2969 15.5156 8.375
Q20.8438 6.45312 25.7344 6.45312
Q31.7812 6.45312 35.2031 8.40625
Q38.625 10.3594 38.625 14.5469
Q38.625 17.7812 36.7656 19.4375
Q34.9062 21.0938 29.6406 22.2656
Q27.6875 22.7031 24.5312 23.2812
Q21.3906 23.875 18.7969 24.5625
Q11.625 26.4688 8.60938 30.1562
Q5.60938 33.8438 5.60938 39.2031
Q5.60938 42.5781 7 45.5469
Q8.40625 48.5312 11.2344 50.875
Q13.9688 53.1719 18.1875 54.5156
Q22.4062 55.8594 27.6406 55.8594
Q32.5156 55.8594 37.5156 54.6562
Q42.5312 53.4688 45.8438 51.7656
L45.8438 41.9375
L45.3594 41.9375
Q41.8438 44.5312 36.8125 46.3125
Q31.7812 48.0938 26.9531 48.0938
Q21.9219 48.0938 18.4531 46.1562
Q14.9844 44.2344 14.9844 40.4375
Q14.9844 37.0625 17.0938 35.3594
Q19.1406 33.6406 23.7344 32.5625
Q26.2656 31.9844 29.4062 31.3906
Q32.5625 30.8125 34.6719 30.3281
Q41.0625 28.8594 44.5312 25.2969
Q48 21.6875 48 15.7188" id="Verdana-73"/>
      <path id="Verdana-20"/>
      <path d="
M55.5156 27.25
Q55.5156 13.9219 48.6719 6.20312
Q41.8438 -1.51562 30.375 -1.51562
Q18.7969 -1.51562 11.9844 6.20312
Q5.17188 13.9219 5.17188 27.25
Q5.17188 40.5781 11.9844 48.3125
Q18.7969 56.0625 30.375 56.0625
Q41.8438 56.0625 48.6719 48.3125
Q55.5156 40.5781 55.5156 27.25
M46.0469 27.25
Q46.0469 37.8438 41.8906 42.9844
Q37.75 48.1406 30.375 48.1406
Q22.9062 48.1406 18.7812 42.9844
Q14.6562 37.8438 14.6562 27.25
Q14.6562 17 18.7969 11.6875
Q22.9531 6.39062 30.375 6.39062
Q37.7031 6.39062 41.875 11.6406
Q46.0469 16.8906 46.0469 27.25" id="Verdana-6f"/>
      <path d="
M36.5781 27.9375
Q36.5781 13.2344 31.7812 1.51562
Q27 -10.2031 18.3594 -20.125
L7.17188 -20.125
L7.17188 -19.625
Q10.9375 -16.2656 14.7188 -11.4062
Q18.5 -6.54688 21.3906 -0.53125
Q24.4219 5.71875 26.2031 12.6406
Q27.9844 19.5781 27.9844 27.9375
Q27.9844 35.9375 26.1719 43.1562
Q24.3594 50.3906 21.3906 56.3906
Q18.3125 62.5938 14.7188 67.25
Q11.1406 71.9219 7.17188 75.4844
L7.17188 75.9844
L18.3594 75.9844
Q27 66.0625 31.7812 54.3438
Q36.5781 42.625 36.5781 27.9375" id="Verdana-29"/>
      <path d="
M18.3125 0
L9.125 0
L9.125 75.9844
L18.3125 75.9844
z
" id="Verdana-6c"/>
      <path d="
M61.625 64.1094
L35.6406 64.1094
L35.6406 0
L25.9844 0
L25.9844 64.1094
L0 64.1094
L0 72.7031
L61.625 72.7031
z
" id="Verdana-54"/>
      <path d="
M42 75.9844
L6.98438 -14.8438
L-1.46875 -14.8438
L33.4062 75.9844
z
" id="Verdana-2f"/>
     </defs>
     <g transform="translate(65.956875 232.012444853)rotate(-90.0)scale(0.12 -0.12)">
      <use xlink:href="#Verdana-76"/>
      <use x="59.1796875" xlink:href="#Verdana-20"/>
      <use x="94.3359375" xlink:href="#Verdana-28"/>
      <use x="139.74609375" xlink:href="#Verdana-70"/>
      <use x="202.05078125" xlink:href="#Verdana-75"/>
      <use x="265.33203125" xlink:href="#Verdana-6c"/>
      <use x="292.7734375" xlink:href="#Verdana-73"/>
      <use x="344.873046875" xlink:href="#Verdana-6f"/>
      <use x="405.56640625" xlink:href="#Verdana-73"/>
      <use x="457.666015625" xlink:href="#Verdana-2f"/>
      <use x="503.076171875" xlink:href="#Verdana-54"/>
      <use x="555.947265625" xlink:href="#Verdana-73"/>
      <use x="608.046875" xlink:href="#Verdana-29"/>
     </g>
    </g>
   </g>
   <g id="patch_3">
    <path d="
M108 88.83
L777.6 88.83" style="fill:none;stroke:#000000;"/>
   </g>
   <g id="patch_4">
    <path d="
M777.6 297.842
L777.6 88.83" style="fill:none;stroke:#000000;"/>
   </g>
   <g id="patch_5">
    <path d="
M108 297.842
L777.6 297.842" style="fill:none;stroke:#000000;"/>
   </g>
   <g id="patch_6">
    <path d="
M108 297.842
L108 88.83" style="fill:none;stroke:#000000;"/>
   </g>
   <g id="text_17">
    <!-- distance kp=60, ki=0, kd=2800 -->
    <defs>
     <path d="
M37.3594 0.484375
Q34.7656 -0.203125 31.7031 -0.640625
Q28.6562 -1.07812 26.2656 -1.07812
Q17.9219 -1.07812 13.5781 3.40625
Q9.23438 7.90625 9.23438 17.8281
L9.23438 46.8281
L3.03125 46.8281
L3.03125 54.5469
L9.23438 54.5469
L9.23438 70.2188
L18.4062 70.2188
L18.4062 54.5469
L37.3594 54.5469
L37.3594 46.8281
L18.4062 46.8281
L18.4062 21.9688
Q18.4062 17.6719 18.5938 15.25
Q18.7969 12.8438 19.9688 10.75
Q21.0469 8.79688 22.9219 7.89062
Q24.8125 6.98438 28.6562 6.98438
Q30.9062 6.98438 33.3438 7.64062
Q35.7969 8.29688 36.8594 8.73438
L37.3594 8.73438
z
" id="Verdana-74"/>
     <path d="
M53.2656 0
L44.0938 0
L44.0938 5.71875
Q40.1406 2.29688 35.8438 0.390625
Q31.5469 -1.51562 26.5156 -1.51562
Q16.75 -1.51562 11.0156 6
Q5.28125 13.5312 5.28125 26.8594
Q5.28125 33.7969 7.25 39.2031
Q9.23438 44.625 12.5938 48.4375
Q15.9219 52.1562 20.3281 54.1094
Q24.75 56.0625 29.5 56.0625
Q33.7969 56.0625 37.1094 55.1562
Q40.4375 54.25 44.0938 52.3438
L44.0938 75.9844
L53.2656 75.9844
z

M44.0938 13.4219
L44.0938 44.7344
Q40.375 46.3906 37.4375 47.0156
Q34.5156 47.6562 31.0625 47.6562
Q23.3438 47.6562 19.0469 42.2812
Q14.75 36.9219 14.75 27.0469
Q14.75 17.3281 18.0625 12.2812
Q21.3906 7.23438 28.7188 7.23438
Q32.625 7.23438 36.625 8.95312
Q40.625 10.6875 44.0938 13.4219" id="Verdana-64"/>
     <path d="
M54.6875 26.3125
L14.5 26.3125
Q14.5 21.2969 16.0156 17.5469
Q17.5312 13.8125 20.1719 11.4219
Q22.7031 9.07812 26.1875 7.90625
Q29.6875 6.73438 33.8906 6.73438
Q39.4531 6.73438 45.0938 8.95312
Q50.7344 11.1875 53.125 13.3281
L53.6094 13.3281
L53.6094 3.32812
Q48.9688 1.375 44.1406 0.046875
Q39.3125 -1.26562 33.9844 -1.26562
Q20.4062 -1.26562 12.7812 6.07812
Q5.17188 13.4219 5.17188 26.9531
Q5.17188 40.3281 12.4688 48.1875
Q19.7812 56.0625 31.6875 56.0625
Q42.7188 56.0625 48.7031 49.6094
Q54.6875 43.1719 54.6875 31.2969
z

M45.75 33.3438
Q45.7031 40.5781 42.1094 44.5312
Q38.5312 48.4844 31.2031 48.4844
Q23.8281 48.4844 19.4531 44.1406
Q15.0938 39.7969 14.5 33.3438
z
" id="Verdana-65"/>
     <path d="
M49.3594 3.42188
Q44.7812 1.21875 40.6562 0
Q36.5312 -1.21875 31.8906 -1.21875
Q25.9844 -1.21875 21.0469 0.515625
Q16.1094 2.25 12.5938 5.76562
Q9.03125 9.28125 7.07812 14.6406
Q5.125 20.0156 5.125 27.2031
Q5.125 40.5781 12.4688 48.1875
Q19.8281 55.8125 31.8906 55.8125
Q36.5781 55.8125 41.0938 54.4844
Q45.6094 53.1719 49.3594 51.2656
L49.3594 41.0625
L48.875 41.0625
Q44.6719 44.3438 40.2031 46.0938
Q35.75 47.8594 31.5 47.8594
Q23.6875 47.8594 19.1719 42.6094
Q14.6562 37.3594 14.6562 27.2031
Q14.6562 17.3281 19.0625 12.0312
Q23.4844 6.73438 31.5 6.73438
Q34.2812 6.73438 37.1562 7.46875
Q40.0469 8.20312 42.3281 9.375
Q44.3438 10.4062 46.0938 11.5469
Q47.8594 12.7031 48.875 13.5312
L49.3594 13.5312
z
" id="Verdana-63"/>
     <path d="
M51.4219 0
L42.2812 0
L42.2812 5.8125
Q41.0625 4.98438 38.9844 3.48438
Q36.9219 2 34.9688 1.125
Q32.6719 0 29.6875 -0.75
Q26.7031 -1.51562 22.7031 -1.51562
Q15.3281 -1.51562 10.2031 3.35938
Q5.07812 8.25 5.07812 15.8281
Q5.07812 22.0156 7.73438 25.8438
Q10.4062 29.6875 15.3281 31.8906
Q20.3125 34.0781 27.2969 34.8594
Q34.2812 35.6406 42.2812 36.0312
L42.2812 37.4531
Q42.2812 40.5781 41.1875 42.625
Q40.0938 44.6719 38.0312 45.8438
Q36.0781 46.9688 33.3438 47.3594
Q30.6094 47.75 27.6406 47.75
Q24.0312 47.75 19.5781 46.7969
Q15.1406 45.8438 10.4062 44.0469
L9.90625 44.0469
L9.90625 53.375
Q12.5938 54.1094 17.6719 54.9844
Q22.75 55.8594 27.6875 55.8594
Q33.4531 55.8594 37.7188 54.9062
Q42 53.9531 45.125 51.6562
Q48.1875 49.4219 49.7969 45.8438
Q51.4219 42.2812 51.4219 37.0156
z

M42.2812 13.4219
L42.2812 28.6094
Q38.0938 28.375 32.3906 27.875
Q26.7031 27.3906 23.3906 26.4688
Q19.4375 25.3438 16.9844 22.9688
Q14.5469 20.6094 14.5469 16.4531
Q14.5469 11.7656 17.375 9.39062
Q20.2188 7.03125 26.0312 7.03125
Q30.8594 7.03125 34.8594 8.90625
Q38.875 10.7969 42.2812 13.4219" id="Verdana-61"/>
     <path d="
M18.8906 63.6719
L8.54688 63.6719
L8.54688 73.1875
L18.8906 73.1875
z

M18.3125 0
L9.125 0
L9.125 54.5469
L18.3125 54.5469
z
" id="Verdana-69"/>
     <path d="
M54.6406 0
L45.4531 0
L45.4531 31.0625
Q45.4531 34.8125 45.0156 38.1094
Q44.5781 41.4062 43.4062 43.2656
Q42.1875 45.3125 39.8906 46.3125
Q37.5938 47.3125 33.9375 47.3125
Q30.1719 47.3125 26.0625 45.4531
Q21.9688 43.6094 18.2188 40.7188
L18.2188 0
L9.03125 0
L9.03125 54.5469
L18.2188 54.5469
L18.2188 48.4844
Q22.5156 52.0469 27.0938 54.0469
Q31.6875 56.0625 36.5312 56.0625
Q45.3594 56.0625 50 50.7344
Q54.6406 45.4062 54.6406 35.4062
z
" id="Verdana-6e"/>
     <path d="
M58.5469 0
L46.4375 0
L24.5625 23.875
L18.6094 18.2188
L18.6094 0
L9.42188 0
L9.42188 75.9844
L18.6094 75.9844
L18.6094 27.25
L45.125 54.5469
L56.6875 54.5469
L31.3438 29.3438
z
" id="Verdana-6b"/>
     <path d="
M57.625 20.2656
Q57.625 10.8438 50.2656 4.59375
Q42.9219 -1.65625 31.7812 -1.65625
Q19.9688 -1.65625 12.9531 4.4375
Q5.95312 10.5469 5.95312 20.0625
Q5.95312 26.125 9.46875 31.0312
Q12.9844 35.9375 19.3906 38.8125
L19.3906 39.1094
Q13.5312 42.2344 10.7188 45.9375
Q7.90625 49.6562 7.90625 55.2188
Q7.90625 63.4219 14.6406 68.8906
Q21.3906 74.3594 31.7812 74.3594
Q42.6719 74.3594 49.1719 69.1406
Q55.6719 63.9219 55.6719 55.8594
Q55.6719 50.9219 52.5938 46.1562
Q49.5156 41.4062 43.5625 38.7188
L43.5625 38.4219
Q50.3906 35.5 54 31.2031
Q57.625 26.9062 57.625 20.2656
M46.0469 55.7656
Q46.0469 60.9844 42.0156 64.0781
Q37.9844 67.1875 31.7344 67.1875
Q25.5938 67.1875 21.6562 64.25
Q17.7188 61.3281 17.7188 56.3438
Q17.7188 52.8281 19.7031 50.2656
Q21.6875 47.7031 25.6875 45.7031
Q27.4844 44.8281 30.875 43.4062
Q34.2812 42 37.5 41.0625
Q42.3281 44.2812 44.1875 47.75
Q46.0469 51.2188 46.0469 55.7656
M47.5625 19.3438
Q47.5625 23.8281 45.5781 26.5312
Q43.6094 29.25 37.8438 31.9844
Q35.5469 33.0625 32.8125 33.9844
Q30.0781 34.9062 25.5312 36.5781
Q21.1406 34.1875 18.4844 30.0781
Q15.8281 25.9844 15.8281 20.7969
Q15.8281 14.2031 20.3594 9.90625
Q24.9062 5.60938 31.8906 5.60938
Q39.0156 5.60938 43.2812 9.26562
Q47.5625 12.9375 47.5625 19.3438" id="Verdana-38"/>
     <path d="
M28.0781 13.9219
L14.3125 -18.0625
L7.17188 -18.0625
L15.6719 13.9219
z
" id="Verdana-2c"/>
     <path d="
M58.1562 23.5781
Q58.1562 12.5 50.8594 5.48438
Q43.5625 -1.51562 32.9531 -1.51562
Q27.5938 -1.51562 23.1875 0.140625
Q18.7969 1.8125 15.4375 5.07812
Q11.2344 9.125 8.95312 15.8125
Q6.6875 22.5156 6.6875 31.9375
Q6.6875 41.6094 8.76562 49.0781
Q10.8438 56.5469 15.375 62.3594
Q19.6719 67.875 26.4531 70.9688
Q33.25 74.0781 42.2812 74.0781
Q45.1719 74.0781 47.125 73.8281
Q49.0781 73.5781 51.0781 72.9531
L51.0781 63.625
L50.5938 63.625
Q49.2188 64.3594 46.4531 65.0156
Q43.7031 65.6719 40.8281 65.6719
Q30.3281 65.6719 24.0781 59.1094
Q17.8281 52.5469 16.7969 41.3594
Q20.9062 43.8438 24.875 45.1406
Q28.8594 46.4375 34.0781 46.4375
Q38.7188 46.4375 42.25 45.5781
Q45.7969 44.7344 49.5156 42.1406
Q53.8125 39.1562 55.9844 34.6094
Q58.1562 30.0781 58.1562 23.5781
M48.25 23.1875
Q48.25 27.7344 46.9062 30.7031
Q45.5625 33.6875 42.4844 35.8906
Q40.2344 37.4531 37.5 37.9375
Q34.7656 38.4219 31.7812 38.4219
Q27.6406 38.4219 24.0781 37.4375
Q20.5156 36.4688 16.75 34.4219
Q16.6562 33.3438 16.5938 32.3438
Q16.5469 31.3438 16.5469 29.8281
Q16.5469 22.125 18.1406 17.6562
Q19.7344 13.1875 22.5156 10.5938
Q24.75 8.45312 27.3594 7.45312
Q29.9844 6.45312 33.0625 6.45312
Q40.1406 6.45312 44.1875 10.7656
Q48.25 15.0938 48.25 23.1875" id="Verdana-36"/>
     <path d="
M69.875 38.1875
L11.9688 38.1875
L11.9688 46
L69.875 46
z

M69.875 17.6719
L11.9688 17.6719
L11.9688 25.4844
L69.875 25.4844
z
" id="Verdana-3d"/>
    </defs>
    <g transform="translate(327.01725 83.83)scale(0.144 -0.144)">
     <use xlink:href="#Verdana-64"/>
     <use x="62.3046875" xlink:href="#Verdana-69"/>
     <use x="89.74609375" xlink:href="#Verdana-73"/>
     <use x="141.845703125" xlink:href="#Verdana-74"/>
     <use x="181.25" xlink:href="#Verdana-61"/>
     <use x="241.30859375" xlink:href="#Verdana-6e"/>
     <use x="304.58984375" xlink:href="#Verdana-63"/>
     <use x="356.689453125" xlink:href="#Verdana-65"/>
     <use x="416.259765625" xlink:href="#Verdana-20"/>
     <use x="451.416015625" xlink:href="#Verdana-6b"/>
     <use x="510.595703125" xlink:href="#Verdana-70"/>
     <use x="572.900390625" xlink:href="#Verdana-3d"/>
     <use x="654.736328125" xlink:href="#Verdana-36"/>
     <use x="718.310546875" xlink:href="#Verdana-30"/>
     <use x="781.884765625" xlink:href="#Verdana-2c"/>
     <use x="818.26171875" xlink:href="#Verdana-20"/>
     <use x="853.41796875" xlink:href="#Verdana-6b"/>
     <use x="912.59765625" xlink:href="#Verdana-69"/>
     <use x="940.0390625" xlink:href="#Verdana-3d"/>
     <use x="1021.875" xlink:href="#Verdana-30"/>
     <use x="1085.44921875" xlink:href="#Verdana-2c"/>
     <use x="1121.82617188" xlink:href="#Verdana-20"/>
     <use x="1156.98242188" xlink:href="#Verdana-6b"/>
     <use x="1216.16210938" xlink:href="#Verdana-64"/>
     <use x="1278.46679688" xlink:href="#Verdana-3d"/>
     <use x="1360.30273438" xlink:href="#Verdana-32"/>
     <use x="1423.87695312" xlink:href="#Verdana-38"/>
     <use x="1487.45117188" xlink:href="#Verdana-30"/>
     <use x="1551.02539062" xlink:href="#Verdana-30"/>
    </g>
   </g>
   <g id="legend_1">
    <g id="patch_7">
     <path d="
M654.291 142.506
L770.4 142.506
L770.4 96.03
L654.291 96.03
L654.291 142.506
z
" style="fill:#ffffff;stroke:#000000;"/>
    </g>
    <g id="line2d_48">
     <path d="
M664.371 107.692
L684.531 107.692" style="fill:none;stroke:#0000ff;stroke-linecap:square;"/>
    </g>
    <g id="line2d_49"/>
    <g id="text_18">
     <!-- consigna -->
     <defs>
      <path d="
M53.2656 6.20312
Q53.2656 -7.67188 46.9688 -14.1562
Q40.6719 -20.6562 27.5938 -20.6562
Q23.25 -20.6562 19.1094 -20.0469
Q14.9844 -19.4375 10.9844 -18.3125
L10.9844 -8.9375
L11.4688 -8.9375
Q13.7188 -9.8125 18.5938 -11.1094
Q23.4844 -12.4062 28.375 -12.4062
Q33.0625 -12.4062 36.125 -11.2812
Q39.2031 -10.1562 40.9219 -8.15625
Q42.625 -6.25 43.3594 -3.5625
Q44.0938 -0.875 44.0938 2.4375
L44.0938 7.42188
Q39.9375 4.10938 36.1562 2.46875
Q32.375 0.828125 26.5156 0.828125
Q16.75 0.828125 11.0156 7.875
Q5.28125 14.9375 5.28125 27.7812
Q5.28125 34.8125 7.25 39.9062
Q9.23438 45.0156 12.6406 48.7344
Q15.8281 52.2031 20.3594 54.125
Q24.9062 56.0625 29.3906 56.0625
Q34.125 56.0625 37.3281 55.1094
Q40.5312 54.1562 44.0938 52.2031
L44.6719 54.5469
L53.2656 54.5469
z

M44.0938 14.9844
L44.0938 44.7344
Q40.4375 46.3906 37.2812 47.0938
Q34.125 47.7969 31 47.7969
Q23.4375 47.7969 19.0938 42.7188
Q14.75 37.6406 14.75 27.9844
Q14.75 18.7969 17.9688 14.0625
Q21.1875 9.32812 28.6562 9.32812
Q32.6719 9.32812 36.6875 10.8594
Q40.7188 12.4062 44.0938 14.9844" id="Verdana-67"/>
     </defs>
     <g transform="translate(700.371 112.73175)scale(0.144 -0.144)">
      <use xlink:href="#Verdana-63"/>
      <use x="52.099609375" xlink:href="#Verdana-6f"/>
      <use x="112.79296875" xlink:href="#Verdana-6e"/>
      <use x="176.07421875" xlink:href="#Verdana-73"/>
      <use x="228.173828125" xlink:href="#Verdana-69"/>
      <use x="255.615234375" xlink:href="#Verdana-67"/>
      <use x="317.919921875" xlink:href="#Verdana-6e"/>
      <use x="381.201171875" xlink:href="#Verdana-61"/>
     </g>
    </g>
    <g id="line2d_50">
     <path d="
M664.371 128.808
L684.531 128.808" style="fill:none;stroke:#008000;stroke-linecap:square;"/>
    </g>
    <g id="line2d_51"/>
    <g id="text_19">
     <!-- feedback -->
     <defs>
      <path d="
M38.375 67.0938
L37.8906 67.0938
Q36.375 67.5312 33.9375 67.9844
Q31.5 68.4531 29.6406 68.4531
Q23.7344 68.4531 21.0625 65.8438
Q18.4062 63.2344 18.4062 56.3906
L18.4062 54.5469
L34.9688 54.5469
L34.9688 46.8281
L18.7031 46.8281
L18.7031 0
L9.51562 0
L9.51562 46.8281
L3.32812 46.8281
L3.32812 54.5469
L9.51562 54.5469
L9.51562 56.3438
Q9.51562 66.0625 14.3438 71.2656
Q19.1875 76.4688 28.3281 76.4688
Q31.3906 76.4688 33.8594 76.1719
Q36.3281 75.875 38.375 75.4844
z
" id="Verdana-66"/>
      <path d="
M57.0312 27.6875
Q57.0312 20.8438 55.0938 15.375
Q53.1719 9.90625 49.9062 6.20312
Q46.4375 2.34375 42.2812 0.40625
Q38.1406 -1.51562 33.1562 -1.51562
Q28.5156 -1.51562 25.0469 -0.40625
Q21.5781 0.6875 18.2188 2.54688
L17.625 0
L9.03125 0
L9.03125 75.9844
L18.2188 75.9844
L18.2188 48.8281
Q22.0781 52 26.4219 54.0312
Q30.7656 56.0625 36.1875 56.0625
Q45.8438 56.0625 51.4375 48.6406
Q57.0312 41.2188 57.0312 27.6875
M47.5625 27.4375
Q47.5625 37.2031 44.3281 42.25
Q41.1094 47.3125 33.9375 47.3125
Q29.9375 47.3125 25.8281 45.5781
Q21.7344 43.8438 18.2188 41.1094
L18.2188 9.85938
Q22.125 8.10938 24.9219 7.42188
Q27.7344 6.73438 31.2969 6.73438
Q38.9219 6.73438 43.2344 11.7344
Q47.5625 16.75 47.5625 27.4375" id="Verdana-62"/>
     </defs>
     <g transform="translate(700.371 133.848)scale(0.144 -0.144)">
      <use xlink:href="#Verdana-66"/>
      <use x="35.15625" xlink:href="#Verdana-65"/>
      <use x="94.7265625" xlink:href="#Verdana-65"/>
      <use x="154.296875" xlink:href="#Verdana-64"/>
      <use x="216.6015625" xlink:href="#Verdana-62"/>
      <use x="278.90625" xlink:href="#Verdana-61"/>
      <use x="338.96484375" xlink:href="#Verdana-63"/>
      <use x="391.064453125" xlink:href="#Verdana-6b"/>
     </g>
    </g>
   </g>
  </g>
  <g id="axes_2">
   <g id="patch_8">
    <path d="
M108 548.656
L777.6 548.656
L777.6 339.644
L108 339.644
z
" style="fill:#ffffff;"/>
   </g>
   <g id="line2d_52">
    <path clip-path="url(#p69ef34d040)" d="
M108 444.15
L110.678 444.15
L113.357 350.095
L164.246 350.095
L166.925 354.014
L169.603 424.555
L172.282 444.15
L442.8 444.15
L445.478 464.398
L448.157 534.939
L450.835 538.205
L482.976 538.205
L485.654 537.879
L488.333 537.879
L491.011 538.205
L504.403 538.205
L507.082 514.038
L509.76 444.15
L646.358 444.15
L646.358 444.15" style="fill:none;stroke:#0000ff;stroke-linecap:square;"/>
   </g>
   <g id="line2d_53">
    <path clip-path="url(#p69ef34d040)" d="
M108 444.15
L110.678 444.15
L113.357 434.353
L116.035 404.96
L118.714 385.365
L121.392 370.669
L124.07 362.505
L129.427 352.707
L132.106 351.074
L134.784 352.707
L140.141 349.442
L142.819 351.074
L145.498 346.176
L148.176 352.707
L150.854 349.442
L153.533 352.707
L156.211 347.809
L158.89 351.074
L161.568 352.707
L164.246 346.176
L166.925 352.707
L169.603 351.074
L172.282 347.809
L174.96 362.505
L177.638 385.365
L182.995 418.024
L185.674 429.454
L188.352 432.72
L191.03 440.884
L193.709 439.251
L196.387 442.517
L201.744 445.783
L204.422 449.049
L207.101 444.15
L233.885 444.15
L236.563 447.416
L239.242 445.783
L241.92 445.783
L244.598 444.15
L247.277 444.15
L249.955 440.884
L255.312 447.416
L257.99 444.15
L279.418 444.15
L282.096 445.783
L284.774 445.783
L287.453 444.15
L290.131 440.884
L292.81 445.783
L295.488 445.783
L298.166 444.15
L300.845 445.783
L303.523 442.517
L306.202 444.15
L308.88 444.15
L311.558 445.783
L314.237 442.517
L319.594 445.783
L324.95 442.517
L327.629 444.15
L330.307 447.416
L335.664 440.884
L338.342 444.15
L341.021 445.783
L343.699 445.783
L346.378 440.884
L349.056 444.15
L351.734 445.783
L354.413 445.783
L357.091 444.15
L359.77 444.15
L362.448 440.884
L367.805 447.416
L370.483 444.15
L381.197 444.15
L383.875 440.884
L389.232 447.416
L391.91 444.15
L397.267 444.15
L399.946 442.517
L402.624 442.517
L405.302 445.783
L407.981 445.783
L410.659 444.15
L429.408 444.15
L432.086 442.517
L434.765 442.517
L437.443 445.783
L440.122 445.783
L442.8 444.15
L448.157 444.15
L450.835 445.783
L453.514 463.745
L456.192 483.34
L458.87 504.567
L461.549 522.529
L464.227 537.226
L466.906 538.858
L469.584 542.124
L472.262 537.226
L474.941 542.124
L477.619 537.226
L480.298 537.226
L482.976 538.858
L485.654 537.226
L488.333 538.858
L491.011 537.226
L493.69 537.226
L496.368 533.96
L499.046 538.858
L501.725 538.858
L504.403 535.593
L507.082 537.226
L509.76 540.491
L512.438 532.327
L515.117 517.631
L517.795 494.77
L520.474 476.808
L525.83 450.682
L528.509 442.517
L531.187 437.618
L533.866 437.618
L536.544 449.049
L539.222 453.947
L541.901 447.416
L544.579 449.049
L547.258 445.783
L549.936 435.985
L552.614 437.618
L555.293 437.618
L557.971 440.884
L560.65 452.315
L563.328 450.682
L566.006 450.682
L568.685 444.15
L571.363 435.985
L576.72 439.251
L579.398 442.517
L582.077 452.315
L584.755 447.416
L587.434 452.315
L590.112 445.783
L592.79 435.985
L595.469 437.618
L598.147 437.618
L600.826 442.517
L603.504 453.947
L606.182 445.783
L608.861 452.315
L611.539 445.783
L614.218 437.618
L619.574 437.618
L622.253 440.884
L624.931 452.315
L627.61 449.049
L630.288 452.315
L632.966 445.783
L635.645 437.618
L638.323 439.251
L641.002 439.251
L643.68 440.884
L646.358 450.682
L646.358 450.682" style="fill:none;stroke:#008000;stroke-linecap:square;"/>
   </g>
   <g id="matplotlib.axis_3">
    <g id="xtick_7">
     <g id="line2d_54">
      <path clip-path="url(#p69ef34d040)" d="
M108 548.656
L108 339.644" style="fill:none;stroke:#000000;stroke-dasharray:1.000000,3.000000;stroke-dashoffset:0.0;stroke-width:0.5;"/>
     </g>
     <g id="line2d_55">
      <g>
       <use style="stroke:#000000;stroke-width:0.5;" x="108.0" xlink:href="#m93b0483c22" y="548.655882353"/>
      </g>
     </g>
     <g id="line2d_56">
      <g>
       <use style="stroke:#000000;stroke-width:0.5;" x="108.0" xlink:href="#m741efc42ff" y="339.644117647"/>
      </g>
     </g>
     <g id="text_20">
      <!-- 0 -->
      <g transform="translate(104.9821875 561.774007353)scale(0.12 -0.12)">
       <use xlink:href="#Verdana-30"/>
      </g>
     </g>
    </g>
    <g id="xtick_8">
     <g id="line2d_57">
      <path clip-path="url(#p69ef34d040)" d="
M241.92 548.656
L241.92 339.644" style="fill:none;stroke:#000000;stroke-dasharray:1.000000,3.000000;stroke-dashoffset:0.0;stroke-width:0.5;"/>
     </g>
     <g id="line2d_58">
      <g>
       <use style="stroke:#000000;stroke-width:0.5;" x="241.92" xlink:href="#m93b0483c22" y="548.655882353"/>
      </g>
     </g>
     <g id="line2d_59">
      <g>
       <use style="stroke:#000000;stroke-width:0.5;" x="241.92" xlink:href="#m741efc42ff" y="339.644117647"/>
      </g>
     </g>
     <g id="text_21">
      <!-- 500 -->
      <g transform="translate(231.4190625 561.774007353)scale(0.12 -0.12)">
       <use xlink:href="#Verdana-35"/>
       <use x="63.57421875" xlink:href="#Verdana-30"/>
       <use x="127.1484375" xlink:href="#Verdana-30"/>
      </g>
     </g>
    </g>
    <g id="xtick_9">
     <g id="line2d_60">
      <path clip-path="url(#p69ef34d040)" d="
M375.84 548.656
L375.84 339.644" style="fill:none;stroke:#000000;stroke-dasharray:1.000000,3.000000;stroke-dashoffset:0.0;stroke-width:0.5;"/>
     </g>
     <g id="line2d_61">
      <g>
       <use style="stroke:#000000;stroke-width:0.5;" x="375.84" xlink:href="#m93b0483c22" y="548.655882353"/>
      </g>
     </g>
     <g id="line2d_62">
      <g>
       <use style="stroke:#000000;stroke-width:0.5;" x="375.84" xlink:href="#m741efc42ff" y="339.644117647"/>
      </g>
     </g>
     <g id="text_22">
      <!-- 1000 -->
      <g transform="translate(361.7915625 561.774007353)scale(0.12 -0.12)">
       <use xlink:href="#Verdana-31"/>
       <use x="63.57421875" xlink:href="#Verdana-30"/>
       <use x="127.1484375" xlink:href="#Verdana-30"/>
       <use x="190.72265625" xlink:href="#Verdana-30"/>
      </g>
     </g>
    </g>
    <g id="xtick_10">
     <g id="line2d_63">
      <path clip-path="url(#p69ef34d040)" d="
M509.76 548.656
L509.76 339.644" style="fill:none;stroke:#000000;stroke-dasharray:1.000000,3.000000;stroke-dashoffset:0.0;stroke-width:0.5;"/>
     </g>
     <g id="line2d_64">
      <g>
       <use style="stroke:#000000;stroke-width:0.5;" x="509.76" xlink:href="#m93b0483c22" y="548.655882353"/>
      </g>
     </g>
     <g id="line2d_65">
      <g>
       <use style="stroke:#000000;stroke-width:0.5;" x="509.76" xlink:href="#m741efc42ff" y="339.644117647"/>
      </g>
     </g>
     <g id="text_23">
      <!-- 1500 -->
      <g transform="translate(495.7115625 561.774007353)scale(0.12 -0.12)">
       <use xlink:href="#Verdana-31"/>
       <use x="63.57421875" xlink:href="#Verdana-35"/>
       <use x="127.1484375" xlink:href="#Verdana-30"/>
       <use x="190.72265625" xlink:href="#Verdana-30"/>
      </g>
     </g>
    </g>
    <g id="xtick_11">
     <g id="line2d_66">
      <path clip-path="url(#p69ef34d040)" d="
M643.68 548.656
L643.68 339.644" style="fill:none;stroke:#000000;stroke-dasharray:1.000000,3.000000;stroke-dashoffset:0.0;stroke-width:0.5;"/>
     </g>
     <g id="line2d_67">
      <g>
       <use style="stroke:#000000;stroke-width:0.5;" x="643.68" xlink:href="#m93b0483c22" y="548.655882353"/>
      </g>
     </g>
     <g id="line2d_68">
      <g>
       <use style="stroke:#000000;stroke-width:0.5;" x="643.68" xlink:href="#m741efc42ff" y="339.644117647"/>
      </g>
     </g>
     <g id="text_24">
      <!-- 2000 -->
      <g transform="translate(629.2884375 561.774007353)scale(0.12 -0.12)">
       <use xlink:href="#Verdana-32"/>
       <use x="63.57421875" xlink:href="#Verdana-30"/>
       <use x="127.1484375" xlink:href="#Verdana-30"/>
       <use x="190.72265625" xlink:href="#Verdana-30"/>
      </g>
     </g>
    </g>
    <g id="xtick_12">
     <g id="line2d_69">
      <path clip-path="url(#p69ef34d040)" d="
M777.6 548.656
L777.6 339.644" style="fill:none;stroke:#000000;stroke-dasharray:1.000000,3.000000;stroke-dashoffset:0.0;stroke-width:0.5;"/>
     </g>
     <g id="line2d_70">
      <g>
       <use style="stroke:#000000;stroke-width:0.5;" x="777.6" xlink:href="#m93b0483c22" y="548.655882353"/>
      </g>
     </g>
     <g id="line2d_71">
      <g>
       <use style="stroke:#000000;stroke-width:0.5;" x="777.6" xlink:href="#m741efc42ff" y="339.644117647"/>
      </g>
     </g>
     <g id="text_25">
      <!-- 2500 -->
      <g transform="translate(763.2084375 561.774007353)scale(0.12 -0.12)">
       <use xlink:href="#Verdana-32"/>
       <use x="63.57421875" xlink:href="#Verdana-35"/>
       <use x="127.1484375" xlink:href="#Verdana-30"/>
       <use x="190.72265625" xlink:href="#Verdana-30"/>
      </g>
     </g>
    </g>
   </g>
   <g id="matplotlib.axis_4">
    <g id="ytick_10">
     <g id="line2d_72">
      <path clip-path="url(#p69ef34d040)" d="
M108 548.656
L777.6 548.656" style="fill:none;stroke:#000000;stroke-dasharray:1.000000,3.000000;stroke-dashoffset:0.0;stroke-width:0.5;"/>
     </g>
     <g id="line2d_73">
      <g>
       <use style="stroke:#000000;stroke-width:0.5;" x="108.0" xlink:href="#m728421d6d4" y="548.655882353"/>
      </g>
     </g>
     <g id="line2d_74">
      <g>
       <use style="stroke:#000000;stroke-width:0.5;" x="777.6" xlink:href="#mcb0005524f" y="548.655882353"/>
      </g>
     </g>
     <g id="text_26">
      <!-- −80 -->
      <g transform="translate(81.00125 552.007444853)scale(0.12 -0.12)">
       <use xlink:href="#Verdana-2212"/>
       <use x="81.8359375" xlink:href="#Verdana-38"/>
       <use x="145.41015625" xlink:href="#Verdana-30"/>
      </g>
     </g>
    </g>
    <g id="ytick_11">
     <g id="line2d_75">
      <path clip-path="url(#p69ef34d040)" d="
M108 522.529
L777.6 522.529" style="fill:none;stroke:#000000;stroke-dasharray:1.000000,3.000000;stroke-dashoffset:0.0;stroke-width:0.5;"/>
     </g>
     <g id="line2d_76">
      <g>
       <use style="stroke:#000000;stroke-width:0.5;" x="108.0" xlink:href="#m728421d6d4" y="522.529411765"/>
      </g>
     </g>
     <g id="line2d_77">
      <g>
       <use style="stroke:#000000;stroke-width:0.5;" x="777.6" xlink:href="#mcb0005524f" y="522.529411765"/>
      </g>
     </g>
     <g id="text_27">
      <!-- −60 -->
      <g transform="translate(81.00125 525.880974265)scale(0.12 -0.12)">
       <use xlink:href="#Verdana-2212"/>
       <use x="81.8359375" xlink:href="#Verdana-36"/>
       <use x="145.41015625" xlink:href="#Verdana-30"/>
      </g>
     </g>
    </g>
    <g id="ytick_12">
     <g id="line2d_78">
      <path clip-path="url(#p69ef34d040)" d="
M108 496.403
L777.6 496.403" style="fill:none;stroke:#000000;stroke-dasharray:1.000000,3.000000;stroke-dashoffset:0.0;stroke-width:0.5;"/>
     </g>
     <g id="line2d_79">
      <g>
       <use style="stroke:#000000;stroke-width:0.5;" x="108.0" xlink:href="#m728421d6d4" y="496.402941176"/>
      </g>
     </g>
     <g id="line2d_80">
      <g>
       <use style="stroke:#000000;stroke-width:0.5;" x="777.6" xlink:href="#mcb0005524f" y="496.402941176"/>
      </g>
     </g>
     <g id="text_28">
      <!-- −40 -->
      <defs>
       <path d="
M58.7344 20.4531
L47.9531 20.4531
L47.9531 0
L38.5781 0
L38.5781 20.4531
L3.76562 20.4531
L3.76562 31.6875
L38.9688 72.7031
L47.9531 72.7031
L47.9531 28.2656
L58.7344 28.2656
z

M38.5781 28.2656
L38.5781 61.0781
L10.4062 28.2656
z
" id="Verdana-34"/>
      </defs>
      <g transform="translate(81.00125 499.754503676)scale(0.12 -0.12)">
       <use xlink:href="#Verdana-2212"/>
       <use x="81.8359375" xlink:href="#Verdana-34"/>
       <use x="145.41015625" xlink:href="#Verdana-30"/>
      </g>
     </g>
    </g>
    <g id="ytick_13">
     <g id="line2d_81">
      <path clip-path="url(#p69ef34d040)" d="
M108 470.276
L777.6 470.276" style="fill:none;stroke:#000000;stroke-dasharray:1.000000,3.000000;stroke-dashoffset:0.0;stroke-width:0.5;"/>
     </g>
     <g id="line2d_82">
      <g>
       <use style="stroke:#000000;stroke-width:0.5;" x="108.0" xlink:href="#m728421d6d4" y="470.276470588"/>
      </g>
     </g>
     <g id="line2d_83">
      <g>
       <use style="stroke:#000000;stroke-width:0.5;" x="777.6" xlink:href="#mcb0005524f" y="470.276470588"/>
      </g>
     </g>
     <g id="text_29">
      <!-- −20 -->
      <g transform="translate(81.00125 473.628033088)scale(0.12 -0.12)">
       <use xlink:href="#Verdana-2212"/>
       <use x="81.8359375" xlink:href="#Verdana-32"/>
       <use x="145.41015625" xlink:href="#Verdana-30"/>
      </g>
     </g>
    </g>
    <g id="ytick_14">
     <g id="line2d_84">
      <path clip-path="url(#p69ef34d040)" d="
M108 444.15
L777.6 444.15" style="fill:none;stroke:#000000;stroke-dasharray:1.000000,3.000000;stroke-dashoffset:0.0;stroke-width:0.5;"/>
     </g>
     <g id="line2d_85">
      <g>
       <use style="stroke:#000000;stroke-width:0.5;" x="108.0" xlink:href="#m728421d6d4" y="444.15"/>
      </g>
     </g>
     <g id="line2d_86">
      <g>
       <use style="stroke:#000000;stroke-width:0.5;" x="777.6" xlink:href="#mcb0005524f" y="444.15"/>
      </g>
     </g>
     <g id="text_30">
      <!-- 0 -->
      <g transform="translate(97.964375 447.5015625)scale(0.12 -0.12)">
       <use xlink:href="#Verdana-30"/>
      </g>
     </g>
    </g>
    <g id="ytick_15">
     <g id="line2d_87">
      <path clip-path="url(#p69ef34d040)" d="
M108 418.024
L777.6 418.024" style="fill:none;stroke:#000000;stroke-dasharray:1.000000,3.000000;stroke-dashoffset:0.0;stroke-width:0.5;"/>
     </g>
     <g id="line2d_88">
      <g>
       <use style="stroke:#000000;stroke-width:0.5;" x="108.0" xlink:href="#m728421d6d4" y="418.023529412"/>
      </g>
     </g>
     <g id="line2d_89">
      <g>
       <use style="stroke:#000000;stroke-width:0.5;" x="777.6" xlink:href="#mcb0005524f" y="418.023529412"/>
      </g>
     </g>
     <g id="text_31">
      <!-- 20 -->
      <g transform="translate(90.475625 421.375091912)scale(0.12 -0.12)">
       <use xlink:href="#Verdana-32"/>
       <use x="63.57421875" xlink:href="#Verdana-30"/>
      </g>
     </g>
    </g>
    <g id="ytick_16">
     <g id="line2d_90">
      <path clip-path="url(#p69ef34d040)" d="
M108 391.897
L777.6 391.897" style="fill:none;stroke:#000000;stroke-dasharray:1.000000,3.000000;stroke-dashoffset:0.0;stroke-width:0.5;"/>
     </g>
     <g id="line2d_91">
      <g>
       <use style="stroke:#000000;stroke-width:0.5;" x="108.0" xlink:href="#m728421d6d4" y="391.897058824"/>
      </g>
     </g>
     <g id="line2d_92">
      <g>
       <use style="stroke:#000000;stroke-width:0.5;" x="777.6" xlink:href="#mcb0005524f" y="391.897058824"/>
      </g>
     </g>
     <g id="text_32">
      <!-- 40 -->
      <g transform="translate(89.984375 395.248621324)scale(0.12 -0.12)">
       <use xlink:href="#Verdana-34"/>
       <use x="63.57421875" xlink:href="#Verdana-30"/>
      </g>
     </g>
    </g>
    <g id="ytick_17">
     <g id="line2d_93">
      <path clip-path="url(#p69ef34d040)" d="
M108 365.771
L777.6 365.771" style="fill:none;stroke:#000000;stroke-dasharray:1.000000,3.000000;stroke-dashoffset:0.0;stroke-width:0.5;"/>
     </g>
     <g id="line2d_94">
      <g>
       <use style="stroke:#000000;stroke-width:0.5;" x="108.0" xlink:href="#m728421d6d4" y="365.770588235"/>
      </g>
     </g>
     <g id="line2d_95">
      <g>
       <use style="stroke:#000000;stroke-width:0.5;" x="777.6" xlink:href="#mcb0005524f" y="365.770588235"/>
      </g>
     </g>
     <g id="text_33">
      <!-- 60 -->
      <g transform="translate(90.335 369.122150735)scale(0.12 -0.12)">
       <use xlink:href="#Verdana-36"/>
       <use x="63.57421875" xlink:href="#Verdana-30"/>
      </g>
     </g>
    </g>
    <g id="ytick_18">
     <g id="line2d_96">
      <path clip-path="url(#p69ef34d040)" d="
M108 339.644
L777.6 339.644" style="fill:none;stroke:#000000;stroke-dasharray:1.000000,3.000000;stroke-dashoffset:0.0;stroke-width:0.5;"/>
     </g>
     <g id="line2d_97">
      <g>
       <use style="stroke:#000000;stroke-width:0.5;" x="108.0" xlink:href="#m728421d6d4" y="339.644117647"/>
      </g>
     </g>
     <g id="line2d_98">
      <g>
       <use style="stroke:#000000;stroke-width:0.5;" x="777.6" xlink:href="#mcb0005524f" y="339.644117647"/>
      </g>
     </g>
     <g id="text_34">
      <!-- 80 -->
      <g transform="translate(90.246875 342.995680147)scale(0.12 -0.12)">
       <use xlink:href="#Verdana-38"/>
       <use x="63.57421875" xlink:href="#Verdana-30"/>
      </g>
     </g>
    </g>
    <g id="text_35">
     <!-- a (pulsos/Ts^2) -->
     <defs>
      <path d="
M72.75 33.4062
L63.0938 33.4062
L40.875 64.0156
L18.7031 33.2969
L9.07812 33.2969
L37.8438 72.7031
L44 72.7031
z
" id="Verdana-5e"/>
     </defs>
     <g transform="translate(73.58625 491.604375)rotate(-90.0)scale(0.12 -0.12)">
      <use xlink:href="#Verdana-61"/>
      <use x="60.05859375" xlink:href="#Verdana-20"/>
      <use x="95.21484375" xlink:href="#Verdana-28"/>
      <use x="140.625" xlink:href="#Verdana-70"/>
      <use x="202.9296875" xlink:href="#Verdana-75"/>
      <use x="266.2109375" xlink:href="#Verdana-6c"/>
      <use x="293.65234375" xlink:href="#Verdana-73"/>
      <use x="345.751953125" xlink:href="#Verdana-6f"/>
      <use x="406.4453125" xlink:href="#Verdana-73"/>
      <use x="458.544921875" xlink:href="#Verdana-2f"/>
      <use x="503.955078125" xlink:href="#Verdana-54"/>
      <use x="556.826171875" xlink:href="#Verdana-73"/>
      <use x="608.92578125" xlink:href="#Verdana-5e"/>
      <use x="690.76171875" xlink:href="#Verdana-32"/>
      <use x="754.3359375" xlink:href="#Verdana-29"/>
     </g>
    </g>
   </g>
   <g id="patch_9">
    <path d="
M108 339.644
L777.6 339.644" style="fill:none;stroke:#000000;"/>
   </g>
   <g id="patch_10">
    <path d="
M777.6 548.656
L777.6 339.644" style="fill:none;stroke:#000000;"/>
   </g>
   <g id="patch_11">
    <path d="
M108 548.656
L777.6 548.656" style="fill:none;stroke:#000000;"/>
   </g>
   <g id="patch_12">
    <path d="
M108 548.656
L108 339.644" style="fill:none;stroke:#000000;"/>
   </g>
   <g id="legend_2">
    <g id="patch_13">
     <path d="
M654.291 393.32
L770.4 393.32
L770.4 346.844
L654.291 346.844
L654.291 393.32
z
" style="fill:#ffffff;stroke:#000000;"/>
    </g>
    <g id="line2d_99">
     <path d="
M664.371 358.506
L684.531 358.506" style="fill:none;stroke:#0000ff;stroke-linecap:square;"/>
    </g>
    <g id="line2d_100"/>
    <g id="text_36">
     <!-- consigna -->
     <g transform="translate(700.371 363.545867647)scale(0.144 -0.144)">
      <use xlink:href="#Verdana-63"/>
      <use x="52.099609375" xlink:href="#Verdana-6f"/>
      <use x="112.79296875" xlink:href="#Verdana-6e"/>
      <use x="176.07421875" xlink:href="#Verdana-73"/>
      <use x="228.173828125" xlink:href="#Verdana-69"/>
      <use x="255.615234375" xlink:href="#Verdana-67"/>
      <use x="317.919921875" xlink:href="#Verdana-6e"/>
      <use x="381.201171875" xlink:href="#Verdana-61"/>
     </g>
    </g>
    <g id="line2d_101">
     <path d="
M664.371 379.622
L684.531 379.622" style="fill:none;stroke:#008000;stroke-linecap:square;"/>
    </g>
    <g id="line2d_102"/>
    <g id="text_37">
     <!-- feedback -->
     <g transform="translate(700.371 384.662117647)scale(0.144 -0.144)">
      <use xlink:href="#Verdana-66"/>
      <use x="35.15625" xlink:href="#Verdana-65"/>
      <use x="94.7265625" xlink:href="#Verdana-65"/>
      <use x="154.296875" xlink:href="#Verdana-64"/>
      <use x="216.6015625" xlink:href="#Verdana-62"/>
      <use x="278.90625" xlink:href="#Verdana-61"/>
      <use x="338.96484375" xlink:href="#Verdana-63"/>
      <use x="391.064453125" xlink:href="#Verdana-6b"/>
     </g>
    </g>
   </g>
  </g>
  <g id="axes_3">
   <g id="patch_14">
    <path d="
M108 799.47
L777.6 799.47
L777.6 590.458
L108 590.458
z
" style="fill:#ffffff;"/>
   </g>
   <g id="line2d_103">
    <path clip-path="url(#pfb440c3b39)" d="
M108 703.069
L110.678 684.145
L113.357 668.589
L116.035 658.34
L118.714 650.11
L121.392 644.015
L126.749 635.006
L129.427 632.169
L134.784 625.316
L140.141 619.579
L142.819 616.133
L145.498 613.86
L148.176 610.424
L150.854 607.566
L153.533 604.115
L156.211 601.826
L161.568 594.926
L164.246 592.637
L166.925 590.589
L169.603 604.749
L172.282 619.634
L174.96 632.271
L177.638 640.778
L180.317 647.32
L182.995 650.625
L188.352 655.26
L191.03 655.356
L193.709 656.634
L199.066 656.929
L204.422 656.017
L233.885 657.096
L239.242 656.088
L247.277 656.234
L249.955 656.88
L252.634 656.953
L255.312 656.43
L279.418 656.872
L282.096 656.336
L287.453 656.386
L290.131 657.005
L292.81 656.472
L298.166 656.519
L300.845 655.96
L303.523 656.558
L316.915 656.668
L319.594 656.109
L322.272 656.691
L327.629 656.741
L330.307 656.169
L332.986 656.169
L335.664 656.765
L338.342 656.791
L341.021 656.232
L343.699 656.232
L346.378 656.827
L349.056 656.851
L351.734 656.292
L359.77 656.292
L362.448 656.887
L365.126 656.911
L367.805 656.341
L381.197 656.341
L383.875 656.937
L386.554 656.961
L389.232 656.388
L397.267 656.388
L399.946 656.974
L402.624 656.997
L405.302 656.438
L429.408 656.438
L432.086 657.023
L434.765 657.047
L437.443 656.488
L442.8 656.488
L445.478 663.727
L450.835 698.434
L453.514 712.404
L456.192 723.928
L458.87 731.706
L461.549 736.171
L464.227 738.93
L466.906 742.256
L469.584 743.836
L472.262 747.141
L474.941 749.271
L477.619 752.552
L488.333 763.295
L496.368 773.208
L501.725 778.705
L504.403 782.044
L507.082 776.291
L509.76 761.702
L512.438 748.165
L515.117 736.934
L517.795 728.753
L520.474 724.328
L523.152 722.042
L525.83 720.853
L528.509 721.386
L533.866 723.745
L539.222 720.294
L541.901 720.221
L544.579 718.967
L547.258 719.416
L552.614 721.626
L555.293 722.804
L557.971 722.867
L560.65 721.153
L563.328 719.962
L566.006 719.293
L568.685 719.766
L574.042 722.026
L576.72 722.645
L579.398 722.708
L582.077 720.997
L584.755 720.398
L587.434 719.17
L590.112 719.643
L595.469 721.903
L598.147 723.108
L600.826 722.609
L603.504 720.897
L606.182 720.884
L608.861 719.669
L611.539 719.583
L616.896 721.843
L619.574 723.047
L622.253 723.131
L624.931 721.443
L627.61 720.861
L630.288 719.643
L632.966 719.56
L635.645 720.665
L638.323 721.234
L641.002 722.413
L643.68 722.475
L646.358 721.344
L646.358 721.344" style="fill:none;stroke:#0000ff;stroke-linecap:square;"/>
   </g>
   <g id="matplotlib.axis_5">
    <g id="xtick_13">
     <g id="line2d_104">
      <path clip-path="url(#pfb440c3b39)" d="
M108 799.47
L108 590.458" style="fill:none;stroke:#000000;stroke-dasharray:1.000000,3.000000;stroke-dashoffset:0.0;stroke-width:0.5;"/>
     </g>
     <g id="line2d_105">
      <g>
       <use style="stroke:#000000;stroke-width:0.5;" x="108.0" xlink:href="#m93b0483c22" y="799.47"/>
      </g>
     </g>
     <g id="line2d_106">
      <g>
       <use style="stroke:#000000;stroke-width:0.5;" x="108.0" xlink:href="#m741efc42ff" y="590.458235294"/>
      </g>
     </g>
     <g id="text_38">
      <!-- 0 -->
      <g transform="translate(104.9821875 812.588125)scale(0.12 -0.12)">
       <use xlink:href="#Verdana-30"/>
      </g>
     </g>
    </g>
    <g id="xtick_14">
     <g id="line2d_107">
      <path clip-path="url(#pfb440c3b39)" d="
M241.92 799.47
L241.92 590.458" style="fill:none;stroke:#000000;stroke-dasharray:1.000000,3.000000;stroke-dashoffset:0.0;stroke-width:0.5;"/>
     </g>
     <g id="line2d_108">
      <g>
       <use style="stroke:#000000;stroke-width:0.5;" x="241.92" xlink:href="#m93b0483c22" y="799.47"/>
      </g>
     </g>
     <g id="line2d_109">
      <g>
       <use style="stroke:#000000;stroke-width:0.5;" x="241.92" xlink:href="#m741efc42ff" y="590.458235294"/>
      </g>
     </g>
     <g id="text_39">
      <!-- 500 -->
      <g transform="translate(231.4190625 812.588125)scale(0.12 -0.12)">
       <use xlink:href="#Verdana-35"/>
       <use x="63.57421875" xlink:href="#Verdana-30"/>
       <use x="127.1484375" xlink:href="#Verdana-30"/>
      </g>
     </g>
    </g>
    <g id="xtick_15">
     <g id="line2d_110">
      <path clip-path="url(#pfb440c3b39)" d="
M375.84 799.47
L375.84 590.458" style="fill:none;stroke:#000000;stroke-dasharray:1.000000,3.000000;stroke-dashoffset:0.0;stroke-width:0.5;"/>
     </g>
     <g id="line2d_111">
      <g>
       <use style="stroke:#000000;stroke-width:0.5;" x="375.84" xlink:href="#m93b0483c22" y="799.47"/>
      </g>
     </g>
     <g id="line2d_112">
      <g>
       <use style="stroke:#000000;stroke-width:0.5;" x="375.84" xlink:href="#m741efc42ff" y="590.458235294"/>
      </g>
     </g>
     <g id="text_40">
      <!-- 1000 -->
      <g transform="translate(361.7915625 812.588125)scale(0.12 -0.12)">
       <use xlink:href="#Verdana-31"/>
       <use x="63.57421875" xlink:href="#Verdana-30"/>
       <use x="127.1484375" xlink:href="#Verdana-30"/>
       <use x="190.72265625" xlink:href="#Verdana-30"/>
      </g>
     </g>
    </g>
    <g id="xtick_16">
     <g id="line2d_113">
      <path clip-path="url(#pfb440c3b39)" d="
M509.76 799.47
L509.76 590.458" style="fill:none;stroke:#000000;stroke-dasharray:1.000000,3.000000;stroke-dashoffset:0.0;stroke-width:0.5;"/>
     </g>
     <g id="line2d_114">
      <g>
       <use style="stroke:#000000;stroke-width:0.5;" x="509.76" xlink:href="#m93b0483c22" y="799.47"/>
      </g>
     </g>
     <g id="line2d_115">
      <g>
       <use style="stroke:#000000;stroke-width:0.5;" x="509.76" xlink:href="#m741efc42ff" y="590.458235294"/>
      </g>
     </g>
     <g id="text_41">
      <!-- 1500 -->
      <g transform="translate(495.7115625 812.588125)scale(0.12 -0.12)">
       <use xlink:href="#Verdana-31"/>
       <use x="63.57421875" xlink:href="#Verdana-35"/>
       <use x="127.1484375" xlink:href="#Verdana-30"/>
       <use x="190.72265625" xlink:href="#Verdana-30"/>
      </g>
     </g>
    </g>
    <g id="xtick_17">
     <g id="line2d_116">
      <path clip-path="url(#pfb440c3b39)" d="
M643.68 799.47
L643.68 590.458" style="fill:none;stroke:#000000;stroke-dasharray:1.000000,3.000000;stroke-dashoffset:0.0;stroke-width:0.5;"/>
     </g>
     <g id="line2d_117">
      <g>
       <use style="stroke:#000000;stroke-width:0.5;" x="643.68" xlink:href="#m93b0483c22" y="799.47"/>
      </g>
     </g>
     <g id="line2d_118">
      <g>
       <use style="stroke:#000000;stroke-width:0.5;" x="643.68" xlink:href="#m741efc42ff" y="590.458235294"/>
      </g>
     </g>
     <g id="text_42">
      <!-- 2000 -->
      <g transform="translate(629.2884375 812.588125)scale(0.12 -0.12)">
       <use xlink:href="#Verdana-32"/>
       <use x="63.57421875" xlink:href="#Verdana-30"/>
       <use x="127.1484375" xlink:href="#Verdana-30"/>
       <use x="190.72265625" xlink:href="#Verdana-30"/>
      </g>
     </g>
    </g>
    <g id="xtick_18">
     <g id="line2d_119">
      <path clip-path="url(#pfb440c3b39)" d="
M777.6 799.47
L777.6 590.458" style="fill:none;stroke:#000000;stroke-dasharray:1.000000,3.000000;stroke-dashoffset:0.0;stroke-width:0.5;"/>
     </g>
     <g id="line2d_120">
      <g>
       <use style="stroke:#000000;stroke-width:0.5;" x="777.6" xlink:href="#m93b0483c22" y="799.47"/>
      </g>
     </g>
     <g id="line2d_121">
      <g>
       <use style="stroke:#000000;stroke-width:0.5;" x="777.6" xlink:href="#m741efc42ff" y="590.458235294"/>
      </g>
     </g>
     <g id="text_43">
      <!-- 2500 -->
      <g transform="translate(763.2084375 812.588125)scale(0.12 -0.12)">
       <use xlink:href="#Verdana-32"/>
       <use x="63.57421875" xlink:href="#Verdana-35"/>
       <use x="127.1484375" xlink:href="#Verdana-30"/>
       <use x="190.72265625" xlink:href="#Verdana-30"/>
      </g>
     </g>
    </g>
    <g id="text_44">
     <!-- t (ms) -->
     <defs>
      <path d="
M88.625 0
L79.4375 0
L79.4375 31.0625
Q79.4375 34.5781 79.125 37.8438
Q78.8125 41.1094 77.7812 43.0625
Q76.6562 45.1719 74.5625 46.2344
Q72.4688 47.3125 68.5 47.3125
Q64.6562 47.3125 60.7969 45.375
Q56.9375 43.4531 53.0781 40.4844
Q53.2188 39.3594 53.3125 37.8594
Q53.4219 36.375 53.4219 34.9062
L53.4219 0
L44.2344 0
L44.2344 31.0625
Q44.2344 34.6719 43.9219 37.9062
Q43.6094 41.1562 42.5781 43.1094
Q41.4531 45.2188 39.3438 46.2656
Q37.25 47.3125 33.2969 47.3125
Q29.5469 47.3125 25.75 45.4531
Q21.9688 43.6094 18.2188 40.7188
L18.2188 0
L9.03125 0
L9.03125 54.5469
L18.2188 54.5469
L18.2188 48.4844
Q22.5156 52.0469 26.7812 54.0469
Q31.0625 56.0625 35.8906 56.0625
Q41.4531 56.0625 45.3281 53.7188
Q49.2188 51.375 51.125 47.2188
Q56.6875 51.9062 61.2812 53.9844
Q65.875 56.0625 71.0938 56.0625
Q80.0781 56.0625 84.3438 50.6094
Q88.625 45.1719 88.625 35.4062
z
" id="Verdana-6d"/>
     </defs>
     <g transform="translate(424.445625 829.12125)scale(0.12 -0.12)">
      <use xlink:href="#Verdana-74"/>
      <use x="39.404296875" xlink:href="#Verdana-20"/>
      <use x="74.560546875" xlink:href="#Verdana-28"/>
      <use x="119.970703125" xlink:href="#Verdana-6d"/>
      <use x="217.236328125" xlink:href="#Verdana-73"/>
      <use x="269.3359375" xlink:href="#Verdana-29"/>
     </g>
    </g>
   </g>
   <g id="matplotlib.axis_6">
    <g id="ytick_19">
     <g id="line2d_122">
      <path clip-path="url(#pfb440c3b39)" d="
M108 799.47
L777.6 799.47" style="fill:none;stroke:#000000;stroke-dasharray:1.000000,3.000000;stroke-dashoffset:0.0;stroke-width:0.5;"/>
     </g>
     <g id="line2d_123">
      <g>
       <use style="stroke:#000000;stroke-width:0.5;" x="108.0" xlink:href="#m728421d6d4" y="799.47"/>
      </g>
     </g>
     <g id="line2d_124">
      <g>
       <use style="stroke:#000000;stroke-width:0.5;" x="777.6" xlink:href="#mcb0005524f" y="799.47"/>
      </g>
     </g>
     <g id="text_45">
      <!-- −30000 -->
      <g transform="translate(58.113125 802.8215625)scale(0.12 -0.12)">
       <use xlink:href="#Verdana-2212"/>
       <use x="81.8359375" xlink:href="#Verdana-33"/>
       <use x="145.41015625" xlink:href="#Verdana-30"/>
       <use x="208.984375" xlink:href="#Verdana-30"/>
       <use x="272.55859375" xlink:href="#Verdana-30"/>
       <use x="336.1328125" xlink:href="#Verdana-30"/>
      </g>
     </g>
    </g>
    <g id="ytick_20">
     <g id="line2d_125">
      <path clip-path="url(#pfb440c3b39)" d="
M108 773.344
L777.6 773.344" style="fill:none;stroke:#000000;stroke-dasharray:1.000000,3.000000;stroke-dashoffset:0.0;stroke-width:0.5;"/>
     </g>
     <g id="line2d_126">
      <g>
       <use style="stroke:#000000;stroke-width:0.5;" x="108.0" xlink:href="#m728421d6d4" y="773.343529412"/>
      </g>
     </g>
     <g id="line2d_127">
      <g>
       <use style="stroke:#000000;stroke-width:0.5;" x="777.6" xlink:href="#mcb0005524f" y="773.343529412"/>
      </g>
     </g>
     <g id="text_46">
      <!-- −20000 -->
      <g transform="translate(58.113125 776.695091912)scale(0.12 -0.12)">
       <use xlink:href="#Verdana-2212"/>
       <use x="81.8359375" xlink:href="#Verdana-32"/>
       <use x="145.41015625" xlink:href="#Verdana-30"/>
       <use x="208.984375" xlink:href="#Verdana-30"/>
       <use x="272.55859375" xlink:href="#Verdana-30"/>
       <use x="336.1328125" xlink:href="#Verdana-30"/>
      </g>
     </g>
    </g>
    <g id="ytick_21">
     <g id="line2d_128">
      <path clip-path="url(#pfb440c3b39)" d="
M108 747.217
L777.6 747.217" style="fill:none;stroke:#000000;stroke-dasharray:1.000000,3.000000;stroke-dashoffset:0.0;stroke-width:0.5;"/>
     </g>
     <g id="line2d_129">
      <g>
       <use style="stroke:#000000;stroke-width:0.5;" x="108.0" xlink:href="#m728421d6d4" y="747.217058824"/>
      </g>
     </g>
     <g id="line2d_130">
      <g>
       <use style="stroke:#000000;stroke-width:0.5;" x="777.6" xlink:href="#mcb0005524f" y="747.217058824"/>
      </g>
     </g>
     <g id="text_47">
      <!-- −10000 -->
      <g transform="translate(58.113125 750.568621324)scale(0.12 -0.12)">
       <use xlink:href="#Verdana-2212"/>
       <use x="81.8359375" xlink:href="#Verdana-31"/>
       <use x="145.41015625" xlink:href="#Verdana-30"/>
       <use x="208.984375" xlink:href="#Verdana-30"/>
       <use x="272.55859375" xlink:href="#Verdana-30"/>
       <use x="336.1328125" xlink:href="#Verdana-30"/>
      </g>
     </g>
    </g>
    <g id="ytick_22">
     <g id="line2d_131">
      <path clip-path="url(#pfb440c3b39)" d="
M108 721.091
L777.6 721.091" style="fill:none;stroke:#000000;stroke-dasharray:1.000000,3.000000;stroke-dashoffset:0.0;stroke-width:0.5;"/>
     </g>
     <g id="line2d_132">
      <g>
       <use style="stroke:#000000;stroke-width:0.5;" x="108.0" xlink:href="#m728421d6d4" y="721.090588235"/>
      </g>
     </g>
     <g id="line2d_133">
      <g>
       <use style="stroke:#000000;stroke-width:0.5;" x="777.6" xlink:href="#mcb0005524f" y="721.090588235"/>
      </g>
     </g>
     <g id="text_48">
      <!-- 0 -->
      <g transform="translate(97.964375 724.442150735)scale(0.12 -0.12)">
       <use xlink:href="#Verdana-30"/>
      </g>
     </g>
    </g>
    <g id="ytick_23">
     <g id="line2d_134">
      <path clip-path="url(#pfb440c3b39)" d="
M108 694.964
L777.6 694.964" style="fill:none;stroke:#000000;stroke-dasharray:1.000000,3.000000;stroke-dashoffset:0.0;stroke-width:0.5;"/>
     </g>
     <g id="line2d_135">
      <g>
       <use style="stroke:#000000;stroke-width:0.5;" x="108.0" xlink:href="#m728421d6d4" y="694.964117647"/>
      </g>
     </g>
     <g id="line2d_136">
      <g>
       <use style="stroke:#000000;stroke-width:0.5;" x="777.6" xlink:href="#mcb0005524f" y="694.964117647"/>
      </g>
     </g>
     <g id="text_49">
      <!-- 10000 -->
      <g transform="translate(68.27375 698.315680147)scale(0.12 -0.12)">
       <use xlink:href="#Verdana-31"/>
       <use x="63.57421875" xlink:href="#Verdana-30"/>
       <use x="127.1484375" xlink:href="#Verdana-30"/>
       <use x="190.72265625" xlink:href="#Verdana-30"/>
       <use x="254.296875" xlink:href="#Verdana-30"/>
      </g>
     </g>
    </g>
    <g id="ytick_24">
     <g id="line2d_137">
      <path clip-path="url(#pfb440c3b39)" d="
M108 668.838
L777.6 668.838" style="fill:none;stroke:#000000;stroke-dasharray:1.000000,3.000000;stroke-dashoffset:0.0;stroke-width:0.5;"/>
     </g>
     <g id="line2d_138">
      <g>
       <use style="stroke:#000000;stroke-width:0.5;" x="108.0" xlink:href="#m728421d6d4" y="668.837647059"/>
      </g>
     </g>
     <g id="line2d_139">
      <g>
       <use style="stroke:#000000;stroke-width:0.5;" x="777.6" xlink:href="#mcb0005524f" y="668.837647059"/>
      </g>
     </g>
     <g id="text_50">
      <!-- 20000 -->
      <g transform="translate(67.5875 672.189209559)scale(0.12 -0.12)">
       <use xlink:href="#Verdana-32"/>
       <use x="63.57421875" xlink:href="#Verdana-30"/>
       <use x="127.1484375" xlink:href="#Verdana-30"/>
       <use x="190.72265625" xlink:href="#Verdana-30"/>
       <use x="254.296875" xlink:href="#Verdana-30"/>
      </g>
     </g>
    </g>
    <g id="ytick_25">
     <g id="line2d_140">
      <path clip-path="url(#pfb440c3b39)" d="
M108 642.711
L777.6 642.711" style="fill:none;stroke:#000000;stroke-dasharray:1.000000,3.000000;stroke-dashoffset:0.0;stroke-width:0.5;"/>
     </g>
     <g id="line2d_141">
      <g>
       <use style="stroke:#000000;stroke-width:0.5;" x="108.0" xlink:href="#m728421d6d4" y="642.711176471"/>
      </g>
     </g>
     <g id="line2d_142">
      <g>
       <use style="stroke:#000000;stroke-width:0.5;" x="777.6" xlink:href="#mcb0005524f" y="642.711176471"/>
      </g>
     </g>
     <g id="text_51">
      <!-- 30000 -->
      <g transform="translate(67.623125 646.062738971)scale(0.12 -0.12)">
       <use xlink:href="#Verdana-33"/>
       <use x="63.57421875" xlink:href="#Verdana-30"/>
       <use x="127.1484375" xlink:href="#Verdana-30"/>
       <use x="190.72265625" xlink:href="#Verdana-30"/>
       <use x="254.296875" xlink:href="#Verdana-30"/>
      </g>
     </g>
    </g>
    <g id="ytick_26">
     <g id="line2d_143">
      <path clip-path="url(#pfb440c3b39)" d="
M108 616.585
L777.6 616.585" style="fill:none;stroke:#000000;stroke-dasharray:1.000000,3.000000;stroke-dashoffset:0.0;stroke-width:0.5;"/>
     </g>
     <g id="line2d_144">
      <g>
       <use style="stroke:#000000;stroke-width:0.5;" x="108.0" xlink:href="#m728421d6d4" y="616.584705882"/>
      </g>
     </g>
     <g id="line2d_145">
      <g>
       <use style="stroke:#000000;stroke-width:0.5;" x="777.6" xlink:href="#mcb0005524f" y="616.584705882"/>
      </g>
     </g>
     <g id="text_52">
      <!-- 40000 -->
      <g transform="translate(67.09625 619.936268382)scale(0.12 -0.12)">
       <use xlink:href="#Verdana-34"/>
       <use x="63.57421875" xlink:href="#Verdana-30"/>
       <use x="127.1484375" xlink:href="#Verdana-30"/>
       <use x="190.72265625" xlink:href="#Verdana-30"/>
       <use x="254.296875" xlink:href="#Verdana-30"/>
      </g>
     </g>
    </g>
    <g id="ytick_27">
     <g id="line2d_146">
      <path clip-path="url(#pfb440c3b39)" d="
M108 590.458
L777.6 590.458" style="fill:none;stroke:#000000;stroke-dasharray:1.000000,3.000000;stroke-dashoffset:0.0;stroke-width:0.5;"/>
     </g>
     <g id="line2d_147">
      <g>
       <use style="stroke:#000000;stroke-width:0.5;" x="108.0" xlink:href="#m728421d6d4" y="590.458235294"/>
      </g>
     </g>
     <g id="line2d_148">
      <g>
       <use style="stroke:#000000;stroke-width:0.5;" x="777.6" xlink:href="#mcb0005524f" y="590.458235294"/>
      </g>
     </g>
     <g id="text_53">
      <!-- 50000 -->
      <g transform="translate(67.739375 593.809797794)scale(0.12 -0.12)">
       <use xlink:href="#Verdana-35"/>
       <use x="63.57421875" xlink:href="#Verdana-30"/>
       <use x="127.1484375" xlink:href="#Verdana-30"/>
       <use x="190.72265625" xlink:href="#Verdana-30"/>
       <use x="254.296875" xlink:href="#Verdana-30"/>
      </g>
     </g>
    </g>
    <g id="text_54">
     <!-- u (cuentas) -->
     <g transform="translate(50.698125 729.177242647)rotate(-90.0)scale(0.12 -0.12)">
      <use xlink:href="#Verdana-75"/>
      <use x="63.28125" xlink:href="#Verdana-20"/>
      <use x="98.4375" xlink:href="#Verdana-28"/>
      <use x="143.84765625" xlink:href="#Verdana-63"/>
      <use x="195.947265625" xlink:href="#Verdana-75"/>
      <use x="259.228515625" xlink:href="#Verdana-65"/>
      <use x="318.798828125" xlink:href="#Verdana-6e"/>
      <use x="382.080078125" xlink:href="#Verdana-74"/>
      <use x="421.484375" xlink:href="#Verdana-61"/>
      <use x="481.54296875" xlink:href="#Verdana-73"/>
      <use x="533.642578125" xlink:href="#Verdana-29"/>
     </g>
    </g>
   </g>
   <g id="patch_15">
    <path d="
M108 590.458
L777.6 590.458" style="fill:none;stroke:#000000;"/>
   </g>
   <g id="patch_16">
    <path d="
M777.6 799.47
L777.6 590.458" style="fill:none;stroke:#000000;"/>
   </g>
   <g id="patch_17">
    <path d="
M108 799.47
L777.6 799.47" style="fill:none;stroke:#000000;"/>
   </g>
   <g id="patch_18">
    <path d="
M108 799.47
L108 590.458" style="fill:none;stroke:#000000;"/>
   </g>
  </g>
 </g>
 <defs>
  <clipPath id="pfb440c3b39">
   <rect height="209.011764706" width="669.6" x="108.0" y="590.458235294"/>
  </clipPath>
  <clipPath id="p69ef34d040">
   <rect height="209.011764706" width="669.6" x="108.0" y="339.644117647"/>
  </clipPath>
  <clipPath id="pf852ae8543">
   <rect height="209.011764706" width="669.6" x="108.0" y="88.83"/>
  </clipPath>
 </defs>
</svg>
