<?xml version="1.0" encoding="utf-8" standalone="no"?>
<!DOCTYPE svg PUBLIC "-//W3C//DTD SVG 1.1//EN"
  "http://www.w3.org/Graphics/SVG/1.1/DTD/svg11.dtd">
<!-- Created with matplotlib (http://matplotlib.org/) -->
<svg height="888pt" version="1.1" viewBox="0 0 864 888" width="864pt" xmlns="http://www.w3.org/2000/svg" xmlns:xlink="http://www.w3.org/1999/xlink">
 <defs>
  <style type="text/css">
*{stroke-linecap:butt;stroke-linejoin:round;}
  </style>
 </defs>
 <g id="figure_1">
  <g id="patch_1">
   <path d="
M0 888.3
L864 888.3
L864 0
L0 0
z
" style="fill:#ffffff;"/>
  </g>
  <g id="axes_1">
   <g id="patch_2">
    <path d="
M108 297.842
L777.6 297.842
L777.6 88.83
L108 88.83
z
" style="fill:#ffffff;"/>
   </g>
   <g id="line2d_1">
    <path clip-path="url(#pf852ae8543)" d="
M108 263.006
L110.232 92.6619
L112.464 263.006
L777.6 263.006
L777.6 263.006" style="fill:none;stroke:#0000ff;stroke-linecap:square;"/>
   </g>
   <g id="line2d_2">
    <path clip-path="url(#pf852ae8543)" d="
M108 263.006
L110.232 263.268
L112.464 263.094
L114.696 260.742
L116.928 258.217
L121.392 253.601
L123.624 251.424
L125.856 249.595
L130.32 245.676
L137.016 241.06
L141.48 238.448
L145.944 236.357
L150.408 234.79
L154.872 233.571
L159.336 232.874
L161.568 232.7
L168.264 232.7
L172.728 233.048
L179.424 234.354
L181.656 235.399
L183.888 236.706
L186.12 237.838
L188.352 239.144
L190.584 239.667
L195.048 241.583
L199.512 244.457
L203.976 247.331
L206.208 248.724
L208.44 250.292
L210.672 251.685
L212.904 253.253
L219.6 257.433
L224.064 259.958
L228.528 262.484
L230.76 263.355
L237.456 266.664
L239.688 267.535
L241.92 268.58
L248.616 271.193
L255.312 273.283
L257.544 273.631
L259.776 274.328
L262.008 274.676
L264.24 275.199
L270.936 276.244
L273.168 276.331
L275.4 276.592
L279.864 276.592
L282.096 276.244
L284.328 275.634
L286.56 275.199
L291.024 275.199
L295.488 274.938
L299.952 273.457
L304.416 271.802
L308.88 271.019
L311.112 270.931
L313.344 270.409
L315.576 269.712
L317.808 268.754
L326.736 265.532
L331.2 264.922
L335.664 263.529
L340.128 262.484
L344.592 261.178
L349.056 260.045
L353.52 259.523
L366.912 256.997
L369.144 257.172
L371.376 257.52
L373.608 257.52
L380.304 256.91
L382.536 256.649
L384.768 256.562
L387 257.084
L389.232 257.433
L391.464 257.955
L400.392 257.52
L407.088 259.087
L409.32 259.436
L411.552 259.61
L418.248 259.436
L420.48 260.133
L427.176 261.613
L429.408 261.961
L436.104 261.787
L442.8 263.268
L447.264 263.877
L453.96 263.616
L456.192 263.79
L462.888 264.922
L465.12 265.358
L467.352 265.271
L474.048 264.574
L482.976 265.88
L491.904 264.835
L498.6 265.706
L500.832 265.706
L503.064 265.358
L505.296 264.835
L507.528 264.574
L509.76 264.661
L514.224 265.184
L516.456 265.184
L520.92 264.4
L523.152 263.964
L525.384 263.79
L529.848 264.226
L532.08 264.487
L534.312 264.226
L538.776 263.355
L541.008 263.094
L547.704 263.442
L549.936 263.616
L558.864 262.31
L563.328 262.832
L567.792 263.094
L570.024 262.658
L572.256 262.571
L574.488 262.223
L576.72 262.048
L583.416 262.658
L585.648 262.571
L594.576 261.526
L596.808 261.961
L601.272 262.397
L603.504 262.397
L610.2 261.613
L619.128 262.745
L625.824 262.048
L628.056 261.874
L630.288 262.048
L634.752 262.658
L636.984 262.919
L645.912 262.136
L657.072 263.442
L666 262.397
L672.696 263.442
L674.928 263.616
L677.16 263.094
L679.392 263.006
L681.624 262.745
L683.856 262.658
L686.088 263.006
L688.32 263.094
L692.784 263.79
L695.016 263.616
L697.248 263.181
L701.712 263.094
L703.944 263.355
L706.176 263.442
L708.408 263.79
L710.64 263.964
L712.872 263.703
L715.104 263.181
L717.336 263.094
L724.032 263.616
L726.264 263.964
L728.496 263.79
L730.728 263.442
L735.192 263.094
L737.424 263.355
L739.656 263.442
L741.888 263.79
L744.12 263.964
L753.048 262.571
L755.28 262.919
L759.744 263.268
L761.976 263.616
L764.208 263.442
L768.672 262.745
L770.904 262.571
L775.368 263.006
L777.6 263.268
L777.6 263.268" style="fill:none;stroke:#008000;stroke-linecap:square;"/>
   </g>
   <g id="matplotlib.axis_1">
    <g id="xtick_1">
     <g id="line2d_3">
      <path clip-path="url(#pf852ae8543)" d="
M108 297.842
L108 88.83" style="fill:none;stroke:#000000;stroke-dasharray:1.000000,3.000000;stroke-dashoffset:0.0;stroke-width:0.5;"/>
     </g>
     <g id="line2d_4">
      <defs>
       <path d="
M0 0
L0 -4" id="m93b0483c22" style="stroke:#000000;stroke-width:0.5;"/>
      </defs>
      <g>
       <use style="stroke:#000000;stroke-width:0.5;" x="108.0" xlink:href="#m93b0483c22" y="297.841764706"/>
      </g>
     </g>
     <g id="line2d_5">
      <defs>
       <path d="
M0 0
L0 4" id="m741efc42ff" style="stroke:#000000;stroke-width:0.5;"/>
      </defs>
      <g>
       <use style="stroke:#000000;stroke-width:0.5;" x="108.0" xlink:href="#m741efc42ff" y="88.83"/>
      </g>
     </g>
     <g id="text_1">
      <!-- 0 -->
      <defs>
       <path d="
M56.9844 36.375
Q56.9844 16.7969 50.8594 7.64062
Q44.7344 -1.51562 31.8438 -1.51562
Q18.75 -1.51562 12.7188 7.76562
Q6.6875 17.0469 6.6875 36.2812
Q6.6875 55.6719 12.7812 64.9219
Q18.8906 74.1719 31.8438 74.1719
Q44.9219 74.1719 50.9531 64.7656
Q56.9844 55.375 56.9844 36.375
M44.1406 14.2031
Q45.8438 18.1719 46.4531 23.5156
Q47.0781 28.8594 47.0781 36.375
Q47.0781 43.7969 46.4531 49.2656
Q45.8438 54.7344 44.0938 58.5469
Q42.3906 62.3125 39.4219 64.2031
Q36.4688 66.1094 31.8438 66.1094
Q27.25 66.1094 24.2344 64.2031
Q21.2344 62.3125 19.4844 58.4531
Q17.8281 54.8281 17.2188 49.0156
Q16.6094 43.2188 16.6094 36.2812
Q16.6094 28.6562 17.1406 23.5312
Q17.6719 18.4062 19.4375 14.3594
Q21.0469 10.5469 24 8.54688
Q26.9531 6.54688 31.8438 6.54688
Q36.4219 6.54688 39.4531 8.45312
Q42.4844 10.3594 44.1406 14.2031" id="Verdana-30"/>
      </defs>
      <g transform="translate(104.9821875 310.959889706)scale(0.12 -0.12)">
       <use xlink:href="#Verdana-30"/>
      </g>
     </g>
    </g>
    <g id="xtick_2">
     <g id="line2d_6">
      <path clip-path="url(#pf852ae8543)" d="
M219.6 297.842
L219.6 88.83" style="fill:none;stroke:#000000;stroke-dasharray:1.000000,3.000000;stroke-dashoffset:0.0;stroke-width:0.5;"/>
     </g>
     <g id="line2d_7">
      <g>
       <use style="stroke:#000000;stroke-width:0.5;" x="219.6" xlink:href="#m93b0483c22" y="297.841764706"/>
      </g>
     </g>
     <g id="line2d_8">
      <g>
       <use style="stroke:#000000;stroke-width:0.5;" x="219.6" xlink:href="#m741efc42ff" y="88.83"/>
      </g>
     </g>
     <g id="text_2">
      <!-- 500 -->
      <defs>
       <path d="
M56.5 23.0938
Q56.5 18.0156 54.6406 13.375
Q52.7812 8.73438 49.5625 5.5625
Q46.0469 2.15625 41.1875 0.3125
Q36.3281 -1.51562 29.9375 -1.51562
Q23.9688 -1.51562 18.4531 -0.265625
Q12.9375 0.984375 9.125 2.73438
L9.125 13.0312
L9.8125 13.0312
Q13.8125 10.5 19.1875 8.71875
Q24.5625 6.9375 29.7344 6.9375
Q33.2031 6.9375 36.4531 7.90625
Q39.7031 8.89062 42.2344 11.3281
Q44.3906 13.4219 45.4844 16.3438
Q46.5781 19.2812 46.5781 23.1406
Q46.5781 26.9062 45.2812 29.4844
Q44 32.0781 41.7031 33.6406
Q39.1562 35.5 35.5156 36.25
Q31.8906 37.0156 27.3906 37.0156
Q23.0938 37.0156 19.1094 36.4219
Q15.1406 35.8438 12.25 35.25
L12.25 72.7031
L56 72.7031
L56 64.1562
L21.6875 64.1562
L21.6875 44.8281
Q23.7812 45.0156 25.9688 45.1094
Q28.1719 45.2188 29.7812 45.2188
Q35.6875 45.2188 40.125 44.2188
Q44.5781 43.2188 48.2969 40.6719
Q52.2031 37.9844 54.3438 33.7344
Q56.5 29.5 56.5 23.0938" id="Verdana-35"/>
      </defs>
      <g transform="translate(209.0990625 310.959889706)scale(0.12 -0.12)">
       <use xlink:href="#Verdana-35"/>
       <use x="63.57421875" xlink:href="#Verdana-30"/>
       <use x="127.1484375" xlink:href="#Verdana-30"/>
      </g>
     </g>
    </g>
    <g id="xtick_3">
     <g id="line2d_9">
      <path clip-path="url(#pf852ae8543)" d="
M331.2 297.842
L331.2 88.83" style="fill:none;stroke:#000000;stroke-dasharray:1.000000,3.000000;stroke-dashoffset:0.0;stroke-width:0.5;"/>
     </g>
     <g id="line2d_10">
      <g>
       <use style="stroke:#000000;stroke-width:0.5;" x="331.2" xlink:href="#m93b0483c22" y="297.841764706"/>
      </g>
     </g>
     <g id="line2d_11">
      <g>
       <use style="stroke:#000000;stroke-width:0.5;" x="331.2" xlink:href="#m741efc42ff" y="88.83"/>
      </g>
     </g>
     <g id="text_3">
      <!-- 1000 -->
      <defs>
       <path d="
M52.9375 0
L13.5781 0
L13.5781 7.42188
L28.7188 7.42188
L28.7188 56.1562
L13.5781 56.1562
L13.5781 62.7969
Q16.6562 62.7969 20.1719 63.2969
Q23.6875 63.8125 25.4844 64.7969
Q27.7344 66.0156 29.0312 67.8906
Q30.3281 69.7812 30.5156 72.9531
L38.0938 72.9531
L38.0938 7.42188
L52.9375 7.42188
z
" id="Verdana-31"/>
      </defs>
      <g transform="translate(317.1515625 310.959889706)scale(0.12 -0.12)">
       <use xlink:href="#Verdana-31"/>
       <use x="63.57421875" xlink:href="#Verdana-30"/>
       <use x="127.1484375" xlink:href="#Verdana-30"/>
       <use x="190.72265625" xlink:href="#Verdana-30"/>
      </g>
     </g>
    </g>
    <g id="xtick_4">
     <g id="line2d_12">
      <path clip-path="url(#pf852ae8543)" d="
M442.8 297.842
L442.8 88.83" style="fill:none;stroke:#000000;stroke-dasharray:1.000000,3.000000;stroke-dashoffset:0.0;stroke-width:0.5;"/>
     </g>
     <g id="line2d_13">
      <g>
       <use style="stroke:#000000;stroke-width:0.5;" x="442.8" xlink:href="#m93b0483c22" y="297.841764706"/>
      </g>
     </g>
     <g id="line2d_14">
      <g>
       <use style="stroke:#000000;stroke-width:0.5;" x="442.8" xlink:href="#m741efc42ff" y="88.83"/>
      </g>
     </g>
     <g id="text_4">
      <!-- 1500 -->
      <g transform="translate(428.7515625 310.959889706)scale(0.12 -0.12)">
       <use xlink:href="#Verdana-31"/>
       <use x="63.57421875" xlink:href="#Verdana-35"/>
       <use x="127.1484375" xlink:href="#Verdana-30"/>
       <use x="190.72265625" xlink:href="#Verdana-30"/>
      </g>
     </g>
    </g>
    <g id="xtick_5">
     <g id="line2d_15">
      <path clip-path="url(#pf852ae8543)" d="
M554.4 297.842
L554.4 88.83" style="fill:none;stroke:#000000;stroke-dasharray:1.000000,3.000000;stroke-dashoffset:0.0;stroke-width:0.5;"/>
     </g>
     <g id="line2d_16">
      <g>
       <use style="stroke:#000000;stroke-width:0.5;" x="554.4" xlink:href="#m93b0483c22" y="297.841764706"/>
      </g>
     </g>
     <g id="line2d_17">
      <g>
       <use style="stroke:#000000;stroke-width:0.5;" x="554.4" xlink:href="#m741efc42ff" y="88.83"/>
      </g>
     </g>
     <g id="text_5">
      <!-- 2000 -->
      <defs>
       <path d="
M57.0781 0
L7.85938 0
L7.85938 10.2031
Q12.9844 14.5938 18.1406 18.9844
Q23.2969 23.3906 27.7344 27.7344
Q37.1094 36.8125 40.5781 42.1562
Q44.0469 47.5156 44.0469 53.7188
Q44.0469 59.375 40.3125 62.5625
Q36.5781 65.7656 29.8906 65.7656
Q25.4375 65.7656 20.2656 64.2031
Q15.0938 62.6406 10.1562 59.4219
L9.67188 59.4219
L9.67188 69.6719
Q13.1406 71.3906 18.9219 72.7969
Q24.7031 74.2188 30.125 74.2188
Q41.3125 74.2188 47.6562 68.8125
Q54 63.4219 54 54.2031
Q54 50.0469 52.9531 46.4531
Q51.9062 42.875 49.8594 39.6562
Q47.9531 36.625 45.3906 33.6875
Q42.8281 30.7656 39.1562 27.2031
Q33.9375 22.0781 28.3594 17.2656
Q22.7969 12.4531 17.9688 8.34375
L57.0781 8.34375
z
" id="Verdana-32"/>
      </defs>
      <g transform="translate(540.0084375 310.959889706)scale(0.12 -0.12)">
       <use xlink:href="#Verdana-32"/>
       <use x="63.57421875" xlink:href="#Verdana-30"/>
       <use x="127.1484375" xlink:href="#Verdana-30"/>
       <use x="190.72265625" xlink:href="#Verdana-30"/>
      </g>
     </g>
    </g>
    <g id="xtick_6">
     <g id="line2d_18">
      <path clip-path="url(#pf852ae8543)" d="
M666 297.842
L666 88.83" style="fill:none;stroke:#000000;stroke-dasharray:1.000000,3.000000;stroke-dashoffset:0.0;stroke-width:0.5;"/>
     </g>
     <g id="line2d_19">
      <g>
       <use style="stroke:#000000;stroke-width:0.5;" x="666.0" xlink:href="#m93b0483c22" y="297.841764706"/>
      </g>
     </g>
     <g id="line2d_20">
      <g>
       <use style="stroke:#000000;stroke-width:0.5;" x="666.0" xlink:href="#m741efc42ff" y="88.83"/>
      </g>
     </g>
     <g id="text_6">
      <!-- 2500 -->
      <g transform="translate(651.6084375 310.959889706)scale(0.12 -0.12)">
       <use xlink:href="#Verdana-32"/>
       <use x="63.57421875" xlink:href="#Verdana-35"/>
       <use x="127.1484375" xlink:href="#Verdana-30"/>
       <use x="190.72265625" xlink:href="#Verdana-30"/>
      </g>
     </g>
    </g>
    <g id="xtick_7">
     <g id="line2d_21">
      <path clip-path="url(#pf852ae8543)" d="
M777.6 297.842
L777.6 88.83" style="fill:none;stroke:#000000;stroke-dasharray:1.000000,3.000000;stroke-dashoffset:0.0;stroke-width:0.5;"/>
     </g>
     <g id="line2d_22">
      <g>
       <use style="stroke:#000000;stroke-width:0.5;" x="777.6" xlink:href="#m93b0483c22" y="297.841764706"/>
      </g>
     </g>
     <g id="line2d_23">
      <g>
       <use style="stroke:#000000;stroke-width:0.5;" x="777.6" xlink:href="#m741efc42ff" y="88.83"/>
      </g>
     </g>
     <g id="text_7">
      <!-- 3000 -->
      <defs>
       <path d="
M50.6875 35.0156
Q53.0312 32.9062 54.5469 29.7344
Q56.0625 26.5625 56.0625 21.5312
Q56.0625 16.5469 54.25 12.3906
Q52.4375 8.25 49.1719 5.17188
Q45.5156 1.76562 40.5469 0.125
Q35.5938 -1.51562 29.6875 -1.51562
Q23.6406 -1.51562 17.7812 -0.0625
Q11.9219 1.375 8.15625 3.07812
L8.15625 13.2812
L8.89062 13.2812
Q13.0312 10.5469 18.6406 8.73438
Q24.2656 6.9375 29.5 6.9375
Q32.5625 6.9375 36.0312 7.95312
Q39.5 8.98438 41.6562 10.9844
Q43.8906 13.1406 44.9844 15.7188
Q46.0938 18.3125 46.0938 22.2656
Q46.0938 26.1719 44.8438 28.7344
Q43.6094 31.2969 41.4062 32.7656
Q39.2031 34.2812 36.0781 34.8438
Q32.9531 35.4062 29.3438 35.4062
L24.9531 35.4062
L24.9531 43.5
L28.375 43.5
Q35.7969 43.5 40.2031 46.5938
Q44.625 49.7031 44.625 55.6719
Q44.625 58.2969 43.5 60.2656
Q42.3906 62.25 40.375 63.5312
Q38.2812 64.7969 35.8906 65.2812
Q33.5 65.7656 30.4688 65.7656
Q25.8281 65.7656 20.5938 64.1094
Q15.375 62.4531 10.75 59.4219
L10.25 59.4219
L10.25 69.625
Q13.7188 71.3438 19.5 72.7812
Q25.2969 74.2188 30.7188 74.2188
Q36.0312 74.2188 40.0781 73.2344
Q44.1406 72.2656 47.4062 70.125
Q50.9219 67.7812 52.7344 64.4531
Q54.5469 61.1406 54.5469 56.6875
Q54.5469 50.6406 50.2656 46.125
Q46 41.6094 40.1875 40.4375
L40.1875 39.75
Q42.5312 39.3594 45.5469 38.1094
Q48.5781 36.8594 50.6875 35.0156" id="Verdana-33"/>
      </defs>
      <g transform="translate(763.22625 310.959889706)scale(0.12 -0.12)">
       <use xlink:href="#Verdana-33"/>
       <use x="63.57421875" xlink:href="#Verdana-30"/>
       <use x="127.1484375" xlink:href="#Verdana-30"/>
       <use x="190.72265625" xlink:href="#Verdana-30"/>
      </g>
     </g>
    </g>
   </g>
   <g id="matplotlib.axis_2">
    <g id="ytick_1">
     <g id="line2d_24">
      <path clip-path="url(#pf852ae8543)" d="
M108 297.842
L777.6 297.842" style="fill:none;stroke:#000000;stroke-dasharray:1.000000,3.000000;stroke-dashoffset:0.0;stroke-width:0.5;"/>
     </g>
     <g id="line2d_25">
      <defs>
       <path d="
M0 0
L4 0" id="m728421d6d4" style="stroke:#000000;stroke-width:0.5;"/>
      </defs>
      <g>
       <use style="stroke:#000000;stroke-width:0.5;" x="108.0" xlink:href="#m728421d6d4" y="297.841764706"/>
      </g>
     </g>
     <g id="line2d_26">
      <defs>
       <path d="
M0 0
L-4 0" id="mcb0005524f" style="stroke:#000000;stroke-width:0.5;"/>
      </defs>
      <g>
       <use style="stroke:#000000;stroke-width:0.5;" x="777.6" xlink:href="#mcb0005524f" y="297.841764706"/>
      </g>
     </g>
     <g id="text_8">
      <!-- −1000 -->
      <defs>
       <path d="
M71.0938 27.9375
L10.75 27.9375
L10.75 35.75
L71.0938 35.75
z
" id="Verdana-2212"/>
      </defs>
      <g transform="translate(65.7425 301.193327206)scale(0.12 -0.12)">
       <use xlink:href="#Verdana-2212"/>
       <use x="81.8359375" xlink:href="#Verdana-31"/>
       <use x="145.41015625" xlink:href="#Verdana-30"/>
       <use x="208.984375" xlink:href="#Verdana-30"/>
       <use x="272.55859375" xlink:href="#Verdana-30"/>
      </g>
     </g>
    </g>
    <g id="ytick_2">
     <g id="line2d_27">
      <path clip-path="url(#pf852ae8543)" d="
M108 263.006
L777.6 263.006" style="fill:none;stroke:#000000;stroke-dasharray:1.000000,3.000000;stroke-dashoffset:0.0;stroke-width:0.5;"/>
     </g>
     <g id="line2d_28">
      <g>
       <use style="stroke:#000000;stroke-width:0.5;" x="108.0" xlink:href="#m728421d6d4" y="263.006470588"/>
      </g>
     </g>
     <g id="line2d_29">
      <g>
       <use style="stroke:#000000;stroke-width:0.5;" x="777.6" xlink:href="#mcb0005524f" y="263.006470588"/>
      </g>
     </g>
     <g id="text_9">
      <!-- 0 -->
      <g transform="translate(97.964375 266.358033088)scale(0.12 -0.12)">
       <use xlink:href="#Verdana-30"/>
      </g>
     </g>
    </g>
    <g id="ytick_3">
     <g id="line2d_30">
      <path clip-path="url(#pf852ae8543)" d="
M108 228.171
L777.6 228.171" style="fill:none;stroke:#000000;stroke-dasharray:1.000000,3.000000;stroke-dashoffset:0.0;stroke-width:0.5;"/>
     </g>
     <g id="line2d_31">
      <g>
       <use style="stroke:#000000;stroke-width:0.5;" x="108.0" xlink:href="#m728421d6d4" y="228.171176471"/>
      </g>
     </g>
     <g id="line2d_32">
      <g>
       <use style="stroke:#000000;stroke-width:0.5;" x="777.6" xlink:href="#mcb0005524f" y="228.171176471"/>
      </g>
     </g>
     <g id="text_10">
      <!-- 1000 -->
      <g transform="translate(75.903125 231.522738971)scale(0.12 -0.12)">
       <use xlink:href="#Verdana-31"/>
       <use x="63.57421875" xlink:href="#Verdana-30"/>
       <use x="127.1484375" xlink:href="#Verdana-30"/>
       <use x="190.72265625" xlink:href="#Verdana-30"/>
      </g>
     </g>
    </g>
    <g id="ytick_4">
     <g id="line2d_33">
      <path clip-path="url(#pf852ae8543)" d="
M108 193.336
L777.6 193.336" style="fill:none;stroke:#000000;stroke-dasharray:1.000000,3.000000;stroke-dashoffset:0.0;stroke-width:0.5;"/>
     </g>
     <g id="line2d_34">
      <g>
       <use style="stroke:#000000;stroke-width:0.5;" x="108.0" xlink:href="#m728421d6d4" y="193.335882353"/>
      </g>
     </g>
     <g id="line2d_35">
      <g>
       <use style="stroke:#000000;stroke-width:0.5;" x="777.6" xlink:href="#mcb0005524f" y="193.335882353"/>
      </g>
     </g>
     <g id="text_11">
      <!-- 2000 -->
      <g transform="translate(75.216875 196.687444853)scale(0.12 -0.12)">
       <use xlink:href="#Verdana-32"/>
       <use x="63.57421875" xlink:href="#Verdana-30"/>
       <use x="127.1484375" xlink:href="#Verdana-30"/>
       <use x="190.72265625" xlink:href="#Verdana-30"/>
      </g>
     </g>
    </g>
    <g id="ytick_5">
     <g id="line2d_36">
      <path clip-path="url(#pf852ae8543)" d="
M108 158.501
L777.6 158.501" style="fill:none;stroke:#000000;stroke-dasharray:1.000000,3.000000;stroke-dashoffset:0.0;stroke-width:0.5;"/>
     </g>
     <g id="line2d_37">
      <g>
       <use style="stroke:#000000;stroke-width:0.5;" x="108.0" xlink:href="#m728421d6d4" y="158.500588235"/>
      </g>
     </g>
     <g id="line2d_38">
      <g>
       <use style="stroke:#000000;stroke-width:0.5;" x="777.6" xlink:href="#mcb0005524f" y="158.500588235"/>
      </g>
     </g>
     <g id="text_12">
      <!-- 3000 -->
      <g transform="translate(75.2525 161.852150735)scale(0.12 -0.12)">
       <use xlink:href="#Verdana-33"/>
       <use x="63.57421875" xlink:href="#Verdana-30"/>
       <use x="127.1484375" xlink:href="#Verdana-30"/>
       <use x="190.72265625" xlink:href="#Verdana-30"/>
      </g>
     </g>
    </g>
    <g id="ytick_6">
     <g id="line2d_39">
      <path clip-path="url(#pf852ae8543)" d="
M108 123.665
L777.6 123.665" style="fill:none;stroke:#000000;stroke-dasharray:1.000000,3.000000;stroke-dashoffset:0.0;stroke-width:0.5;"/>
     </g>
     <g id="line2d_40">
      <g>
       <use style="stroke:#000000;stroke-width:0.5;" x="108.0" xlink:href="#m728421d6d4" y="123.665294118"/>
      </g>
     </g>
     <g id="line2d_41">
      <g>
       <use style="stroke:#000000;stroke-width:0.5;" x="777.6" xlink:href="#mcb0005524f" y="123.665294118"/>
      </g>
     </g>
     <g id="text_13">
      <!-- 4000 -->
      <defs>
       <path d="
M58.7344 20.4531
L47.9531 20.4531
L47.9531 0
L38.5781 0
L38.5781 20.4531
L3.76562 20.4531
L3.76562 31.6875
L38.9688 72.7031
L47.9531 72.7031
L47.9531 28.2656
L58.7344 28.2656
z

M38.5781 28.2656
L38.5781 61.0781
L10.4062 28.2656
z
" id="Verdana-34"/>
      </defs>
      <g transform="translate(74.725625 127.016856618)scale(0.12 -0.12)">
       <use xlink:href="#Verdana-34"/>
       <use x="63.57421875" xlink:href="#Verdana-30"/>
       <use x="127.1484375" xlink:href="#Verdana-30"/>
       <use x="190.72265625" xlink:href="#Verdana-30"/>
      </g>
     </g>
    </g>
    <g id="ytick_7">
     <g id="line2d_42">
      <path clip-path="url(#pf852ae8543)" d="
M108 88.83
L777.6 88.83" style="fill:none;stroke:#000000;stroke-dasharray:1.000000,3.000000;stroke-dashoffset:0.0;stroke-width:0.5;"/>
     </g>
     <g id="line2d_43">
      <g>
       <use style="stroke:#000000;stroke-width:0.5;" x="108.0" xlink:href="#m728421d6d4" y="88.83"/>
      </g>
     </g>
     <g id="line2d_44">
      <g>
       <use style="stroke:#000000;stroke-width:0.5;" x="777.6" xlink:href="#mcb0005524f" y="88.83"/>
      </g>
     </g>
     <g id="text_14">
      <!-- 5000 -->
      <g transform="translate(75.36875 92.1815625)scale(0.12 -0.12)">
       <use xlink:href="#Verdana-35"/>
       <use x="63.57421875" xlink:href="#Verdana-30"/>
       <use x="127.1484375" xlink:href="#Verdana-30"/>
       <use x="190.72265625" xlink:href="#Verdana-30"/>
      </g>
     </g>
    </g>
    <g id="text_15">
     <!-- v (pulsos/Ts) -->
     <defs>
      <path d="
M54.25 0
L45.0625 0
L45.0625 6.0625
Q40.4375 2.39062 36.1875 0.4375
Q31.9375 -1.51562 26.8125 -1.51562
Q18.2188 -1.51562 13.4219 3.73438
Q8.64062 8.98438 8.64062 19.1406
L8.64062 54.5469
L17.8281 54.5469
L17.8281 23.4844
Q17.8281 19.3438 18.2188 16.375
Q18.6094 13.4219 19.875 11.3281
Q21.1875 9.1875 23.2812 8.20312
Q25.3906 7.23438 29.3906 7.23438
Q32.9531 7.23438 37.1719 9.07812
Q41.4062 10.9375 45.0625 13.8125
L45.0625 54.5469
L54.25 54.5469
z
" id="Verdana-75"/>
      <path d="
M38.2344 -20.125
L27.0469 -20.125
Q18.4062 -10.2031 13.625 1.51562
Q8.84375 13.2344 8.84375 27.9375
Q8.84375 42.625 13.625 54.3438
Q18.4062 66.0625 27.0469 75.9844
L38.2344 75.9844
L38.2344 75.4844
Q34.2812 71.9219 30.6875 67.25
Q27.0938 62.5938 24.0312 56.3906
Q21.0938 50.3906 19.2656 43.1562
Q17.4375 35.9375 17.4375 27.9375
Q17.4375 19.5781 19.2188 12.6406
Q21 5.71875 24.0312 -0.53125
Q26.9531 -6.54688 30.7031 -11.4062
Q34.4688 -16.2656 38.2344 -19.625
z
" id="Verdana-28"/>
      <path d="
M56.2031 54.5469
L34.125 0
L24.9062 0
L2.98438 54.5469
L12.9375 54.5469
L29.8281 11.1406
L46.5781 54.5469
z
" id="Verdana-76"/>
      <path d="
M57.0312 27.9375
Q57.0312 21.2969 55.125 15.7969
Q53.2188 10.2969 49.75 6.5
Q46.5312 2.875 42.1562 0.890625
Q37.7969 -1.07812 32.9062 -1.07812
Q28.6562 -1.07812 25.2188 -0.140625
Q21.7812 0.78125 18.2188 2.73438
L18.2188 -20.125
L9.03125 -20.125
L9.03125 54.5469
L18.2188 54.5469
L18.2188 48.8281
Q21.875 51.9062 26.4375 53.9844
Q31 56.0625 36.1875 56.0625
Q46.0469 56.0625 51.5312 48.6094
Q57.0312 41.1562 57.0312 27.9375
M47.5625 27.6875
Q47.5625 37.5469 44.1875 42.4219
Q40.8281 47.3125 33.8438 47.3125
Q29.8906 47.3125 25.875 45.5938
Q21.875 43.8906 18.2188 41.1094
L18.2188 10.2031
Q22.125 8.45312 24.9219 7.8125
Q27.7344 7.17188 31.2969 7.17188
Q38.9688 7.17188 43.2656 12.3438
Q47.5625 17.5312 47.5625 27.6875" id="Verdana-70"/>
      <path d="
M48 15.7188
Q48 8.25 41.8125 3.46875
Q35.6406 -1.3125 24.9531 -1.3125
Q18.8906 -1.3125 13.8438 0.125
Q8.79688 1.5625 5.375 3.26562
L5.375 13.5781
L5.85938 13.5781
Q10.2031 10.2969 15.5156 8.375
Q20.8438 6.45312 25.7344 6.45312
Q31.7812 6.45312 35.2031 8.40625
Q38.625 10.3594 38.625 14.5469
Q38.625 17.7812 36.7656 19.4375
Q34.9062 21.0938 29.6406 22.2656
Q27.6875 22.7031 24.5312 23.2812
Q21.3906 23.875 18.7969 24.5625
Q11.625 26.4688 8.60938 30.1562
Q5.60938 33.8438 5.60938 39.2031
Q5.60938 42.5781 7 45.5469
Q8.40625 48.5312 11.2344 50.875
Q13.9688 53.1719 18.1875 54.5156
Q22.4062 55.8594 27.6406 55.8594
Q32.5156 55.8594 37.5156 54.6562
Q42.5312 53.4688 45.8438 51.7656
L45.8438 41.9375
L45.3594 41.9375
Q41.8438 44.5312 36.8125 46.3125
Q31.7812 48.0938 26.9531 48.0938
Q21.9219 48.0938 18.4531 46.1562
Q14.9844 44.2344 14.9844 40.4375
Q14.9844 37.0625 17.0938 35.3594
Q19.1406 33.6406 23.7344 32.5625
Q26.2656 31.9844 29.4062 31.3906
Q32.5625 30.8125 34.6719 30.3281
Q41.0625 28.8594 44.5312 25.2969
Q48 21.6875 48 15.7188" id="Verdana-73"/>
      <path id="Verdana-20"/>
      <path d="
M55.5156 27.25
Q55.5156 13.9219 48.6719 6.20312
Q41.8438 -1.51562 30.375 -1.51562
Q18.7969 -1.51562 11.9844 6.20312
Q5.17188 13.9219 5.17188 27.25
Q5.17188 40.5781 11.9844 48.3125
Q18.7969 56.0625 30.375 56.0625
Q41.8438 56.0625 48.6719 48.3125
Q55.5156 40.5781 55.5156 27.25
M46.0469 27.25
Q46.0469 37.8438 41.8906 42.9844
Q37.75 48.1406 30.375 48.1406
Q22.9062 48.1406 18.7812 42.9844
Q14.6562 37.8438 14.6562 27.25
Q14.6562 17 18.7969 11.6875
Q22.9531 6.39062 30.375 6.39062
Q37.7031 6.39062 41.875 11.6406
Q46.0469 16.8906 46.0469 27.25" id="Verdana-6f"/>
      <path d="
M36.5781 27.9375
Q36.5781 13.2344 31.7812 1.51562
Q27 -10.2031 18.3594 -20.125
L7.17188 -20.125
L7.17188 -19.625
Q10.9375 -16.2656 14.7188 -11.4062
Q18.5 -6.54688 21.3906 -0.53125
Q24.4219 5.71875 26.2031 12.6406
Q27.9844 19.5781 27.9844 27.9375
Q27.9844 35.9375 26.1719 43.1562
Q24.3594 50.3906 21.3906 56.3906
Q18.3125 62.5938 14.7188 67.25
Q11.1406 71.9219 7.17188 75.4844
L7.17188 75.9844
L18.3594 75.9844
Q27 66.0625 31.7812 54.3438
Q36.5781 42.625 36.5781 27.9375" id="Verdana-29"/>
      <path d="
M18.3125 0
L9.125 0
L9.125 75.9844
L18.3125 75.9844
z
" id="Verdana-6c"/>
      <path d="
M61.625 64.1094
L35.6406 64.1094
L35.6406 0
L25.9844 0
L25.9844 64.1094
L0 64.1094
L0 72.7031
L61.625 72.7031
z
" id="Verdana-54"/>
      <path d="
M42 75.9844
L6.98438 -14.8438
L-1.46875 -14.8438
L33.4062 75.9844
z
" id="Verdana-2f"/>
     </defs>
     <g transform="translate(58.3275 232.012444853)rotate(-90.0)scale(0.12 -0.12)">
      <use xlink:href="#Verdana-76"/>
      <use x="59.1796875" xlink:href="#Verdana-20"/>
      <use x="94.3359375" xlink:href="#Verdana-28"/>
      <use x="139.74609375" xlink:href="#Verdana-70"/>
      <use x="202.05078125" xlink:href="#Verdana-75"/>
      <use x="265.33203125" xlink:href="#Verdana-6c"/>
      <use x="292.7734375" xlink:href="#Verdana-73"/>
      <use x="344.873046875" xlink:href="#Verdana-6f"/>
      <use x="405.56640625" xlink:href="#Verdana-73"/>
      <use x="457.666015625" xlink:href="#Verdana-2f"/>
      <use x="503.076171875" xlink:href="#Verdana-54"/>
      <use x="555.947265625" xlink:href="#Verdana-73"/>
      <use x="608.046875" xlink:href="#Verdana-29"/>
     </g>
    </g>
   </g>
   <g id="patch_3">
    <path d="
M108 88.83
L777.6 88.83" style="fill:none;stroke:#000000;"/>
   </g>
   <g id="patch_4">
    <path d="
M777.6 297.842
L777.6 88.83" style="fill:none;stroke:#000000;"/>
   </g>
   <g id="patch_5">
    <path d="
M108 297.842
L777.6 297.842" style="fill:none;stroke:#000000;"/>
   </g>
   <g id="patch_6">
    <path d="
M108 297.842
L108 88.83" style="fill:none;stroke:#000000;"/>
   </g>
   <g id="text_16">
    <!-- distance kp=20, ki=0, kd=0 -->
    <defs>
     <path d="
M37.3594 0.484375
Q34.7656 -0.203125 31.7031 -0.640625
Q28.6562 -1.07812 26.2656 -1.07812
Q17.9219 -1.07812 13.5781 3.40625
Q9.23438 7.90625 9.23438 17.8281
L9.23438 46.8281
L3.03125 46.8281
L3.03125 54.5469
L9.23438 54.5469
L9.23438 70.2188
L18.4062 70.2188
L18.4062 54.5469
L37.3594 54.5469
L37.3594 46.8281
L18.4062 46.8281
L18.4062 21.9688
Q18.4062 17.6719 18.5938 15.25
Q18.7969 12.8438 19.9688 10.75
Q21.0469 8.79688 22.9219 7.89062
Q24.8125 6.98438 28.6562 6.98438
Q30.9062 6.98438 33.3438 7.64062
Q35.7969 8.29688 36.8594 8.73438
L37.3594 8.73438
z
" id="Verdana-74"/>
     <path d="
M53.2656 0
L44.0938 0
L44.0938 5.71875
Q40.1406 2.29688 35.8438 0.390625
Q31.5469 -1.51562 26.5156 -1.51562
Q16.75 -1.51562 11.0156 6
Q5.28125 13.5312 5.28125 26.8594
Q5.28125 33.7969 7.25 39.2031
Q9.23438 44.625 12.5938 48.4375
Q15.9219 52.1562 20.3281 54.1094
Q24.75 56.0625 29.5 56.0625
Q33.7969 56.0625 37.1094 55.1562
Q40.4375 54.25 44.0938 52.3438
L44.0938 75.9844
L53.2656 75.9844
z

M44.0938 13.4219
L44.0938 44.7344
Q40.375 46.3906 37.4375 47.0156
Q34.5156 47.6562 31.0625 47.6562
Q23.3438 47.6562 19.0469 42.2812
Q14.75 36.9219 14.75 27.0469
Q14.75 17.3281 18.0625 12.2812
Q21.3906 7.23438 28.7188 7.23438
Q32.625 7.23438 36.625 8.95312
Q40.625 10.6875 44.0938 13.4219" id="Verdana-64"/>
     <path d="
M54.6875 26.3125
L14.5 26.3125
Q14.5 21.2969 16.0156 17.5469
Q17.5312 13.8125 20.1719 11.4219
Q22.7031 9.07812 26.1875 7.90625
Q29.6875 6.73438 33.8906 6.73438
Q39.4531 6.73438 45.0938 8.95312
Q50.7344 11.1875 53.125 13.3281
L53.6094 13.3281
L53.6094 3.32812
Q48.9688 1.375 44.1406 0.046875
Q39.3125 -1.26562 33.9844 -1.26562
Q20.4062 -1.26562 12.7812 6.07812
Q5.17188 13.4219 5.17188 26.9531
Q5.17188 40.3281 12.4688 48.1875
Q19.7812 56.0625 31.6875 56.0625
Q42.7188 56.0625 48.7031 49.6094
Q54.6875 43.1719 54.6875 31.2969
z

M45.75 33.3438
Q45.7031 40.5781 42.1094 44.5312
Q38.5312 48.4844 31.2031 48.4844
Q23.8281 48.4844 19.4531 44.1406
Q15.0938 39.7969 14.5 33.3438
z
" id="Verdana-65"/>
     <path d="
M49.3594 3.42188
Q44.7812 1.21875 40.6562 0
Q36.5312 -1.21875 31.8906 -1.21875
Q25.9844 -1.21875 21.0469 0.515625
Q16.1094 2.25 12.5938 5.76562
Q9.03125 9.28125 7.07812 14.6406
Q5.125 20.0156 5.125 27.2031
Q5.125 40.5781 12.4688 48.1875
Q19.8281 55.8125 31.8906 55.8125
Q36.5781 55.8125 41.0938 54.4844
Q45.6094 53.1719 49.3594 51.2656
L49.3594 41.0625
L48.875 41.0625
Q44.6719 44.3438 40.2031 46.0938
Q35.75 47.8594 31.5 47.8594
Q23.6875 47.8594 19.1719 42.6094
Q14.6562 37.3594 14.6562 27.2031
Q14.6562 17.3281 19.0625 12.0312
Q23.4844 6.73438 31.5 6.73438
Q34.2812 6.73438 37.1562 7.46875
Q40.0469 8.20312 42.3281 9.375
Q44.3438 10.4062 46.0938 11.5469
Q47.8594 12.7031 48.875 13.5312
L49.3594 13.5312
z
" id="Verdana-63"/>
     <path d="
M51.4219 0
L42.2812 0
L42.2812 5.8125
Q41.0625 4.98438 38.9844 3.48438
Q36.9219 2 34.9688 1.125
Q32.6719 0 29.6875 -0.75
Q26.7031 -1.51562 22.7031 -1.51562
Q15.3281 -1.51562 10.2031 3.35938
Q5.07812 8.25 5.07812 15.8281
Q5.07812 22.0156 7.73438 25.8438
Q10.4062 29.6875 15.3281 31.8906
Q20.3125 34.0781 27.2969 34.8594
Q34.2812 35.6406 42.2812 36.0312
L42.2812 37.4531
Q42.2812 40.5781 41.1875 42.625
Q40.0938 44.6719 38.0312 45.8438
Q36.0781 46.9688 33.3438 47.3594
Q30.6094 47.75 27.6406 47.75
Q24.0312 47.75 19.5781 46.7969
Q15.1406 45.8438 10.4062 44.0469
L9.90625 44.0469
L9.90625 53.375
Q12.5938 54.1094 17.6719 54.9844
Q22.75 55.8594 27.6875 55.8594
Q33.4531 55.8594 37.7188 54.9062
Q42 53.9531 45.125 51.6562
Q48.1875 49.4219 49.7969 45.8438
Q51.4219 42.2812 51.4219 37.0156
z

M42.2812 13.4219
L42.2812 28.6094
Q38.0938 28.375 32.3906 27.875
Q26.7031 27.3906 23.3906 26.4688
Q19.4375 25.3438 16.9844 22.9688
Q14.5469 20.6094 14.5469 16.4531
Q14.5469 11.7656 17.375 9.39062
Q20.2188 7.03125 26.0312 7.03125
Q30.8594 7.03125 34.8594 8.90625
Q38.875 10.7969 42.2812 13.4219" id="Verdana-61"/>
     <path d="
M18.8906 63.6719
L8.54688 63.6719
L8.54688 73.1875
L18.8906 73.1875
z

M18.3125 0
L9.125 0
L9.125 54.5469
L18.3125 54.5469
z
" id="Verdana-69"/>
     <path d="
M54.6406 0
L45.4531 0
L45.4531 31.0625
Q45.4531 34.8125 45.0156 38.1094
Q44.5781 41.4062 43.4062 43.2656
Q42.1875 45.3125 39.8906 46.3125
Q37.5938 47.3125 33.9375 47.3125
Q30.1719 47.3125 26.0625 45.4531
Q21.9688 43.6094 18.2188 40.7188
L18.2188 0
L9.03125 0
L9.03125 54.5469
L18.2188 54.5469
L18.2188 48.4844
Q22.5156 52.0469 27.0938 54.0469
Q31.6875 56.0625 36.5312 56.0625
Q45.3594 56.0625 50 50.7344
Q54.6406 45.4062 54.6406 35.4062
z
" id="Verdana-6e"/>
     <path d="
M58.5469 0
L46.4375 0
L24.5625 23.875
L18.6094 18.2188
L18.6094 0
L9.42188 0
L9.42188 75.9844
L18.6094 75.9844
L18.6094 27.25
L45.125 54.5469
L56.6875 54.5469
L31.3438 29.3438
z
" id="Verdana-6b"/>
     <path d="
M28.0781 13.9219
L14.3125 -18.0625
L7.17188 -18.0625
L15.6719 13.9219
z
" id="Verdana-2c"/>
     <path d="
M69.875 38.1875
L11.9688 38.1875
L11.9688 46
L69.875 46
z

M69.875 17.6719
L11.9688 17.6719
L11.9688 25.4844
L69.875 25.4844
z
" id="Verdana-3d"/>
    </defs>
    <g transform="translate(340.750125 83.83)scale(0.144 -0.144)">
     <use xlink:href="#Verdana-64"/>
     <use x="62.3046875" xlink:href="#Verdana-69"/>
     <use x="89.74609375" xlink:href="#Verdana-73"/>
     <use x="141.845703125" xlink:href="#Verdana-74"/>
     <use x="181.25" xlink:href="#Verdana-61"/>
     <use x="241.30859375" xlink:href="#Verdana-6e"/>
     <use x="304.58984375" xlink:href="#Verdana-63"/>
     <use x="356.689453125" xlink:href="#Verdana-65"/>
     <use x="416.259765625" xlink:href="#Verdana-20"/>
     <use x="451.416015625" xlink:href="#Verdana-6b"/>
     <use x="510.595703125" xlink:href="#Verdana-70"/>
     <use x="572.900390625" xlink:href="#Verdana-3d"/>
     <use x="654.736328125" xlink:href="#Verdana-32"/>
     <use x="718.310546875" xlink:href="#Verdana-30"/>
     <use x="781.884765625" xlink:href="#Verdana-2c"/>
     <use x="818.26171875" xlink:href="#Verdana-20"/>
     <use x="853.41796875" xlink:href="#Verdana-6b"/>
     <use x="912.59765625" xlink:href="#Verdana-69"/>
     <use x="940.0390625" xlink:href="#Verdana-3d"/>
     <use x="1021.875" xlink:href="#Verdana-30"/>
     <use x="1085.44921875" xlink:href="#Verdana-2c"/>
     <use x="1121.82617188" xlink:href="#Verdana-20"/>
     <use x="1156.98242188" xlink:href="#Verdana-6b"/>
     <use x="1216.16210938" xlink:href="#Verdana-64"/>
     <use x="1278.46679688" xlink:href="#Verdana-3d"/>
     <use x="1360.30273438" xlink:href="#Verdana-30"/>
    </g>
   </g>
   <g id="legend_1">
    <g id="patch_7">
     <path d="
M654.291 142.506
L770.4 142.506
L770.4 96.03
L654.291 96.03
L654.291 142.506
z
" style="fill:#ffffff;stroke:#000000;"/>
    </g>
    <g id="line2d_45">
     <path d="
M664.371 107.692
L684.531 107.692" style="fill:none;stroke:#0000ff;stroke-linecap:square;"/>
    </g>
    <g id="line2d_46"/>
    <g id="text_17">
     <!-- consigna -->
     <defs>
      <path d="
M53.2656 6.20312
Q53.2656 -7.67188 46.9688 -14.1562
Q40.6719 -20.6562 27.5938 -20.6562
Q23.25 -20.6562 19.1094 -20.0469
Q14.9844 -19.4375 10.9844 -18.3125
L10.9844 -8.9375
L11.4688 -8.9375
Q13.7188 -9.8125 18.5938 -11.1094
Q23.4844 -12.4062 28.375 -12.4062
Q33.0625 -12.4062 36.125 -11.2812
Q39.2031 -10.1562 40.9219 -8.15625
Q42.625 -6.25 43.3594 -3.5625
Q44.0938 -0.875 44.0938 2.4375
L44.0938 7.42188
Q39.9375 4.10938 36.1562 2.46875
Q32.375 0.828125 26.5156 0.828125
Q16.75 0.828125 11.0156 7.875
Q5.28125 14.9375 5.28125 27.7812
Q5.28125 34.8125 7.25 39.9062
Q9.23438 45.0156 12.6406 48.7344
Q15.8281 52.2031 20.3594 54.125
Q24.9062 56.0625 29.3906 56.0625
Q34.125 56.0625 37.3281 55.1094
Q40.5312 54.1562 44.0938 52.2031
L44.6719 54.5469
L53.2656 54.5469
z

M44.0938 14.9844
L44.0938 44.7344
Q40.4375 46.3906 37.2812 47.0938
Q34.125 47.7969 31 47.7969
Q23.4375 47.7969 19.0938 42.7188
Q14.75 37.6406 14.75 27.9844
Q14.75 18.7969 17.9688 14.0625
Q21.1875 9.32812 28.6562 9.32812
Q32.6719 9.32812 36.6875 10.8594
Q40.7188 12.4062 44.0938 14.9844" id="Verdana-67"/>
     </defs>
     <g transform="translate(700.371 112.73175)scale(0.144 -0.144)">
      <use xlink:href="#Verdana-63"/>
      <use x="52.099609375" xlink:href="#Verdana-6f"/>
      <use x="112.79296875" xlink:href="#Verdana-6e"/>
      <use x="176.07421875" xlink:href="#Verdana-73"/>
      <use x="228.173828125" xlink:href="#Verdana-69"/>
      <use x="255.615234375" xlink:href="#Verdana-67"/>
      <use x="317.919921875" xlink:href="#Verdana-6e"/>
      <use x="381.201171875" xlink:href="#Verdana-61"/>
     </g>
    </g>
    <g id="line2d_47">
     <path d="
M664.371 128.808
L684.531 128.808" style="fill:none;stroke:#008000;stroke-linecap:square;"/>
    </g>
    <g id="line2d_48"/>
    <g id="text_18">
     <!-- feedback -->
     <defs>
      <path d="
M38.375 67.0938
L37.8906 67.0938
Q36.375 67.5312 33.9375 67.9844
Q31.5 68.4531 29.6406 68.4531
Q23.7344 68.4531 21.0625 65.8438
Q18.4062 63.2344 18.4062 56.3906
L18.4062 54.5469
L34.9688 54.5469
L34.9688 46.8281
L18.7031 46.8281
L18.7031 0
L9.51562 0
L9.51562 46.8281
L3.32812 46.8281
L3.32812 54.5469
L9.51562 54.5469
L9.51562 56.3438
Q9.51562 66.0625 14.3438 71.2656
Q19.1875 76.4688 28.3281 76.4688
Q31.3906 76.4688 33.8594 76.1719
Q36.3281 75.875 38.375 75.4844
z
" id="Verdana-66"/>
      <path d="
M57.0312 27.6875
Q57.0312 20.8438 55.0938 15.375
Q53.1719 9.90625 49.9062 6.20312
Q46.4375 2.34375 42.2812 0.40625
Q38.1406 -1.51562 33.1562 -1.51562
Q28.5156 -1.51562 25.0469 -0.40625
Q21.5781 0.6875 18.2188 2.54688
L17.625 0
L9.03125 0
L9.03125 75.9844
L18.2188 75.9844
L18.2188 48.8281
Q22.0781 52 26.4219 54.0312
Q30.7656 56.0625 36.1875 56.0625
Q45.8438 56.0625 51.4375 48.6406
Q57.0312 41.2188 57.0312 27.6875
M47.5625 27.4375
Q47.5625 37.2031 44.3281 42.25
Q41.1094 47.3125 33.9375 47.3125
Q29.9375 47.3125 25.8281 45.5781
Q21.7344 43.8438 18.2188 41.1094
L18.2188 9.85938
Q22.125 8.10938 24.9219 7.42188
Q27.7344 6.73438 31.2969 6.73438
Q38.9219 6.73438 43.2344 11.7344
Q47.5625 16.75 47.5625 27.4375" id="Verdana-62"/>
     </defs>
     <g transform="translate(700.371 133.848)scale(0.144 -0.144)">
      <use xlink:href="#Verdana-66"/>
      <use x="35.15625" xlink:href="#Verdana-65"/>
      <use x="94.7265625" xlink:href="#Verdana-65"/>
      <use x="154.296875" xlink:href="#Verdana-64"/>
      <use x="216.6015625" xlink:href="#Verdana-62"/>
      <use x="278.90625" xlink:href="#Verdana-61"/>
      <use x="338.96484375" xlink:href="#Verdana-63"/>
      <use x="391.064453125" xlink:href="#Verdana-6b"/>
     </g>
    </g>
   </g>
  </g>
  <g id="axes_2">
   <g id="patch_8">
    <path d="
M108 548.656
L777.6 548.656
L777.6 339.644
L108 339.644
z
" style="fill:#ffffff;"/>
   </g>
   <g id="line2d_49">
    <path clip-path="url(#p69ef34d040)" d="
M108 374.479
L110.232 374.479
L112.464 544.824
L114.696 374.479
L777.6 374.479
L777.6 374.479" style="fill:none;stroke:#0000ff;stroke-linecap:square;"/>
   </g>
   <g id="line2d_50">
    <path clip-path="url(#p69ef34d040)" d="
M108 374.479
L110.232 374.479
L112.464 374.305
L114.696 372.128
L116.928 371.954
L121.392 372.215
L123.624 372.302
L125.856 372.651
L128.088 372.476
L130.32 372.563
L132.552 372.912
L137.016 372.999
L139.248 373.173
L141.48 373.173
L143.712 373.434
L145.944 373.434
L148.176 373.696
L150.408 373.696
L152.64 373.87
L154.872 373.87
L157.104 374.131
L159.336 374.131
L163.8 374.479
L168.264 374.479
L170.496 374.654
L172.728 374.654
L174.96 374.915
L179.424 374.915
L181.656 375.524
L183.888 375.786
L186.12 375.612
L188.352 375.786
L190.584 375.002
L192.816 375.437
L195.048 375.437
L197.28 375.873
L201.744 375.96
L206.208 375.873
L208.44 376.047
L210.672 375.873
L212.904 376.047
L217.368 375.786
L219.6 375.96
L221.832 375.699
L226.296 375.786
L228.528 375.699
L230.76 375.35
L232.992 375.612
L235.224 375.524
L237.456 375.612
L239.688 375.35
L241.92 375.524
L244.152 375.35
L248.616 375.35
L250.848 375.176
L255.312 375.176
L257.544 374.828
L259.776 375.176
L262.008 374.828
L264.24 375.002
L266.472 374.828
L270.936 374.828
L273.168 374.567
L275.4 374.741
L277.632 374.479
L279.864 374.479
L284.328 373.87
L286.56 374.044
L288.792 374.479
L291.024 374.479
L293.256 374.305
L295.488 374.392
L297.72 373.783
L304.416 373.609
L306.648 374.044
L308.88 374.131
L311.112 374.392
L313.344 373.957
L317.808 373.521
L320.04 373.696
L324.504 373.783
L326.736 373.521
L328.968 374.218
L331.2 374.131
L333.432 373.783
L335.664 373.783
L337.896 373.957
L340.128 373.957
L342.36 373.783
L346.824 373.957
L349.056 373.87
L351.288 374.218
L353.52 374.218
L355.752 374.044
L357.984 374.131
L360.216 373.957
L362.448 373.957
L364.68 374.218
L366.912 374.044
L369.144 374.654
L371.376 374.828
L373.608 374.479
L375.84 374.305
L384.768 374.392
L387 375.002
L389.232 374.828
L391.464 375.002
L393.696 374.392
L395.928 374.305
L398.16 374.567
L400.392 374.218
L402.624 375.002
L407.088 375.002
L416.016 374.392
L418.248 374.479
L420.48 375.176
L422.712 375.002
L427.176 374.915
L429.408 374.828
L431.64 374.392
L436.104 374.479
L438.336 375.002
L440.568 375.089
L442.8 374.828
L447.264 374.741
L449.496 374.392
L453.96 374.392
L458.424 374.828
L465.12 374.915
L467.352 374.392
L471.816 374.131
L474.048 374.392
L476.28 374.828
L482.976 374.828
L485.208 374.218
L491.904 374.218
L494.136 374.741
L496.368 374.828
L498.6 374.741
L505.296 373.957
L511.992 374.741
L514.224 374.741
L520.92 374.044
L523.152 374.044
L529.848 374.741
L532.08 374.741
L534.312 374.218
L536.544 374.044
L538.776 374.044
L541.008 374.218
L543.24 374.567
L549.936 374.654
L552.168 374.131
L558.864 374.218
L561.096 374.741
L563.328 374.741
L565.56 374.567
L567.792 374.654
L570.024 374.044
L572.256 374.392
L574.488 374.131
L576.72 374.305
L578.952 374.654
L581.184 374.741
L583.416 374.654
L587.88 374.218
L594.576 374.305
L596.808 374.915
L607.968 374.131
L610.2 374.305
L612.432 374.741
L614.664 374.654
L616.896 374.915
L619.128 374.741
L621.36 374.218
L623.592 374.305
L625.824 374.218
L628.056 374.305
L630.288 374.654
L632.52 374.828
L636.984 374.741
L639.216 374.305
L641.448 374.392
L643.68 374.218
L645.912 374.218
L648.144 374.741
L650.376 374.828
L652.608 374.654
L654.84 374.828
L657.072 374.654
L659.304 374.218
L666 374.305
L668.232 374.828
L672.696 374.828
L674.928 374.654
L677.16 373.957
L679.392 374.392
L681.624 374.218
L683.856 374.392
L686.088 374.828
L688.32 374.567
L690.552 374.828
L692.784 374.828
L695.016 374.305
L697.248 374.044
L699.48 374.392
L701.712 374.479
L703.944 374.741
L706.176 374.567
L708.408 374.828
L710.64 374.654
L712.872 374.218
L715.104 373.957
L717.336 374.392
L719.568 374.654
L721.8 374.567
L726.264 374.828
L728.496 374.305
L730.728 374.131
L732.96 374.305
L735.192 374.305
L737.424 374.741
L739.656 374.567
L741.888 374.828
L744.12 374.654
L746.352 374.131
L748.584 374.044
L750.816 374.305
L753.048 374.044
L755.28 374.828
L757.512 374.654
L759.744 374.654
L761.976 374.828
L764.208 374.305
L766.44 374.131
L768.672 374.131
L770.904 374.305
L773.136 374.654
L777.6 374.741
L777.6 374.741" style="fill:none;stroke:#008000;stroke-linecap:square;"/>
   </g>
   <g id="matplotlib.axis_3">
    <g id="xtick_8">
     <g id="line2d_51">
      <path clip-path="url(#p69ef34d040)" d="
M108 548.656
L108 339.644" style="fill:none;stroke:#000000;stroke-dasharray:1.000000,3.000000;stroke-dashoffset:0.0;stroke-width:0.5;"/>
     </g>
     <g id="line2d_52">
      <g>
       <use style="stroke:#000000;stroke-width:0.5;" x="108.0" xlink:href="#m93b0483c22" y="548.655882353"/>
      </g>
     </g>
     <g id="line2d_53">
      <g>
       <use style="stroke:#000000;stroke-width:0.5;" x="108.0" xlink:href="#m741efc42ff" y="339.644117647"/>
      </g>
     </g>
     <g id="text_19">
      <!-- 0 -->
      <g transform="translate(104.9821875 561.774007353)scale(0.12 -0.12)">
       <use xlink:href="#Verdana-30"/>
      </g>
     </g>
    </g>
    <g id="xtick_9">
     <g id="line2d_54">
      <path clip-path="url(#p69ef34d040)" d="
M219.6 548.656
L219.6 339.644" style="fill:none;stroke:#000000;stroke-dasharray:1.000000,3.000000;stroke-dashoffset:0.0;stroke-width:0.5;"/>
     </g>
     <g id="line2d_55">
      <g>
       <use style="stroke:#000000;stroke-width:0.5;" x="219.6" xlink:href="#m93b0483c22" y="548.655882353"/>
      </g>
     </g>
     <g id="line2d_56">
      <g>
       <use style="stroke:#000000;stroke-width:0.5;" x="219.6" xlink:href="#m741efc42ff" y="339.644117647"/>
      </g>
     </g>
     <g id="text_20">
      <!-- 500 -->
      <g transform="translate(209.0990625 561.774007353)scale(0.12 -0.12)">
       <use xlink:href="#Verdana-35"/>
       <use x="63.57421875" xlink:href="#Verdana-30"/>
       <use x="127.1484375" xlink:href="#Verdana-30"/>
      </g>
     </g>
    </g>
    <g id="xtick_10">
     <g id="line2d_57">
      <path clip-path="url(#p69ef34d040)" d="
M331.2 548.656
L331.2 339.644" style="fill:none;stroke:#000000;stroke-dasharray:1.000000,3.000000;stroke-dashoffset:0.0;stroke-width:0.5;"/>
     </g>
     <g id="line2d_58">
      <g>
       <use style="stroke:#000000;stroke-width:0.5;" x="331.2" xlink:href="#m93b0483c22" y="548.655882353"/>
      </g>
     </g>
     <g id="line2d_59">
      <g>
       <use style="stroke:#000000;stroke-width:0.5;" x="331.2" xlink:href="#m741efc42ff" y="339.644117647"/>
      </g>
     </g>
     <g id="text_21">
      <!-- 1000 -->
      <g transform="translate(317.1515625 561.774007353)scale(0.12 -0.12)">
       <use xlink:href="#Verdana-31"/>
       <use x="63.57421875" xlink:href="#Verdana-30"/>
       <use x="127.1484375" xlink:href="#Verdana-30"/>
       <use x="190.72265625" xlink:href="#Verdana-30"/>
      </g>
     </g>
    </g>
    <g id="xtick_11">
     <g id="line2d_60">
      <path clip-path="url(#p69ef34d040)" d="
M442.8 548.656
L442.8 339.644" style="fill:none;stroke:#000000;stroke-dasharray:1.000000,3.000000;stroke-dashoffset:0.0;stroke-width:0.5;"/>
     </g>
     <g id="line2d_61">
      <g>
       <use style="stroke:#000000;stroke-width:0.5;" x="442.8" xlink:href="#m93b0483c22" y="548.655882353"/>
      </g>
     </g>
     <g id="line2d_62">
      <g>
       <use style="stroke:#000000;stroke-width:0.5;" x="442.8" xlink:href="#m741efc42ff" y="339.644117647"/>
      </g>
     </g>
     <g id="text_22">
      <!-- 1500 -->
      <g transform="translate(428.7515625 561.774007353)scale(0.12 -0.12)">
       <use xlink:href="#Verdana-31"/>
       <use x="63.57421875" xlink:href="#Verdana-35"/>
       <use x="127.1484375" xlink:href="#Verdana-30"/>
       <use x="190.72265625" xlink:href="#Verdana-30"/>
      </g>
     </g>
    </g>
    <g id="xtick_12">
     <g id="line2d_63">
      <path clip-path="url(#p69ef34d040)" d="
M554.4 548.656
L554.4 339.644" style="fill:none;stroke:#000000;stroke-dasharray:1.000000,3.000000;stroke-dashoffset:0.0;stroke-width:0.5;"/>
     </g>
     <g id="line2d_64">
      <g>
       <use style="stroke:#000000;stroke-width:0.5;" x="554.4" xlink:href="#m93b0483c22" y="548.655882353"/>
      </g>
     </g>
     <g id="line2d_65">
      <g>
       <use style="stroke:#000000;stroke-width:0.5;" x="554.4" xlink:href="#m741efc42ff" y="339.644117647"/>
      </g>
     </g>
     <g id="text_23">
      <!-- 2000 -->
      <g transform="translate(540.0084375 561.774007353)scale(0.12 -0.12)">
       <use xlink:href="#Verdana-32"/>
       <use x="63.57421875" xlink:href="#Verdana-30"/>
       <use x="127.1484375" xlink:href="#Verdana-30"/>
       <use x="190.72265625" xlink:href="#Verdana-30"/>
      </g>
     </g>
    </g>
    <g id="xtick_13">
     <g id="line2d_66">
      <path clip-path="url(#p69ef34d040)" d="
M666 548.656
L666 339.644" style="fill:none;stroke:#000000;stroke-dasharray:1.000000,3.000000;stroke-dashoffset:0.0;stroke-width:0.5;"/>
     </g>
     <g id="line2d_67">
      <g>
       <use style="stroke:#000000;stroke-width:0.5;" x="666.0" xlink:href="#m93b0483c22" y="548.655882353"/>
      </g>
     </g>
     <g id="line2d_68">
      <g>
       <use style="stroke:#000000;stroke-width:0.5;" x="666.0" xlink:href="#m741efc42ff" y="339.644117647"/>
      </g>
     </g>
     <g id="text_24">
      <!-- 2500 -->
      <g transform="translate(651.6084375 561.774007353)scale(0.12 -0.12)">
       <use xlink:href="#Verdana-32"/>
       <use x="63.57421875" xlink:href="#Verdana-35"/>
       <use x="127.1484375" xlink:href="#Verdana-30"/>
       <use x="190.72265625" xlink:href="#Verdana-30"/>
      </g>
     </g>
    </g>
    <g id="xtick_14">
     <g id="line2d_69">
      <path clip-path="url(#p69ef34d040)" d="
M777.6 548.656
L777.6 339.644" style="fill:none;stroke:#000000;stroke-dasharray:1.000000,3.000000;stroke-dashoffset:0.0;stroke-width:0.5;"/>
     </g>
     <g id="line2d_70">
      <g>
       <use style="stroke:#000000;stroke-width:0.5;" x="777.6" xlink:href="#m93b0483c22" y="548.655882353"/>
      </g>
     </g>
     <g id="line2d_71">
      <g>
       <use style="stroke:#000000;stroke-width:0.5;" x="777.6" xlink:href="#m741efc42ff" y="339.644117647"/>
      </g>
     </g>
     <g id="text_25">
      <!-- 3000 -->
      <g transform="translate(763.22625 561.774007353)scale(0.12 -0.12)">
       <use xlink:href="#Verdana-33"/>
       <use x="63.57421875" xlink:href="#Verdana-30"/>
       <use x="127.1484375" xlink:href="#Verdana-30"/>
       <use x="190.72265625" xlink:href="#Verdana-30"/>
      </g>
     </g>
    </g>
   </g>
   <g id="matplotlib.axis_4">
    <g id="ytick_8">
     <g id="line2d_72">
      <path clip-path="url(#p69ef34d040)" d="
M108 548.656
L777.6 548.656" style="fill:none;stroke:#000000;stroke-dasharray:1.000000,3.000000;stroke-dashoffset:0.0;stroke-width:0.5;"/>
     </g>
     <g id="line2d_73">
      <g>
       <use style="stroke:#000000;stroke-width:0.5;" x="108.0" xlink:href="#m728421d6d4" y="548.655882353"/>
      </g>
     </g>
     <g id="line2d_74">
      <g>
       <use style="stroke:#000000;stroke-width:0.5;" x="777.6" xlink:href="#mcb0005524f" y="548.655882353"/>
      </g>
     </g>
     <g id="text_26">
      <!-- −2500 -->
      <g transform="translate(65.7425 552.007444853)scale(0.12 -0.12)">
       <use xlink:href="#Verdana-2212"/>
       <use x="81.8359375" xlink:href="#Verdana-32"/>
       <use x="145.41015625" xlink:href="#Verdana-35"/>
       <use x="208.984375" xlink:href="#Verdana-30"/>
       <use x="272.55859375" xlink:href="#Verdana-30"/>
      </g>
     </g>
    </g>
    <g id="ytick_9">
     <g id="line2d_75">
      <path clip-path="url(#p69ef34d040)" d="
M108 513.821
L777.6 513.821" style="fill:none;stroke:#000000;stroke-dasharray:1.000000,3.000000;stroke-dashoffset:0.0;stroke-width:0.5;"/>
     </g>
     <g id="line2d_76">
      <g>
       <use style="stroke:#000000;stroke-width:0.5;" x="108.0" xlink:href="#m728421d6d4" y="513.820588235"/>
      </g>
     </g>
     <g id="line2d_77">
      <g>
       <use style="stroke:#000000;stroke-width:0.5;" x="777.6" xlink:href="#mcb0005524f" y="513.820588235"/>
      </g>
     </g>
     <g id="text_27">
      <!-- −2000 -->
      <g transform="translate(65.7425 517.172150735)scale(0.12 -0.12)">
       <use xlink:href="#Verdana-2212"/>
       <use x="81.8359375" xlink:href="#Verdana-32"/>
       <use x="145.41015625" xlink:href="#Verdana-30"/>
       <use x="208.984375" xlink:href="#Verdana-30"/>
       <use x="272.55859375" xlink:href="#Verdana-30"/>
      </g>
     </g>
    </g>
    <g id="ytick_10">
     <g id="line2d_78">
      <path clip-path="url(#p69ef34d040)" d="
M108 478.985
L777.6 478.985" style="fill:none;stroke:#000000;stroke-dasharray:1.000000,3.000000;stroke-dashoffset:0.0;stroke-width:0.5;"/>
     </g>
     <g id="line2d_79">
      <g>
       <use style="stroke:#000000;stroke-width:0.5;" x="108.0" xlink:href="#m728421d6d4" y="478.985294118"/>
      </g>
     </g>
     <g id="line2d_80">
      <g>
       <use style="stroke:#000000;stroke-width:0.5;" x="777.6" xlink:href="#mcb0005524f" y="478.985294118"/>
      </g>
     </g>
     <g id="text_28">
      <!-- −1500 -->
      <g transform="translate(65.7425 482.336856618)scale(0.12 -0.12)">
       <use xlink:href="#Verdana-2212"/>
       <use x="81.8359375" xlink:href="#Verdana-31"/>
       <use x="145.41015625" xlink:href="#Verdana-35"/>
       <use x="208.984375" xlink:href="#Verdana-30"/>
       <use x="272.55859375" xlink:href="#Verdana-30"/>
      </g>
     </g>
    </g>
    <g id="ytick_11">
     <g id="line2d_81">
      <path clip-path="url(#p69ef34d040)" d="
M108 444.15
L777.6 444.15" style="fill:none;stroke:#000000;stroke-dasharray:1.000000,3.000000;stroke-dashoffset:0.0;stroke-width:0.5;"/>
     </g>
     <g id="line2d_82">
      <g>
       <use style="stroke:#000000;stroke-width:0.5;" x="108.0" xlink:href="#m728421d6d4" y="444.15"/>
      </g>
     </g>
     <g id="line2d_83">
      <g>
       <use style="stroke:#000000;stroke-width:0.5;" x="777.6" xlink:href="#mcb0005524f" y="444.15"/>
      </g>
     </g>
     <g id="text_29">
      <!-- −1000 -->
      <g transform="translate(65.7425 447.5015625)scale(0.12 -0.12)">
       <use xlink:href="#Verdana-2212"/>
       <use x="81.8359375" xlink:href="#Verdana-31"/>
       <use x="145.41015625" xlink:href="#Verdana-30"/>
       <use x="208.984375" xlink:href="#Verdana-30"/>
       <use x="272.55859375" xlink:href="#Verdana-30"/>
      </g>
     </g>
    </g>
    <g id="ytick_12">
     <g id="line2d_84">
      <path clip-path="url(#p69ef34d040)" d="
M108 409.315
L777.6 409.315" style="fill:none;stroke:#000000;stroke-dasharray:1.000000,3.000000;stroke-dashoffset:0.0;stroke-width:0.5;"/>
     </g>
     <g id="line2d_85">
      <g>
       <use style="stroke:#000000;stroke-width:0.5;" x="108.0" xlink:href="#m728421d6d4" y="409.314705882"/>
      </g>
     </g>
     <g id="line2d_86">
      <g>
       <use style="stroke:#000000;stroke-width:0.5;" x="777.6" xlink:href="#mcb0005524f" y="409.314705882"/>
      </g>
     </g>
     <g id="text_30">
      <!-- −500 -->
      <g transform="translate(73.371875 412.666268382)scale(0.12 -0.12)">
       <use xlink:href="#Verdana-2212"/>
       <use x="81.8359375" xlink:href="#Verdana-35"/>
       <use x="145.41015625" xlink:href="#Verdana-30"/>
       <use x="208.984375" xlink:href="#Verdana-30"/>
      </g>
     </g>
    </g>
    <g id="ytick_13">
     <g id="line2d_87">
      <path clip-path="url(#p69ef34d040)" d="
M108 374.479
L777.6 374.479" style="fill:none;stroke:#000000;stroke-dasharray:1.000000,3.000000;stroke-dashoffset:0.0;stroke-width:0.5;"/>
     </g>
     <g id="line2d_88">
      <g>
       <use style="stroke:#000000;stroke-width:0.5;" x="108.0" xlink:href="#m728421d6d4" y="374.479411765"/>
      </g>
     </g>
     <g id="line2d_89">
      <g>
       <use style="stroke:#000000;stroke-width:0.5;" x="777.6" xlink:href="#mcb0005524f" y="374.479411765"/>
      </g>
     </g>
     <g id="text_31">
      <!-- 0 -->
      <g transform="translate(97.964375 377.830974265)scale(0.12 -0.12)">
       <use xlink:href="#Verdana-30"/>
      </g>
     </g>
    </g>
    <g id="ytick_14">
     <g id="line2d_90">
      <path clip-path="url(#p69ef34d040)" d="
M108 339.644
L777.6 339.644" style="fill:none;stroke:#000000;stroke-dasharray:1.000000,3.000000;stroke-dashoffset:0.0;stroke-width:0.5;"/>
     </g>
     <g id="line2d_91">
      <g>
       <use style="stroke:#000000;stroke-width:0.5;" x="108.0" xlink:href="#m728421d6d4" y="339.644117647"/>
      </g>
     </g>
     <g id="line2d_92">
      <g>
       <use style="stroke:#000000;stroke-width:0.5;" x="777.6" xlink:href="#mcb0005524f" y="339.644117647"/>
      </g>
     </g>
     <g id="text_32">
      <!-- 500 -->
      <g transform="translate(82.998125 342.995680147)scale(0.12 -0.12)">
       <use xlink:href="#Verdana-35"/>
       <use x="63.57421875" xlink:href="#Verdana-30"/>
       <use x="127.1484375" xlink:href="#Verdana-30"/>
      </g>
     </g>
    </g>
    <g id="text_33">
     <!-- a (pulsos/Ts^2) -->
     <defs>
      <path d="
M72.75 33.4062
L63.0938 33.4062
L40.875 64.0156
L18.7031 33.2969
L9.07812 33.2969
L37.8438 72.7031
L44 72.7031
z
" id="Verdana-5e"/>
     </defs>
     <g transform="translate(58.3275 491.604375)rotate(-90.0)scale(0.12 -0.12)">
      <use xlink:href="#Verdana-61"/>
      <use x="60.05859375" xlink:href="#Verdana-20"/>
      <use x="95.21484375" xlink:href="#Verdana-28"/>
      <use x="140.625" xlink:href="#Verdana-70"/>
      <use x="202.9296875" xlink:href="#Verdana-75"/>
      <use x="266.2109375" xlink:href="#Verdana-6c"/>
      <use x="293.65234375" xlink:href="#Verdana-73"/>
      <use x="345.751953125" xlink:href="#Verdana-6f"/>
      <use x="406.4453125" xlink:href="#Verdana-73"/>
      <use x="458.544921875" xlink:href="#Verdana-2f"/>
      <use x="503.955078125" xlink:href="#Verdana-54"/>
      <use x="556.826171875" xlink:href="#Verdana-73"/>
      <use x="608.92578125" xlink:href="#Verdana-5e"/>
      <use x="690.76171875" xlink:href="#Verdana-32"/>
      <use x="754.3359375" xlink:href="#Verdana-29"/>
     </g>
    </g>
   </g>
   <g id="patch_9">
    <path d="
M108 339.644
L777.6 339.644" style="fill:none;stroke:#000000;"/>
   </g>
   <g id="patch_10">
    <path d="
M777.6 548.656
L777.6 339.644" style="fill:none;stroke:#000000;"/>
   </g>
   <g id="patch_11">
    <path d="
M108 548.656
L777.6 548.656" style="fill:none;stroke:#000000;"/>
   </g>
   <g id="patch_12">
    <path d="
M108 548.656
L108 339.644" style="fill:none;stroke:#000000;"/>
   </g>
   <g id="legend_2">
    <g id="patch_13">
     <path d="
M654.291 393.32
L770.4 393.32
L770.4 346.844
L654.291 346.844
L654.291 393.32
z
" style="fill:#ffffff;stroke:#000000;"/>
    </g>
    <g id="line2d_93">
     <path d="
M664.371 358.506
L684.531 358.506" style="fill:none;stroke:#0000ff;stroke-linecap:square;"/>
    </g>
    <g id="line2d_94"/>
    <g id="text_34">
     <!-- consigna -->
     <g transform="translate(700.371 363.545867647)scale(0.144 -0.144)">
      <use xlink:href="#Verdana-63"/>
      <use x="52.099609375" xlink:href="#Verdana-6f"/>
      <use x="112.79296875" xlink:href="#Verdana-6e"/>
      <use x="176.07421875" xlink:href="#Verdana-73"/>
      <use x="228.173828125" xlink:href="#Verdana-69"/>
      <use x="255.615234375" xlink:href="#Verdana-67"/>
      <use x="317.919921875" xlink:href="#Verdana-6e"/>
      <use x="381.201171875" xlink:href="#Verdana-61"/>
     </g>
    </g>
    <g id="line2d_95">
     <path d="
M664.371 379.622
L684.531 379.622" style="fill:none;stroke:#008000;stroke-linecap:square;"/>
    </g>
    <g id="line2d_96"/>
    <g id="text_35">
     <!-- feedback -->
     <g transform="translate(700.371 384.662117647)scale(0.144 -0.144)">
      <use xlink:href="#Verdana-66"/>
      <use x="35.15625" xlink:href="#Verdana-65"/>
      <use x="94.7265625" xlink:href="#Verdana-65"/>
      <use x="154.296875" xlink:href="#Verdana-64"/>
      <use x="216.6015625" xlink:href="#Verdana-62"/>
      <use x="278.90625" xlink:href="#Verdana-61"/>
      <use x="338.96484375" xlink:href="#Verdana-63"/>
      <use x="391.064453125" xlink:href="#Verdana-6b"/>
     </g>
    </g>
   </g>
  </g>
  <g id="axes_3">
   <g id="patch_14">
    <path d="
M108 799.47
L777.6 799.47
L777.6 590.458
L108 590.458
z
" style="fill:#ffffff;"/>
   </g>
   <g id="line2d_97">
    <path clip-path="url(#pfb440c3b39)" d="
M108 642.763
L110.232 610.774
L112.464 610.764
L114.696 611.182
L116.928 612.081
L119.16 613.418
L121.392 615.184
L123.624 617.358
L125.856 619.877
L128.088 622.761
L130.32 626.011
L132.552 629.554
L134.784 633.389
L137.016 637.507
L139.248 641.865
L143.712 651.27
L148.176 661.418
L152.64 672.109
L159.336 688.861
L174.96 728.396
L179.424 739.222
L183.888 749.318
L188.352 758.514
L192.816 767.084
L195.048 771.097
L197.28 774.859
L199.512 778.339
L201.744 781.537
L203.976 784.473
L206.208 787.149
L208.44 789.542
L210.672 791.663
L212.904 793.492
L215.136 795.06
L217.368 796.377
L219.6 797.422
L221.832 798.237
L224.064 798.812
L226.296 799.136
L228.528 799.24
L230.76 799.167
L232.992 798.895
L235.224 798.425
L237.456 797.735
L239.688 796.889
L241.92 795.844
L244.152 794.631
L246.384 793.262
L250.848 790.064
L255.312 786.334
L259.776 782.227
L264.24 777.743
L268.704 772.978
L275.4 765.453
L282.096 757.877
L286.56 753.226
L295.488 744.165
L299.952 740.1
L302.184 738.292
L306.648 735.073
L311.112 732.085
L313.344 730.695
L315.576 729.441
L317.808 728.364
L320.04 727.434
L322.272 726.65
L324.504 725.992
L328.968 725.093
L331.2 724.738
L333.432 724.508
L337.896 724.414
L340.128 724.508
L342.36 724.738
L346.824 725.522
L351.288 726.682
L355.752 728.072
L360.216 729.765
L364.68 731.802
L369.144 734.028
L378.072 738.24
L382.536 740.581
L387 742.891
L391.464 744.887
L404.856 750.614
L409.32 752.014
L420.48 755.18
L424.944 755.964
L429.408 756.424
L438.336 757.218
L442.8 757.187
L453.96 756.518
L458.424 756.163
L462.888 755.525
L469.584 754.282
L476.28 753.32
L480.744 752.421
L485.208 751.397
L489.672 750.561
L494.136 749.83
L505.296 747.572
L511.992 746.621
L518.688 745.461
L523.152 745.022
L529.848 744.458
L534.312 743.956
L538.776 743.747
L547.704 743.559
L552.168 743.403
L556.632 743.497
L561.096 743.716
L572.256 743.894
L583.416 744.531
L587.88 744.74
L592.344 745.169
L596.808 745.639
L607.968 746.402
L612.432 746.883
L616.896 747.154
L621.36 747.29
L625.824 747.604
L630.288 748.001
L634.752 748.179
L641.448 748.304
L650.376 748.743
L654.84 748.711
L659.304 748.597
L663.768 748.701
L668.232 748.858
L672.696 748.764
L677.16 748.628
L681.624 748.68
L686.088 748.743
L690.552 748.649
L695.016 748.388
L706.176 748.179
L715.104 747.687
L721.8 747.551
L732.96 746.998
L739.656 746.83
L746.352 746.391
L750.816 746.36
L755.28 746.454
L759.744 746.391
L764.208 746.193
L768.672 746.224
L773.136 746.36
L777.6 746.308
L777.6 746.308" style="fill:none;stroke:#0000ff;stroke-linecap:square;"/>
   </g>
   <g id="matplotlib.axis_5">
    <g id="xtick_15">
     <g id="line2d_98">
      <path clip-path="url(#pfb440c3b39)" d="
M108 799.47
L108 590.458" style="fill:none;stroke:#000000;stroke-dasharray:1.000000,3.000000;stroke-dashoffset:0.0;stroke-width:0.5;"/>
     </g>
     <g id="line2d_99">
      <g>
       <use style="stroke:#000000;stroke-width:0.5;" x="108.0" xlink:href="#m93b0483c22" y="799.47"/>
      </g>
     </g>
     <g id="line2d_100">
      <g>
       <use style="stroke:#000000;stroke-width:0.5;" x="108.0" xlink:href="#m741efc42ff" y="590.458235294"/>
      </g>
     </g>
     <g id="text_36">
      <!-- 0 -->
      <g transform="translate(104.9821875 812.588125)scale(0.12 -0.12)">
       <use xlink:href="#Verdana-30"/>
      </g>
     </g>
    </g>
    <g id="xtick_16">
     <g id="line2d_101">
      <path clip-path="url(#pfb440c3b39)" d="
M219.6 799.47
L219.6 590.458" style="fill:none;stroke:#000000;stroke-dasharray:1.000000,3.000000;stroke-dashoffset:0.0;stroke-width:0.5;"/>
     </g>
     <g id="line2d_102">
      <g>
       <use style="stroke:#000000;stroke-width:0.5;" x="219.6" xlink:href="#m93b0483c22" y="799.47"/>
      </g>
     </g>
     <g id="line2d_103">
      <g>
       <use style="stroke:#000000;stroke-width:0.5;" x="219.6" xlink:href="#m741efc42ff" y="590.458235294"/>
      </g>
     </g>
     <g id="text_37">
      <!-- 500 -->
      <g transform="translate(209.0990625 812.588125)scale(0.12 -0.12)">
       <use xlink:href="#Verdana-35"/>
       <use x="63.57421875" xlink:href="#Verdana-30"/>
       <use x="127.1484375" xlink:href="#Verdana-30"/>
      </g>
     </g>
    </g>
    <g id="xtick_17">
     <g id="line2d_104">
      <path clip-path="url(#pfb440c3b39)" d="
M331.2 799.47
L331.2 590.458" style="fill:none;stroke:#000000;stroke-dasharray:1.000000,3.000000;stroke-dashoffset:0.0;stroke-width:0.5;"/>
     </g>
     <g id="line2d_105">
      <g>
       <use style="stroke:#000000;stroke-width:0.5;" x="331.2" xlink:href="#m93b0483c22" y="799.47"/>
      </g>
     </g>
     <g id="line2d_106">
      <g>
       <use style="stroke:#000000;stroke-width:0.5;" x="331.2" xlink:href="#m741efc42ff" y="590.458235294"/>
      </g>
     </g>
     <g id="text_38">
      <!-- 1000 -->
      <g transform="translate(317.1515625 812.588125)scale(0.12 -0.12)">
       <use xlink:href="#Verdana-31"/>
       <use x="63.57421875" xlink:href="#Verdana-30"/>
       <use x="127.1484375" xlink:href="#Verdana-30"/>
       <use x="190.72265625" xlink:href="#Verdana-30"/>
      </g>
     </g>
    </g>
    <g id="xtick_18">
     <g id="line2d_107">
      <path clip-path="url(#pfb440c3b39)" d="
M442.8 799.47
L442.8 590.458" style="fill:none;stroke:#000000;stroke-dasharray:1.000000,3.000000;stroke-dashoffset:0.0;stroke-width:0.5;"/>
     </g>
     <g id="line2d_108">
      <g>
       <use style="stroke:#000000;stroke-width:0.5;" x="442.8" xlink:href="#m93b0483c22" y="799.47"/>
      </g>
     </g>
     <g id="line2d_109">
      <g>
       <use style="stroke:#000000;stroke-width:0.5;" x="442.8" xlink:href="#m741efc42ff" y="590.458235294"/>
      </g>
     </g>
     <g id="text_39">
      <!-- 1500 -->
      <g transform="translate(428.7515625 812.588125)scale(0.12 -0.12)">
       <use xlink:href="#Verdana-31"/>
       <use x="63.57421875" xlink:href="#Verdana-35"/>
       <use x="127.1484375" xlink:href="#Verdana-30"/>
       <use x="190.72265625" xlink:href="#Verdana-30"/>
      </g>
     </g>
    </g>
    <g id="xtick_19">
     <g id="line2d_110">
      <path clip-path="url(#pfb440c3b39)" d="
M554.4 799.47
L554.4 590.458" style="fill:none;stroke:#000000;stroke-dasharray:1.000000,3.000000;stroke-dashoffset:0.0;stroke-width:0.5;"/>
     </g>
     <g id="line2d_111">
      <g>
       <use style="stroke:#000000;stroke-width:0.5;" x="554.4" xlink:href="#m93b0483c22" y="799.47"/>
      </g>
     </g>
     <g id="line2d_112">
      <g>
       <use style="stroke:#000000;stroke-width:0.5;" x="554.4" xlink:href="#m741efc42ff" y="590.458235294"/>
      </g>
     </g>
     <g id="text_40">
      <!-- 2000 -->
      <g transform="translate(540.0084375 812.588125)scale(0.12 -0.12)">
       <use xlink:href="#Verdana-32"/>
       <use x="63.57421875" xlink:href="#Verdana-30"/>
       <use x="127.1484375" xlink:href="#Verdana-30"/>
       <use x="190.72265625" xlink:href="#Verdana-30"/>
      </g>
     </g>
    </g>
    <g id="xtick_20">
     <g id="line2d_113">
      <path clip-path="url(#pfb440c3b39)" d="
M666 799.47
L666 590.458" style="fill:none;stroke:#000000;stroke-dasharray:1.000000,3.000000;stroke-dashoffset:0.0;stroke-width:0.5;"/>
     </g>
     <g id="line2d_114">
      <g>
       <use style="stroke:#000000;stroke-width:0.5;" x="666.0" xlink:href="#m93b0483c22" y="799.47"/>
      </g>
     </g>
     <g id="line2d_115">
      <g>
       <use style="stroke:#000000;stroke-width:0.5;" x="666.0" xlink:href="#m741efc42ff" y="590.458235294"/>
      </g>
     </g>
     <g id="text_41">
      <!-- 2500 -->
      <g transform="translate(651.6084375 812.588125)scale(0.12 -0.12)">
       <use xlink:href="#Verdana-32"/>
       <use x="63.57421875" xlink:href="#Verdana-35"/>
       <use x="127.1484375" xlink:href="#Verdana-30"/>
       <use x="190.72265625" xlink:href="#Verdana-30"/>
      </g>
     </g>
    </g>
    <g id="xtick_21">
     <g id="line2d_116">
      <path clip-path="url(#pfb440c3b39)" d="
M777.6 799.47
L777.6 590.458" style="fill:none;stroke:#000000;stroke-dasharray:1.000000,3.000000;stroke-dashoffset:0.0;stroke-width:0.5;"/>
     </g>
     <g id="line2d_117">
      <g>
       <use style="stroke:#000000;stroke-width:0.5;" x="777.6" xlink:href="#m93b0483c22" y="799.47"/>
      </g>
     </g>
     <g id="line2d_118">
      <g>
       <use style="stroke:#000000;stroke-width:0.5;" x="777.6" xlink:href="#m741efc42ff" y="590.458235294"/>
      </g>
     </g>
     <g id="text_42">
      <!-- 3000 -->
      <g transform="translate(763.22625 812.588125)scale(0.12 -0.12)">
       <use xlink:href="#Verdana-33"/>
       <use x="63.57421875" xlink:href="#Verdana-30"/>
       <use x="127.1484375" xlink:href="#Verdana-30"/>
       <use x="190.72265625" xlink:href="#Verdana-30"/>
      </g>
     </g>
    </g>
    <g id="text_43">
     <!-- t (ms) -->
     <defs>
      <path d="
M88.625 0
L79.4375 0
L79.4375 31.0625
Q79.4375 34.5781 79.125 37.8438
Q78.8125 41.1094 77.7812 43.0625
Q76.6562 45.1719 74.5625 46.2344
Q72.4688 47.3125 68.5 47.3125
Q64.6562 47.3125 60.7969 45.375
Q56.9375 43.4531 53.0781 40.4844
Q53.2188 39.3594 53.3125 37.8594
Q53.4219 36.375 53.4219 34.9062
L53.4219 0
L44.2344 0
L44.2344 31.0625
Q44.2344 34.6719 43.9219 37.9062
Q43.6094 41.1562 42.5781 43.1094
Q41.4531 45.2188 39.3438 46.2656
Q37.25 47.3125 33.2969 47.3125
Q29.5469 47.3125 25.75 45.4531
Q21.9688 43.6094 18.2188 40.7188
L18.2188 0
L9.03125 0
L9.03125 54.5469
L18.2188 54.5469
L18.2188 48.4844
Q22.5156 52.0469 26.7812 54.0469
Q31.0625 56.0625 35.8906 56.0625
Q41.4531 56.0625 45.3281 53.7188
Q49.2188 51.375 51.125 47.2188
Q56.6875 51.9062 61.2812 53.9844
Q65.875 56.0625 71.0938 56.0625
Q80.0781 56.0625 84.3438 50.6094
Q88.625 45.1719 88.625 35.4062
z
" id="Verdana-6d"/>
     </defs>
     <g transform="translate(424.445625 829.12125)scale(0.12 -0.12)">
      <use xlink:href="#Verdana-74"/>
      <use x="39.404296875" xlink:href="#Verdana-20"/>
      <use x="74.560546875" xlink:href="#Verdana-28"/>
      <use x="119.970703125" xlink:href="#Verdana-6d"/>
      <use x="217.236328125" xlink:href="#Verdana-73"/>
      <use x="269.3359375" xlink:href="#Verdana-29"/>
     </g>
    </g>
   </g>
   <g id="matplotlib.axis_6">
    <g id="ytick_15">
     <g id="line2d_119">
      <path clip-path="url(#pfb440c3b39)" d="
M108 799.47
L777.6 799.47" style="fill:none;stroke:#000000;stroke-dasharray:1.000000,3.000000;stroke-dashoffset:0.0;stroke-width:0.5;"/>
     </g>
     <g id="line2d_120">
      <g>
       <use style="stroke:#000000;stroke-width:0.5;" x="108.0" xlink:href="#m728421d6d4" y="799.47"/>
      </g>
     </g>
     <g id="line2d_121">
      <g>
       <use style="stroke:#000000;stroke-width:0.5;" x="777.6" xlink:href="#mcb0005524f" y="799.47"/>
      </g>
     </g>
     <g id="text_44">
      <!-- −5000 -->
      <g transform="translate(65.7425 802.8215625)scale(0.12 -0.12)">
       <use xlink:href="#Verdana-2212"/>
       <use x="81.8359375" xlink:href="#Verdana-35"/>
       <use x="145.41015625" xlink:href="#Verdana-30"/>
       <use x="208.984375" xlink:href="#Verdana-30"/>
       <use x="272.55859375" xlink:href="#Verdana-30"/>
      </g>
     </g>
    </g>
    <g id="ytick_16">
     <g id="line2d_122">
      <path clip-path="url(#pfb440c3b39)" d="
M108 747.217
L777.6 747.217" style="fill:none;stroke:#000000;stroke-dasharray:1.000000,3.000000;stroke-dashoffset:0.0;stroke-width:0.5;"/>
     </g>
     <g id="line2d_123">
      <g>
       <use style="stroke:#000000;stroke-width:0.5;" x="108.0" xlink:href="#m728421d6d4" y="747.217058824"/>
      </g>
     </g>
     <g id="line2d_124">
      <g>
       <use style="stroke:#000000;stroke-width:0.5;" x="777.6" xlink:href="#mcb0005524f" y="747.217058824"/>
      </g>
     </g>
     <g id="text_45">
      <!-- 0 -->
      <g transform="translate(97.964375 750.568621324)scale(0.12 -0.12)">
       <use xlink:href="#Verdana-30"/>
      </g>
     </g>
    </g>
    <g id="ytick_17">
     <g id="line2d_125">
      <path clip-path="url(#pfb440c3b39)" d="
M108 694.964
L777.6 694.964" style="fill:none;stroke:#000000;stroke-dasharray:1.000000,3.000000;stroke-dashoffset:0.0;stroke-width:0.5;"/>
     </g>
     <g id="line2d_126">
      <g>
       <use style="stroke:#000000;stroke-width:0.5;" x="108.0" xlink:href="#m728421d6d4" y="694.964117647"/>
      </g>
     </g>
     <g id="line2d_127">
      <g>
       <use style="stroke:#000000;stroke-width:0.5;" x="777.6" xlink:href="#mcb0005524f" y="694.964117647"/>
      </g>
     </g>
     <g id="text_46">
      <!-- 5000 -->
      <g transform="translate(75.36875 698.315680147)scale(0.12 -0.12)">
       <use xlink:href="#Verdana-35"/>
       <use x="63.57421875" xlink:href="#Verdana-30"/>
       <use x="127.1484375" xlink:href="#Verdana-30"/>
       <use x="190.72265625" xlink:href="#Verdana-30"/>
      </g>
     </g>
    </g>
    <g id="ytick_18">
     <g id="line2d_128">
      <path clip-path="url(#pfb440c3b39)" d="
M108 642.711
L777.6 642.711" style="fill:none;stroke:#000000;stroke-dasharray:1.000000,3.000000;stroke-dashoffset:0.0;stroke-width:0.5;"/>
     </g>
     <g id="line2d_129">
      <g>
       <use style="stroke:#000000;stroke-width:0.5;" x="108.0" xlink:href="#m728421d6d4" y="642.711176471"/>
      </g>
     </g>
     <g id="line2d_130">
      <g>
       <use style="stroke:#000000;stroke-width:0.5;" x="777.6" xlink:href="#mcb0005524f" y="642.711176471"/>
      </g>
     </g>
     <g id="text_47">
      <!-- 10000 -->
      <g transform="translate(68.27375 646.062738971)scale(0.12 -0.12)">
       <use xlink:href="#Verdana-31"/>
       <use x="63.57421875" xlink:href="#Verdana-30"/>
       <use x="127.1484375" xlink:href="#Verdana-30"/>
       <use x="190.72265625" xlink:href="#Verdana-30"/>
       <use x="254.296875" xlink:href="#Verdana-30"/>
      </g>
     </g>
    </g>
    <g id="ytick_19">
     <g id="line2d_131">
      <path clip-path="url(#pfb440c3b39)" d="
M108 590.458
L777.6 590.458" style="fill:none;stroke:#000000;stroke-dasharray:1.000000,3.000000;stroke-dashoffset:0.0;stroke-width:0.5;"/>
     </g>
     <g id="line2d_132">
      <g>
       <use style="stroke:#000000;stroke-width:0.5;" x="108.0" xlink:href="#m728421d6d4" y="590.458235294"/>
      </g>
     </g>
     <g id="line2d_133">
      <g>
       <use style="stroke:#000000;stroke-width:0.5;" x="777.6" xlink:href="#mcb0005524f" y="590.458235294"/>
      </g>
     </g>
     <g id="text_48">
      <!-- 15000 -->
      <g transform="translate(68.27375 593.809797794)scale(0.12 -0.12)">
       <use xlink:href="#Verdana-31"/>
       <use x="63.57421875" xlink:href="#Verdana-35"/>
       <use x="127.1484375" xlink:href="#Verdana-30"/>
       <use x="190.72265625" xlink:href="#Verdana-30"/>
       <use x="254.296875" xlink:href="#Verdana-30"/>
      </g>
     </g>
    </g>
    <g id="text_49">
     <!-- u (cuentas) -->
     <g transform="translate(58.3275 729.177242647)rotate(-90.0)scale(0.12 -0.12)">
      <use xlink:href="#Verdana-75"/>
      <use x="63.28125" xlink:href="#Verdana-20"/>
      <use x="98.4375" xlink:href="#Verdana-28"/>
      <use x="143.84765625" xlink:href="#Verdana-63"/>
      <use x="195.947265625" xlink:href="#Verdana-75"/>
      <use x="259.228515625" xlink:href="#Verdana-65"/>
      <use x="318.798828125" xlink:href="#Verdana-6e"/>
      <use x="382.080078125" xlink:href="#Verdana-74"/>
      <use x="421.484375" xlink:href="#Verdana-61"/>
      <use x="481.54296875" xlink:href="#Verdana-73"/>
      <use x="533.642578125" xlink:href="#Verdana-29"/>
     </g>
    </g>
   </g>
   <g id="patch_15">
    <path d="
M108 590.458
L777.6 590.458" style="fill:none;stroke:#000000;"/>
   </g>
   <g id="patch_16">
    <path d="
M777.6 799.47
L777.6 590.458" style="fill:none;stroke:#000000;"/>
   </g>
   <g id="patch_17">
    <path d="
M108 799.47
L777.6 799.47" style="fill:none;stroke:#000000;"/>
   </g>
   <g id="patch_18">
    <path d="
M108 799.47
L108 590.458" style="fill:none;stroke:#000000;"/>
   </g>
  </g>
 </g>
 <defs>
  <clipPath id="pfb440c3b39">
   <rect height="209.011764706" width="669.6" x="108.0" y="590.458235294"/>
  </clipPath>
  <clipPath id="p69ef34d040">
   <rect height="209.011764706" width="669.6" x="108.0" y="339.644117647"/>
  </clipPath>
  <clipPath id="pf852ae8543">
   <rect height="209.011764706" width="669.6" x="108.0" y="88.83"/>
  </clipPath>
 </defs>
</svg>
