<?xml version="1.0" encoding="UTF-8" standalone="no"?>
<!-- Created with Inkscape (http://www.inkscape.org/) -->

<svg
   xmlns:dc="http://purl.org/dc/elements/1.1/"
   xmlns:cc="http://creativecommons.org/ns#"
   xmlns:rdf="http://www.w3.org/1999/02/22-rdf-syntax-ns#"
   xmlns:svg="http://www.w3.org/2000/svg"
   xmlns="http://www.w3.org/2000/svg"
   xmlns:sodipodi="http://sodipodi.sourceforge.net/DTD/sodipodi-0.dtd"
   xmlns:inkscape="http://www.inkscape.org/namespaces/inkscape"
   id="svg2"
   version="1.1"
   inkscape:version="0.48.4 r9939"
   width="585.75006"
   height="483.03278"
   xml:space="preserve"
   sodipodi:docname="dspic33_resouces_table.pdf"><metadata
     id="metadata8"><rdf:RDF><cc:Work
         rdf:about=""><dc:format>image/svg+xml</dc:format><dc:type
           rdf:resource="http://purl.org/dc/dcmitype/StillImage" /><dc:title></dc:title></cc:Work></rdf:RDF></metadata><defs
     id="defs6"><clipPath
       clipPathUnits="userSpaceOnUse"
       id="clipPath16"><path
         d="m 63,753 468,0 0,-15.36 -468,0 0,15.36 z"
         clip-rule="evenodd"
         id="path18"
         inkscape:connector-curvature="0" /></clipPath><clipPath
       clipPathUnits="userSpaceOnUse"
       id="clipPath22"><path
         d="m 0,792.03 612,0 0,-792 -612,0 0,792 z"
         id="path24"
         inkscape:connector-curvature="0" /></clipPath><clipPath
       clipPathUnits="userSpaceOnUse"
       id="clipPath40"><path
         d="m 63,54 468,0 0,-16.74 -468,0 0,16.74 z"
         clip-rule="evenodd"
         id="path42"
         inkscape:connector-curvature="0" /></clipPath><clipPath
       clipPathUnits="userSpaceOnUse"
       id="clipPath46"><path
         d="m 0,792.03 612,0 0,-792 -612,0 0,792 z"
         id="path48"
         inkscape:connector-curvature="0" /></clipPath></defs><sodipodi:namedview
     pagecolor="#ffffff"
     bordercolor="#666666"
     borderopacity="1"
     objecttolerance="10"
     gridtolerance="10"
     guidetolerance="10"
     inkscape:pageopacity="0"
     inkscape:pageshadow="2"
     inkscape:window-width="1920"
     inkscape:window-height="1021"
     id="namedview4"
     showgrid="false"
     fit-margin-top="0"
     fit-margin-left="0"
     fit-margin-right="0"
     fit-margin-bottom="0"
     inkscape:zoom="1.3485026"
     inkscape:cx="208.81946"
     inkscape:cy="258.0775"
     inkscape:window-x="0"
     inkscape:window-y="25"
     inkscape:window-maximized="1"
     inkscape:current-layer="g10" /><g
     id="g10"
     inkscape:groupmode="layer"
     inkscape:label="70291C"
     transform="matrix(1.25,0,0,-1.25,-78.45,753.45)"><text
       transform="matrix(1,0,0,-1,89.76,545.34)"
       id="text96"><tspan
         style="font-size:6.96000004px;font-variant:normal;font-weight:bold;font-stretch:normal;writing-mode:lr-tb;fill:#000000;fill-opacity:1;fill-rule:nonzero;stroke:none;font-family:Arial;-inkscape-font-specification:Arial-BoldMT"
         x="0 5.0508718 8.9463844 12.78552 14.766336 18.661848"
         y="0"
         sodipodi:role="line"
         id="tspan98">Device</tspan></text>
<text
       transform="matrix(0,1,1,0,148.2,539.64)"
       id="text100"><tspan
         style="font-size:6.96000004px;font-variant:normal;font-weight:bold;font-stretch:normal;writing-mode:lr-tb;fill:#000000;fill-opacity:1;fill-rule:nonzero;stroke:none;font-family:Arial;-inkscape-font-specification:Arial-BoldMT"
         x="0 4.6353598 6.6168718 10.862472"
         y="0"
         sodipodi:role="line"
         id="tspan102">Pins</tspan><tspan
         style="font-size:6.96000004px;font-variant:normal;font-weight:bold;font-stretch:normal;writing-mode:lr-tb;fill:#000000;fill-opacity:1;fill-rule:nonzero;stroke:none;font-family:Arial;-inkscape-font-specification:Arial-BoldMT"
         x="-31.500263 -26.82036 -24.121271 -19.800505 -15.539592 -12.83424 -8.9352484 -2.749896 -0.76838398 3.4820881 5.4148798 9.3138723 13.212864 17.473776 19.394735 25.190329 29.089319 35.328262 39.589176 42.294529 46.19352"
         y="14.819928"
         sodipodi:role="line"
         id="tspan104">Program Flash Memory </tspan><tspan
         style="font-size:6.96000004px;font-variant:normal;font-weight:bold;font-stretch:normal;writing-mode:lr-tb;fill:#000000;fill-opacity:1;fill-rule:nonzero;stroke:none;font-family:Arial;-inkscape-font-specification:Arial-BoldMT"
         x="-4.6806002 -2.3420401 2.7039599 6.9773998 10.86804 13.2066 17.09724"
         y="22.860121"
         sodipodi:role="line"
         id="tspan106">(Kbyte)</tspan><tspan
         style="font-size:6.96000004px;font-variant:normal;font-weight:bold;font-stretch:normal;writing-mode:lr-tb;fill:#000000;fill-opacity:1;fill-rule:nonzero;stroke:none;font-family:Arial;-inkscape-font-specification:Arial-BoldMT"
         x="-16.980312 -11.9364 -6.892488 -1.0760159 0.844944 3.181416 8.2253284 12.49668 16.385233 18.721704 22.560841"
         y="37.68005"
         sodipodi:role="line"
         id="tspan108">RAM (Kbyte)</tspan></text>
<text
       transform="matrix(0,1,1,0,183.06,564.54)"
       id="text110"><tspan
         style="font-size:5.57999992px;font-variant:normal;font-weight:bold;font-stretch:normal;writing-mode:lr-tb;fill:#000000;fill-opacity:1;fill-rule:nonzero;stroke:none;font-family:Arial;-inkscape-font-specification:Arial-BoldMT"
         x="0 1.867626 4.9795918"
         y="0"
         sodipodi:role="line"
         id="tspan112">(1)</tspan></text>
<text
       transform="matrix(1,0,0,-1,229.26,595.86)"
       id="text114"><tspan
         style="font-size:6.96000004px;font-variant:normal;font-weight:bold;font-stretch:normal;writing-mode:lr-tb;fill:#000000;fill-opacity:1;fill-rule:nonzero;stroke:none;font-family:Arial;-inkscape-font-specification:Arial-BoldMT"
         x="0 5.0237279 8.92272 15.108768 19.007759 23.258928 27.340273 31.239264 35.500175 37.433662 41.332657 43.253616 47.933521 51.832512 54.538559 56.520073 60.77124 65.022408 68.921402 71.627449 75.526443"
         y="0"
         sodipodi:role="line"
         id="tspan116">Remappable Peripheral</tspan></text>
<text
       transform="matrix(0,1,1,0,367.2,537.3)"
       id="text118"><tspan
         style="font-size:6.96000004px;font-variant:normal;font-weight:bold;font-stretch:normal;writing-mode:lr-tb;fill:#000000;fill-opacity:1;fill-rule:nonzero;stroke:none;font-family:Arial;-inkscape-font-specification:Arial-BoldMT"
         x="0 5.0376482 9.3027363 14.340384"
         y="0"
         sodipodi:role="line"
         id="tspan120">RTCC</tspan><tspan
         style="font-size:6.96000004px;font-variant:normal;font-weight:bold;font-stretch:normal;writing-mode:lr-tb;fill:#000000;fill-opacity:1;fill-rule:nonzero;stroke:none;font-family:Arial;-inkscape-font-specification:Arial-BoldMT"
         x="1.140048"
         y="12.479976"
         id="tspan122">I</tspan></text>
<text
       transform="matrix(0,1,1,0,376.92,540.42)"
       id="text124"><tspan
         style="font-size:5.57999992px;font-variant:normal;font-weight:bold;font-stretch:normal;writing-mode:lr-tb;fill:#000000;fill-opacity:1;fill-rule:nonzero;stroke:none;font-family:Arial;-inkscape-font-specification:Arial-BoldMT"
         x="0"
         y="0"
         id="tspan126">2</tspan></text>
<text
       transform="matrix(0,1,1,0,379.68,543.54)"
       id="text128"><tspan
         style="font-size:6.96000004px;font-variant:normal;font-weight:bold;font-stretch:normal;writing-mode:lr-tb;fill:#000000;fill-opacity:1;fill-rule:nonzero;stroke:none;font-family:Arial;-inkscape-font-specification:Arial-BoldMT"
         x="0 5.0390401"
         y="0"
         sodipodi:role="line"
         id="tspan130">C™</tspan><tspan
         style="font-size:6.96000004px;font-variant:normal;font-weight:bold;font-stretch:normal;writing-mode:lr-tb;fill:#000000;fill-opacity:1;fill-rule:nonzero;stroke:none;font-family:Arial;-inkscape-font-specification:Arial-BoldMT"
         x="-21.779928 -16.741585 -11.70324 -6.664896 -4.6833839 0.74471998 4.6277041 8.8934879 12.776472 15.497136 19.380119 21.711023 25.976809"
         y="11.760312"
         sodipodi:role="line"
         id="tspan132">CRC Generator</tspan><tspan
         style="font-size:6.96000004px;font-variant:normal;font-weight:bold;font-stretch:normal;writing-mode:lr-tb;fill:#000000;fill-opacity:1;fill-rule:nonzero;stroke:none;font-family:Arial;-inkscape-font-specification:Arial-BoldMT"
         x="-24.659975 -20.820841 -16.921848 -14.582592 -10.308456 -8.387496 -6.047544 -4.0910878 -0.25195199 3.639384 5.9786401 10.252776 12.173736 14.512992 16.494505 21.541201 26.587896"
         y="26.58024"
         sodipodi:role="line"
         id="tspan134">10-bit/12-bit ADC</tspan><tspan
         style="font-size:6.96000004px;font-variant:normal;font-weight:bold;font-stretch:normal;writing-mode:lr-tb;fill:#000000;fill-opacity:1;fill-rule:nonzero;stroke:none;font-family:Arial;-inkscape-font-specification:Arial-BoldMT"
         x="-14.579808 -12.246816 -7.2063842 -2.9385121 0.94656003 5.2144318 9.4823036 13.367376 15.317568 19.202641"
         y="34.560577"
         sodipodi:role="line"
         id="tspan136">(Channels)</tspan><tspan
         style="font-size:6.96000004px;font-variant:normal;font-weight:bold;font-stretch:normal;writing-mode:lr-tb;fill:#000000;fill-opacity:1;fill-rule:nonzero;stroke:none;font-family:Arial;-inkscape-font-specification:Arial-BoldMT"
         x="-23.699495 -19.813728 -17.533632 -13.265064 -11.284248 -7.0156798 -5.0947199 -1.208952 2.676816 5.0105038 9.2790718 11.22996 13.563648 15.484608 20.583504 25.624632 30.66576"
         y="50.760674"
         sodipodi:role="line"
         id="tspan138">6-pin 16-bit DAC </tspan><tspan
         style="font-size:6.96000004px;font-variant:normal;font-weight:bold;font-stretch:normal;writing-mode:lr-tb;fill:#000000;fill-opacity:1;fill-rule:nonzero;stroke:none;font-family:Arial;-inkscape-font-specification:Arial-BoldMT"
         x="-29.039904 -24.007824 -19.748304 -15.871584 -13.929744 -9.6702242 -5.3494558 -3.4284959 1.6035841 5.8631039 12.102048 16.183392 20.022528 22.781471 26.620607 28.96056 33.220081"
         y="66.600937"
         sodipodi:role="line"
         id="tspan140">Analog Comparator</tspan><tspan
         style="font-size:6.96000004px;font-variant:normal;font-weight:bold;font-stretch:normal;writing-mode:lr-tb;fill:#000000;fill-opacity:1;fill-rule:nonzero;stroke:none;font-family:Arial;-inkscape-font-specification:Arial-BoldMT"
         x="-47.999641 -45.720242 -41.821945 -39.841129 -34.809048 -30.549528 -26.672808 -22.413288 -18.153769 -14.277048 -12.335208 -8.4584885 -6.5166478 -2.3775361 1.881984 3.8627999 5.961936 9.8602324 14.119752 17.996471 19.916737 25.014936 28.853376 33.173447 37.433662 39.375504 43.252224 45.576862 49.836384 52.550785"
         y="74.641129"
         sodipodi:role="line"
         id="tspan142">(2 Channels/Voltage Regulator)</tspan><tspan
         style="font-size:6.96000004px;font-variant:normal;font-weight:bold;font-stretch:normal;writing-mode:lr-tb;fill:#000000;fill-opacity:1;fill-rule:nonzero;stroke:none;font-family:Arial;-inkscape-font-specification:Arial-BoldMT"
         x="-9.5393763 -7.6149359 -5.63412 -0.22968 1.751832 6.3837118 8.3652239 12.607344"
         y="118.14113"
         sodipodi:role="line"
         id="tspan144">I/O Pins</tspan><tspan
         style="font-size:6.96000004px;font-variant:normal;font-weight:bold;font-stretch:normal;writing-mode:lr-tb;fill:#000000;fill-opacity:1;fill-rule:nonzero;stroke:none;font-family:Arial;-inkscape-font-specification:Arial-BoldMT"
         x="-12.659544 -7.9900799 -4.0931759 -0.25404 3.642864 7.5397682 11.819472 15.716376"
         y="139.38097"
         sodipodi:role="line"
         id="tspan146">Packages</tspan><tspan
         style="font-size:6.96000004px;font-variant:normal;font-weight:bold;font-stretch:normal;writing-mode:lr-tb;fill:#000000;fill-opacity:1;fill-rule:nonzero;stroke:none;font-family:Arial;-inkscape-font-specification:Arial-BoldMT"
         x="-30.539783 -25.520927 -21.657433 -15.418488 -11.519496 -7.2732 -3.1918559 0.70713598 4.9680481 6.8966641 10.795656 12.716616 17.396521 19.31748 23.638945"
         y="-178.79892"
         sodipodi:role="line"
         id="tspan148">Remappable Pins</tspan><tspan
         style="font-size:6.96000004px;font-variant:normal;font-weight:bold;font-stretch:normal;writing-mode:lr-tb;fill:#000000;fill-opacity:1;fill-rule:nonzero;stroke:none;font-family:Arial;-inkscape-font-specification:Arial-BoldMT"
         x="-24.659975 -20.812489 -16.913496 -14.573544 -10.312632 -8.4000244 -6.0600719 -4.0792561 0.061944 1.982904 8.2218475 12.060984"
         y="-164.27898"
         sodipodi:role="line"
         id="tspan150">16-bit Timer</tspan></text>
<text
       transform="matrix(0,1,1,0,212.58,558.36)"
       id="text152"><tspan
         style="font-size:5.57999992px;font-variant:normal;font-weight:bold;font-stretch:normal;writing-mode:lr-tb;fill:#000000;fill-opacity:1;fill-rule:nonzero;stroke:none;font-family:Arial;-inkscape-font-specification:Arial-BoldMT"
         x="0 1.859814 4.9187698"
         y="0"
         sodipodi:role="line"
         id="tspan154">(2)</tspan></text>
<text
       transform="matrix(0,1,1,0,227.58,520.26096)"
       id="text156"><tspan
         style="font-size:6.96000004px;font-variant:normal;font-weight:bold;font-stretch:normal;writing-mode:lr-tb;fill:#000000;fill-opacity:1;fill-rule:nonzero;stroke:none;font-family:Arial;-inkscape-font-specification:Arial-BoldMT"
         x="0 1.939056 6.2598238 10.51656 14.773296 17.095152 19.016111 24.045408 27.919344 32.176079 34.497936 38.754673 41.46629"
         y="0"
         sodipodi:role="line"
         id="tspan158">Input Capture</tspan><tspan
         style="font-size:6.96000004px;font-variant:normal;font-weight:bold;font-stretch:normal;writing-mode:lr-tb;fill:#000000;fill-opacity:1;fill-rule:nonzero;stroke:none;font-family:Arial;-inkscape-font-specification:Arial-BoldMT"
         x="-5.7009358 -0.28187999 3.9748559 6.3148079 10.57572 14.896488 17.176584 19.1574 24.186695 28.443432 34.682377 38.703865 42.602856 45.301945"
         y="12.839808"
         sodipodi:role="line"
         id="tspan160">Output Compare</tspan><tspan
         style="font-size:6.96000004px;font-variant:normal;font-weight:bold;font-stretch:normal;writing-mode:lr-tb;fill:#000000;fill-opacity:1;fill-rule:nonzero;stroke:none;font-family:Arial;-inkscape-font-specification:Arial-BoldMT"
         x="-2.7610321 1.79916 3.8989921 7.7875438 12.058896 16.330248 20.2188 22.977743 27.238655 29.159616 33.820728 40.40976"
         y="20.819448"
         sodipodi:role="line"
         id="tspan162">Standard PWM</tspan><tspan
         style="font-size:6.96000004px;font-variant:normal;font-weight:bold;font-stretch:normal;writing-mode:lr-tb;fill:#000000;fill-opacity:1;fill-rule:nonzero;stroke:none;font-family:Arial;-inkscape-font-specification:Arial-BoldMT"
         x="-10.86108 -5.0473919 -0.77882397 1.554864 5.823432 8.5468798 10.527696 15.568824 19.837393 24.105961 26.439648 29.163095 33.431664 35.382553 37.303513 41.961842 48.548088"
         y="35.459808"
         sodipodi:role="line"
         id="tspan164">Motor Control PWM</tspan><tspan
         style="font-size:6.96000004px;font-variant:normal;font-weight:bold;font-stretch:normal;writing-mode:lr-tb;fill:#000000;fill-opacity:1;fill-rule:nonzero;stroke:none;font-family:Arial;-inkscape-font-specification:Arial-BoldMT"
         x="0.29927999 2.579376 7.6782718 11.953104 15.79224 20.113705 24.374617 28.266647 30.187609 34.079639"
         y="43.439449"
         sodipodi:role="line"
         id="tspan166">(Channels)</tspan></text>
<text
       transform="matrix(0,1,1,0,268.2,556.62)"
       id="text168"><tspan
         style="font-size:5.57999992px;font-variant:normal;font-weight:bold;font-stretch:normal;writing-mode:lr-tb;fill:#000000;fill-opacity:1;fill-rule:nonzero;stroke:none;font-family:Arial;-inkscape-font-specification:Arial-BoldMT"
         x="0 1.867626 4.9795918"
         y="0"
         sodipodi:role="line"
         id="tspan170">(3)</tspan></text>
<text
       transform="matrix(0,1,1,0,285.6,508.2)"
       id="text172"><tspan
         style="font-size:6.96000004px;font-variant:normal;font-weight:bold;font-stretch:normal;writing-mode:lr-tb;fill:#000000;fill-opacity:1;fill-rule:nonzero;stroke:none;font-family:Arial;-inkscape-font-specification:Arial-BoldMT"
         x="0 5.4608159 9.7217283 13.62072 17.881632 20.589767 24.48876 26.807137 31.060392 33.768528 37.667519 39.649033 44.292049 48.545303 52.444298 56.697552 60.950809 64.8498 67.608742"
         y="0"
         sodipodi:role="line"
         id="tspan174">Quadrature Encoder </tspan><tspan
         style="font-size:6.96000004px;font-variant:normal;font-weight:bold;font-stretch:normal;writing-mode:lr-tb;fill:#000000;fill-opacity:1;fill-rule:nonzero;stroke:none;font-family:Arial;-inkscape-font-specification:Arial-BoldMT"
         x="19.259712 21.189024 25.436016 27.775969 31.674959 34.376831 36.716785 40.615776 44.45491"
         y="8.0401917"
         sodipodi:role="line"
         id="tspan176">Interface</tspan><tspan
         style="font-size:6.96000004px;font-variant:normal;font-weight:bold;font-stretch:normal;writing-mode:lr-tb;fill:#000000;fill-opacity:1;fill-rule:nonzero;stroke:none;font-family:Arial;-inkscape-font-specification:Arial-BoldMT"
         x="24.119881 29.15892 34.19796 39.237"
         y="22.860121"
         sodipodi:role="line"
         id="tspan178">UART</tspan><tspan
         style="font-size:6.96000004px;font-variant:normal;font-weight:bold;font-stretch:normal;writing-mode:lr-tb;fill:#000000;fill-opacity:1;fill-rule:nonzero;stroke:none;font-family:Arial;-inkscape-font-specification:Arial-BoldMT"
         x="28.199833 32.819881 37.499783"
         y="37.860313"
         sodipodi:role="line"
         id="tspan180">SPI</tspan><tspan
         style="font-size:6.96000004px;font-variant:normal;font-weight:bold;font-stretch:normal;writing-mode:lr-tb;fill:#000000;fill-opacity:1;fill-rule:nonzero;stroke:none;font-family:Arial;-inkscape-font-specification:Arial-BoldMT"
         x="20.399759 25.060871 30.104784 35.148697 40.192608"
         y="52.860504"
         sodipodi:role="line"
         id="tspan182">ECAN™</tspan><tspan
         style="font-size:6.96000004px;font-variant:normal;font-weight:bold;font-stretch:normal;writing-mode:lr-tb;fill:#000000;fill-opacity:1;fill-rule:nonzero;stroke:none;font-family:Arial;-inkscape-font-specification:Arial-BoldMT"
         x="-1.080192 3.5997119 7.498704 9.7941122 13.693104 16.378271 20.699039 24.546528 26.52804 28.448999 30.361609 34.682377 36.977783 40.876778 43.561943 46.320889 50.581799 54.842712 57.002399"
         y="67.980408"
         sodipodi:role="line"
         id="tspan184">External Interrupts</tspan></text>
<text
       transform="matrix(0,1,1,0,350.76,569.04)"
       id="text186"><tspan
         style="font-size:5.57999992px;font-variant:normal;font-weight:bold;font-stretch:normal;writing-mode:lr-tb;fill:#000000;fill-opacity:1;fill-rule:nonzero;stroke:none;font-family:Arial;-inkscape-font-specification:Arial-BoldMT"
         x="0 1.867626 4.9795918"
         y="0"
         sodipodi:role="line"
         id="tspan188">(4)</tspan></text>
<text
       transform="matrix(0,1,1,0,471.84,509.94096)"
       id="text190"><tspan
         style="font-size:6.96000004px;font-variant:normal;font-weight:bold;font-stretch:normal;writing-mode:lr-tb;fill:#000000;fill-opacity:1;fill-rule:nonzero;stroke:none;font-family:Arial;-inkscape-font-specification:Arial-BoldMT"
         x="0 3.896208 6.2403359 10.519344 12.440304 14.784432 16.765944 21.385992 25.284985 27.984072 31.883064 33.844391 35.76535 39.66156 41.58252 43.503479 49.327606 53.223816 57.120026 59.464153 63.360359 66.059448"
         y="0"
         sodipodi:role="line"
         id="tspan192">8-bit Parallel Master </tspan><tspan
         style="font-size:6.96000004px;font-variant:normal;font-weight:bold;font-stretch:normal;writing-mode:lr-tb;fill:#000000;fill-opacity:1;fill-rule:nonzero;stroke:none;font-family:Arial;-inkscape-font-specification:Arial-BoldMT"
         x="-2.280792 2.3705759 6.6913438 9.4078321 11.73456 13.65552 15.982248 21.016417 25.278025 29.539633 32.298576 36.137711 40.016521 43.895329 45.816288 50.077896 52.058712 56.32032 60.199127 64.038261"
         y="7.9803362"
         sodipodi:role="line"
         id="tspan194">Port (Address Lines)</tspan></text>
<text
       transform="matrix(1,0,0,-1,64.98,482.82)"
       id="text196"><tspan
         style="font-size:6.96000004px;font-variant:normal;font-weight:normal;font-stretch:normal;writing-mode:lr-tb;fill:#000000;fill-opacity:1;fill-rule:nonzero;stroke:none;font-family:Arial;-inkscape-font-specification:ArialMT"
         x="0 3.8948159 7.3998718 12.067248 13.988208 19.038383 22.933201 26.828016 31.105633 34.610687 38.505505 42.400318 46.295135 52.11787 57.168049 61.007183 64.902 77.741112 81.580246 94.59893 98.493744 102.33288 115.35156 119.25055 130.34967 134.24866 145.94772 158.30659 175.82561 194.54453 198.43935 200.36031 202.34113 221.06004 239.83882 254.83762 269.89627"
         y="0"
         sodipodi:role="line"
         id="tspan198">dsPIC33FJ128MC8044412816265446, 22221</tspan><tspan
         style="font-size:6.96000004px;font-variant:normal;font-weight:normal;font-stretch:normal;writing-mode:lr-tb;fill:#000000;fill-opacity:1;fill-rule:nonzero;stroke:none;font-family:Arial;-inkscape-font-specification:ArialMT"
         x="283.97983"
         y="0.95978397"
         id="tspan200">3</tspan><tspan
         style="font-size:6.96000004px;font-variant:normal;font-weight:normal;font-stretch:normal;writing-mode:lr-tb;fill:#000000;fill-opacity:1;fill-rule:nonzero;stroke:none;font-family:Arial;-inkscape-font-specification:ArialMT"
         x="297.83997 309.7186 322.8577 341.63647 361.85529 378.77432 382.67334 384.5943 405.53345 408.89233 427.31128 431.21027 445.00919 450.4707 454.7316"
         y="0"
         sodipodi:role="line"
         id="tspan202">111911/11135QFN</tspan><tspan
         style="font-size:6.96000004px;font-variant:normal;font-weight:normal;font-stretch:normal;writing-mode:lr-tb;fill:#000000;fill-opacity:1;fill-rule:nonzero;stroke:none;font-family:Arial;-inkscape-font-specification:ArialMT"
         x="443.10004 447.36096 452.82178 457.0827"
         y="7.9803362"
         sodipodi:role="line"
         id="tspan204">TQFP</tspan><tspan
         style="font-size:6.96000004px;font-variant:normal;font-weight:normal;font-stretch:normal;writing-mode:lr-tb;fill:#000000;fill-opacity:1;fill-rule:nonzero;stroke:none;font-family:Arial;-inkscape-font-specification:ArialMT"
         x="-0 3.893424 7.3970881 12.063072 13.984032 19.032816 22.926241 26.819664 31.095888 34.599552 38.492977 42.386398 46.279823 52.10117 57.149952 60.989086 64.882515 77.721626 81.56076 94.579437 98.472862 102.312 115.33068 119.22968 130.32878 134.22778 145.92683 158.28571 175.80473 194.52365 198.41707 200.33803 202.31885 221.03777 239.81654 254.81534 269.87399 283.97287 297.83163 309.71027 322.84933 341.62811 361.84692 378.76599 382.66498 384.58594 407.20523 427.30432 431.20331 444.22198 448.90192 453.95068 455.87164"
         y="19.980072"
         sodipodi:role="line"
         id="tspan206">dsPIC33FJ128MC8022812816165446, 222213111601/0221SDIP</tspan><tspan
         style="font-size:6.96000004px;font-variant:normal;font-weight:normal;font-stretch:normal;writing-mode:lr-tb;fill:#000000;fill-opacity:1;fill-rule:nonzero;stroke:none;font-family:Arial;-inkscape-font-specification:ArialMT"
         x="443.88025 448.56503 453.966 455.94333"
         y="27.959711"
         sodipodi:role="line"
         id="tspan208">SOIC</tspan><tspan
         style="font-size:6.96000004px;font-variant:normal;font-weight:normal;font-stretch:normal;writing-mode:lr-tb;fill:#000000;fill-opacity:1;fill-rule:nonzero;stroke:none;font-family:Arial;-inkscape-font-specification:ArialMT"
         x="441.54031 446.98721 451.24811 456.30527 458.65494"
         y="35.999905"
         sodipodi:role="line"
         id="tspan210">QFN-S</tspan><tspan
         style="font-size:6.96000004px;font-variant:normal;font-weight:normal;font-stretch:normal;writing-mode:lr-tb;fill:#000000;fill-opacity:1;fill-rule:nonzero;stroke:none;font-family:Arial;-inkscape-font-specification:ArialMT"
         x="0 3.89412 7.3984799 12.06516 13.98612 19.035601 22.92972 26.823839 31.10076 34.605122 38.499241 42.39336 46.287479 52.10952 57.159 60.998135 64.892258 77.731369 81.570503 94.589188 98.483307 102.32244 117.26138 130.34062 134.23474 145.93381 158.29268 175.81169 194.53061 198.4296 200.35056 202.33138 221.05029 239.82907 254.82787 269.88654 283.98541 297.84415 309.72278 322.86188 341.64066 361.85944 378.7785 382.67749 384.59845 405.53763 408.89651 427.31546 431.20959 445.00848 450.44772 454.72464"
         y="47.999641"
         sodipodi:role="line"
         id="tspan212">dsPIC33FJ128MC204441288265446, 222203111901/11135QFN</tspan><tspan
         style="font-size:6.96000004px;font-variant:normal;font-weight:normal;font-stretch:normal;writing-mode:lr-tb;fill:#000000;fill-opacity:1;fill-rule:nonzero;stroke:none;font-family:Arial;-inkscape-font-specification:ArialMT"
         x="443.10004 447.36096 452.82178 457.0827"
         y="55.979977"
         sodipodi:role="line"
         id="tspan214">TQFP</tspan><tspan
         style="font-size:6.96000004px;font-variant:normal;font-weight:normal;font-stretch:normal;writing-mode:lr-tb;fill:#000000;fill-opacity:1;fill-rule:nonzero;stroke:none;font-family:Arial;-inkscape-font-specification:ArialMT"
         x="0 3.8927281 7.3956962 12.060984 13.981944 19.030031 22.92276 26.815489 31.091017 34.593983 38.486713 42.37944 46.272167 52.092815 57.140903 60.980042 64.872765 77.711884 81.551018 94.569695 98.462425 102.30156 117.2405 130.31973 134.21246 145.91153 158.2704 175.78941 194.50833 198.40733 200.32829 202.3091 221.02803 239.80679 254.8056 269.86426 283.96313 297.82187 309.7005 322.8396 341.61838 361.83719 378.75623 382.65524 384.5762 407.1955 427.29459 431.19357 444.21225 448.89215 453.94025 455.86121"
         y="67.979713"
         sodipodi:role="line"
         id="tspan216">dsPIC33FJ128MC202281288165446, 222203111601/0221SDIP</tspan><tspan
         style="font-size:6.96000004px;font-variant:normal;font-weight:normal;font-stretch:normal;writing-mode:lr-tb;fill:#000000;fill-opacity:1;fill-rule:nonzero;stroke:none;font-family:Arial;-inkscape-font-specification:ArialMT"
         x="443.88025 448.56503 453.966 455.94333"
         y="75.960045"
         sodipodi:role="line"
         id="tspan218">SOIC</tspan><tspan
         style="font-size:6.96000004px;font-variant:normal;font-weight:normal;font-stretch:normal;writing-mode:lr-tb;fill:#000000;fill-opacity:1;fill-rule:nonzero;stroke:none;font-family:Arial;-inkscape-font-specification:ArialMT"
         x="441.54031 446.98721 451.24811 456.30527 458.65494"
         y="84.000237"
         sodipodi:role="line"
         id="tspan220">QFN-S</tspan><tspan
         style="font-size:6.96000004px;font-variant:normal;font-weight:normal;font-stretch:normal;writing-mode:lr-tb;fill:#000000;fill-opacity:1;fill-rule:nonzero;stroke:none;font-family:Arial;-inkscape-font-specification:ArialMT"
         x="0 3.8948159 7.3998718 12.067248 13.988208 19.038383 22.933201 26.828016 31.105633 34.610687 38.505505 42.400318 48.223057 53.273232 57.168049 61.007183 77.745987 81.585121 96.524063 100.41888 115.35783 119.25264 130.35175 134.24657 145.94563 158.3045 175.82352 194.54243 198.44144 200.3624 202.3432 221.06213 239.8409 254.83971 269.89835 283.99722 297.85599 309.73462 322.87372 341.65247 361.87128 378.79034 382.68933 384.61029 405.54947 408.90836 427.3273 431.22211 445.021 450.46094 454.73856"
         y="95.999977"
         sodipodi:role="line"
         id="tspan222">dsPIC33FJ64MC804446416265446, 222213111911/11135QFN</tspan><tspan
         style="font-size:6.96000004px;font-variant:normal;font-weight:normal;font-stretch:normal;writing-mode:lr-tb;fill:#000000;fill-opacity:1;fill-rule:nonzero;stroke:none;font-family:Arial;-inkscape-font-specification:ArialMT"
         x="443.10004 447.36096 452.82178 457.0827"
         y="103.98031"
         sodipodi:role="line"
         id="tspan224">TQFP</tspan><tspan
         style="font-size:6.96000004px;font-variant:normal;font-weight:normal;font-stretch:normal;writing-mode:lr-tb;fill:#000000;fill-opacity:1;fill-rule:nonzero;stroke:none;font-family:Arial;-inkscape-font-specification:ArialMT"
         x="0 3.8927281 7.3956962 12.060984 13.981944 19.030031 22.92276 26.815489 31.091017 34.593983 38.486713 42.37944 48.200089 53.248177 57.140903 60.980042 77.718842 81.557976 96.496918 100.38965 115.32859 119.22132 130.32043 134.21317 145.91223 158.2711 175.79012 194.50903 198.40802 200.32898 202.3098 221.02872 239.8075 254.80629 269.86496 283.96384 297.82257 309.7012 322.8403 341.61908 361.83786 378.75693 382.65591 384.57687 407.1962 427.29529 431.19427 444.21295 448.89285 453.94095 455.86191"
         y="115.98005"
         sodipodi:role="line"
         id="tspan226">dsPIC33FJ64MC802286416165446, 222213111601/0221SDIP</tspan><tspan
         style="font-size:6.96000004px;font-variant:normal;font-weight:normal;font-stretch:normal;writing-mode:lr-tb;fill:#000000;fill-opacity:1;fill-rule:nonzero;stroke:none;font-family:Arial;-inkscape-font-specification:ArialMT"
         x="443.88025 448.56503 453.966 455.94333"
         y="123.96038"
         sodipodi:role="line"
         id="tspan228">SOIC</tspan><tspan
         style="font-size:6.96000004px;font-variant:normal;font-weight:normal;font-stretch:normal;writing-mode:lr-tb;fill:#000000;fill-opacity:1;fill-rule:nonzero;stroke:none;font-family:Arial;-inkscape-font-specification:ArialMT"
         x="441.54031 446.98721 451.24811 456.30527 458.65494"
         y="132.00058"
         sodipodi:role="line"
         id="tspan230">QFN-S</tspan><tspan
         style="font-size:6.96000004px;font-variant:normal;font-weight:normal;font-stretch:normal;writing-mode:lr-tb;fill:#000000;fill-opacity:1;fill-rule:nonzero;stroke:none;font-family:Arial;-inkscape-font-specification:ArialMT"
         x="0 3.8955121 7.4012642 12.069336 13.990296 19.041168 22.93668 26.832191 31.110504 34.616257 38.511768 42.40728 48.230713 53.281586 57.177097 61.016232 77.755035 81.59417 96.533112 100.42863 117.28783 130.36707 134.26605 145.96512 158.32399 175.843 194.56194 198.45744 200.3784 202.35922 221.07814 239.85692 254.85571 269.91437 284.01324 297.87198 309.75061 322.88971 341.66849 361.8873 378.80637 382.70535 384.62631 405.56546 408.92435 427.34329 431.23883 445.03772 450.47833 454.75665"
         y="144.00031"
         sodipodi:role="line"
         id="tspan232">dsPIC33FJ64MC20444648265446, 222203111901/11135QFN</tspan><tspan
         style="font-size:6.96000004px;font-variant:normal;font-weight:normal;font-stretch:normal;writing-mode:lr-tb;fill:#000000;fill-opacity:1;fill-rule:nonzero;stroke:none;font-family:Arial;-inkscape-font-specification:ArialMT"
         x="443.10004 447.36096 452.82178 457.0827"
         y="151.98065"
         sodipodi:role="line"
         id="tspan234">TQFP</tspan><tspan
         style="font-size:6.96000004px;font-variant:normal;font-weight:normal;font-stretch:normal;writing-mode:lr-tb;fill:#000000;fill-opacity:1;fill-rule:nonzero;stroke:none;font-family:Arial;-inkscape-font-specification:ArialMT"
         x="0 3.893424 7.3970881 12.063072 13.984032 19.032816 22.926241 26.819664 31.095888 34.599552 38.492977 42.386398 48.207745 53.256527 57.149952 60.989086 77.72789 81.567024 96.505966 100.39939 117.2586 130.33783 134.23682 145.93588 158.29475 175.81378 194.5327 198.42612 200.34708 202.3279 221.04681 239.82559 254.82439 269.88306 283.98193 297.84067 309.7193 322.8584 341.63718 361.85596 378.77502 382.67401 384.59497 407.21429 427.31339 431.21237 444.23105 448.91095 453.95975 455.88071"
         y="163.98038"
         sodipodi:role="line"
         id="tspan236">dsPIC33FJ64MC20228648165446, 222203111601/0221SDIP</tspan><tspan
         style="font-size:6.96000004px;font-variant:normal;font-weight:normal;font-stretch:normal;writing-mode:lr-tb;fill:#000000;fill-opacity:1;fill-rule:nonzero;stroke:none;font-family:Arial;-inkscape-font-specification:ArialMT"
         x="443.88025 448.56503 453.966 455.94333"
         y="171.96072"
         sodipodi:role="line"
         id="tspan238">SOIC</tspan><tspan
         style="font-size:6.96000004px;font-variant:normal;font-weight:normal;font-stretch:normal;writing-mode:lr-tb;fill:#000000;fill-opacity:1;fill-rule:nonzero;stroke:none;font-family:Arial;-inkscape-font-specification:ArialMT"
         x="441.54031 446.98721 451.24811 456.30527 458.65494"
         y="180.00092"
         sodipodi:role="line"
         id="tspan240">QFN-S</tspan><tspan
         style="font-size:6.96000004px;font-variant:normal;font-weight:normal;font-stretch:normal;writing-mode:lr-tb;fill:#000000;fill-opacity:1;fill-rule:nonzero;stroke:none;font-family:Arial;-inkscape-font-specification:ArialMT"
         x="0 3.8955121 7.4012642 12.069336 13.990296 19.041168 22.93668 26.832191 31.110504 34.616257 38.511768 42.40728 48.230713 53.281586 57.177097 61.016232 77.755035 81.59417 96.533112 100.42863 117.28783 130.36707 134.26605 145.96512 158.32399 175.843 194.56194 198.45744 200.3784 202.35922 221.07814 239.85692 254.85571 269.91437 284.01324 297.87198 309.75061 322.88971 341.66849 361.8873 378.80637 382.70535 384.62631 405.56546 408.92435 427.34329 431.23883 445.03772 450.47833 454.75665"
         y="192.00066"
         sodipodi:role="line"
         id="tspan242">dsPIC33FJ32MC30444324265446, 222203111901/11135QFN</tspan><tspan
         style="font-size:6.96000004px;font-variant:normal;font-weight:normal;font-stretch:normal;writing-mode:lr-tb;fill:#000000;fill-opacity:1;fill-rule:nonzero;stroke:none;font-family:Arial;-inkscape-font-specification:ArialMT"
         x="443.10004 447.36096 452.82178 457.0827"
         y="199.98099"
         sodipodi:role="line"
         id="tspan244">TQFP</tspan><tspan
         style="font-size:6.96000004px;font-variant:normal;font-weight:normal;font-stretch:normal;writing-mode:lr-tb;fill:#000000;fill-opacity:1;fill-rule:nonzero;stroke:none;font-family:Arial;-inkscape-font-specification:ArialMT"
         x="0 3.893424 7.3970881 12.063072 13.984032 19.032816 22.926241 26.819664 31.095888 34.599552 38.492977 42.386398 48.207745 53.256527 57.149952 60.989086 77.72789 81.567024 96.505966 100.39939 117.2586 130.33783 134.23682 145.93588 158.29475 175.81378 194.5327 198.42612 200.34708 202.3279 221.04681 239.82559 254.82439 269.88306 283.98193 297.84067 309.7193 322.8584 341.63718 361.85596 378.77502 382.67401 384.59497 407.21429 427.31339 431.21237 444.23105 448.91095 453.95975 455.88071"
         y="211.98071"
         sodipodi:role="line"
         id="tspan246">dsPIC33FJ32MC30228324165446, 222203111601/0221SDIP</tspan><tspan
         style="font-size:6.96000004px;font-variant:normal;font-weight:normal;font-stretch:normal;writing-mode:lr-tb;fill:#000000;fill-opacity:1;fill-rule:nonzero;stroke:none;font-family:Arial;-inkscape-font-specification:ArialMT"
         x="443.88025 448.56503 453.966 455.94333"
         y="220.0209"
         sodipodi:role="line"
         id="tspan248">SOIC</tspan><tspan
         style="font-size:6.96000004px;font-variant:normal;font-weight:normal;font-stretch:normal;writing-mode:lr-tb;fill:#000000;fill-opacity:1;fill-rule:nonzero;stroke:none;font-family:Arial;-inkscape-font-specification:ArialMT"
         x="441.54031 446.98721 451.24811 456.30527 458.65494"
         y="228.00125"
         sodipodi:role="line"
         id="tspan250">QFN-S</tspan></text>
<text
       transform="matrix(1,0,0,-1,64.98,244.79844)"
       id="text252"><tspan
         style="font-size:6.96000004px;font-variant:normal;font-weight:bold;font-stretch:normal;writing-mode:lr-tb;fill:#000000;fill-opacity:1;fill-rule:nonzero;stroke:none;font-family:Arial;-inkscape-font-specification:Arial-BoldMT"
         x="0 5.046 9.3194399 11.658 25.216776 29.107416"
         y="0"
         sodipodi:role="line"
         id="tspan254">Note1:</tspan></text>
<text
       transform="matrix(1,0,0,-1,108.18002,244.79844)"
       id="text256"><tspan
         style="font-size:6.96000004px;font-variant:normal;font-weight:normal;font-stretch:normal;writing-mode:lr-tb;fill:#000000;fill-opacity:1;fill-rule:nonzero;stroke:none;font-family:Arial;-inkscape-font-specification:ArialMT"
         x="0 5.04252 9.70224 15.51732 17.43828 20.978136 22.476624 26.016479 29.855616 31.836432 33.398952 36.896351 38.81731 40.379833 44.266991 47.764393 49.326912 53.214073 56.711472 58.273991 61.771393 65.658554 67.579514 71.466675 73.418953 75.399765 81.219025 85.898926 89.738068 93.277924 95.230202 99.117363 102.61476 104.53572 108.42288 110.37516 112.29612 117.33864 123.15372 127.81344 129.73441 134.77692 139.43665 145.25172 147.17268 149.12495 152.9641 155.29918 157.28 161.11913 162.68164 164.24417 166.22568 170.06482 173.96381 177.46121 179.02373 182.52113 186.40829 189.90569 191.88023 195.77435 199.27872 202.78308 206.6772 210.57132 212.49228 214.41324 218.30736 221.81172 226.47839 228.39935 233.44884 237.34296 241.23708 245.51401 249.01836 252.91248 256.80661 262.62863 267.67813 271.57224 275.46637 279.30548 281.26474 285.10388 288.99799 292.89212 294.81308 296.79388 301.84335 305.69989 307.26801 310.77097 314.6637 316.58466 318.15274 322.04547 325.54843 327.11652 330.95566 334.84839 338.74112 340.66208 346.48132 351.16122 355.05396 358.55692 360.51477 364.35391 366.33542 370.17456 372.15607 374.07703 379.12512 384.94577 389.61105 391.53201 396.58011 401.24539 407.06604"
         y="0"
         sodipodi:role="line"
         id="tspan258">RAM size is inclusive of 2Kbytes of DMA RAM for all devices except dsPIC33FJ32MC302/304, which include 1Kbyte of DMA RAM.</tspan></text>
<text
       transform="matrix(1,0,0,-1,90.180072,235.79846)"
       id="text260"><tspan
         style="font-size:6.96000004px;font-variant:normal;font-weight:bold;font-stretch:normal;writing-mode:lr-tb;fill:#000000;fill-opacity:1;fill-rule:nonzero;stroke:none;font-family:Arial;-inkscape-font-specification:Arial-BoldMT"
         x="0 3.8989921"
         y="0"
         sodipodi:role="line"
         id="tspan262">2:</tspan></text>
<text
       transform="matrix(1,0,0,-1,108.18002,235.79846)"
       id="text264"><tspan
         style="font-size:6.96000004px;font-variant:normal;font-weight:normal;font-stretch:normal;writing-mode:lr-tb;fill:#000000;fill-opacity:1;fill-rule:nonzero;stroke:none;font-family:Arial;-inkscape-font-specification:ArialMT"
         x="0 5.4441118 9.3431044 10.842288 14.38284 16.304497 18.226152 22.125143 26.024136 28.371048 30.292704 34.191696 38.090687 40.012344 41.933998 45.832993 47.797104 49.718761 51.640415 53.200153 56.709385 60.608376 62.58989 64.511543 66.071281 71.898193 75.797188 78.077972 81.61853 83.540184 87.439178 89.786087 93.625923 95.608131 97.888924 101.7886 107.61552 111.51451 115.41351 119.19279 123.09177 126.93161 128.50597 132.40495 134.32661"
         y="0"
         sodipodi:role="line"
         id="tspan266">Only four out of five timers are remappable. </tspan></text>
<text
       transform="matrix(1,0,0,-1,90.180072,226.79849)"
       id="text268"><tspan
         style="font-size:6.96000004px;font-variant:normal;font-weight:bold;font-stretch:normal;writing-mode:lr-tb;fill:#000000;fill-opacity:1;fill-rule:nonzero;stroke:none;font-family:Arial;-inkscape-font-specification:Arial-BoldMT"
         x="0 3.8989921"
         y="0"
         sodipodi:role="line"
         id="tspan270">3:</tspan></text>
<text
       transform="matrix(1,0,0,-1,108.18002,226.79849)"
       id="text272"><tspan
         style="font-size:6.96000004px;font-variant:normal;font-weight:normal;font-stretch:normal;writing-mode:lr-tb;fill:#000000;fill-opacity:1;fill-rule:nonzero;stroke:none;font-family:Arial;-inkscape-font-specification:ArialMT"
         x="0 5.4615121 9.3605042 10.877784 14.41764 16.3386 21.018503 27.619368 33.43932 35.360279 37.267319 41.166313 45.065304 46.624344 48.531384 50.512897 54.354816 55.913857 59.812847 63.292847 65.274361 69.11628 71.45623 75.355225 77.276184 79.616135 83.515129 89.335083 93.23407 97.075989 100.91792 104.75983 108.65882 110.21786 114.11686"
         y="0"
         sodipodi:role="line"
         id="tspan274">Only PWM fault pins are remappable.</tspan></text>
<text
       transform="matrix(1,0,0,-1,90.180072,217.79851)"
       id="text276"><tspan
         style="font-size:6.96000004px;font-variant:normal;font-weight:bold;font-stretch:normal;writing-mode:lr-tb;fill:#000000;fill-opacity:1;fill-rule:nonzero;stroke:none;font-family:Arial;-inkscape-font-specification:Arial-BoldMT"
         x="0 3.8989921"
         y="0"
         sodipodi:role="line"
         id="tspan278">4:</tspan></text>
<text
       transform="matrix(1,0,0,-1,108.18002,217.79851)"
       id="text280"><tspan
         style="font-size:6.96000004px;font-variant:normal;font-weight:normal;font-stretch:normal;writing-mode:lr-tb;fill:#000000;fill-opacity:1;fill-rule:nonzero;stroke:none;font-family:Arial;-inkscape-font-specification:ArialMT"
         x="0 5.4420242 9.3389282 10.837416 14.377272 16.298231 18.219193 23.318089 27.157225 29.138041 32.977177 36.876167 38.838192 40.759151 44.656055 46.577015 48.497974 50.459999 54.356903 56.637001 60.533905 64.430809 66.351768 67.924034 71.820938 73.741898 77.640884 79.98571 82.330536 86.16967 90.066574 91.927681 95.434822 97.416336 101.25547 103.59542 107.49232 109.41328 111.75811 115.65501 121.47984 125.37675 129.21588 132.99446 136.89137 140.78827 142.36053 146.25745"
         y="0"
         sodipodi:role="line"
         id="tspan282">Only two out of three interrupts are remappable.</tspan></text>
<path
       d="m 62.76,251.76 0.48,0 0,350.52 -0.48,0 0,-350.52 z"
       style="fill:#000000;fill-opacity:1;fill-rule:nonzero;stroke:none"
       id="path284"
       inkscape:connector-curvature="0" /><path
       d="m 138.78,251.22 0.48,0 0,351.54 -0.48,0 0,-351.54 z"
       style="fill:#000000;fill-opacity:1;fill-rule:nonzero;stroke:none"
       id="path286"
       inkscape:connector-curvature="0" /><path
       d="m 153.84,251.22 0.48,0 0,351.54 -0.48,0 0,-351.54 z"
       style="fill:#000000;fill-opacity:1;fill-rule:nonzero;stroke:none"
       id="path288"
       inkscape:connector-curvature="0" /><path
       d="m 176.46,251.22 0.48001,0 0,351.54 -0.48001,0 0,-351.54 z"
       style="fill:#000000;fill-opacity:1;fill-rule:nonzero;stroke:none"
       id="path290"
       inkscape:connector-curvature="0" /><path
       d="m 191.46,251.22 0.47998,0 0,351.54 -0.47998,0 0,-351.54 z"
       style="fill:#000000;fill-opacity:1;fill-rule:nonzero;stroke:none"
       id="path292"
       inkscape:connector-curvature="0" /><path
       d="m 206.46,251.22 0.47998,0 0,341.52 -0.47998,0 0,-341.52 z"
       style="fill:#000000;fill-opacity:1;fill-rule:nonzero;stroke:none"
       id="path294"
       inkscape:connector-curvature="0" /><path
       d="m 218.7,251.22 0.48001,0 0,341.52 -0.48001,0 0,-341.52 z"
       style="fill:#000000;fill-opacity:1;fill-rule:nonzero;stroke:none"
       id="path296"
       inkscape:connector-curvature="0" /><path
       d="m 231.18,251.22 0.47998,0 0,341.52 -0.47998,0 0,-341.52 z"
       style="fill:#000000;fill-opacity:1;fill-rule:nonzero;stroke:none"
       id="path298"
       inkscape:connector-curvature="0" /><path
       d="m 253.8,251.22 0.48,0 0,341.52 -0.48,0 0,-341.52 z"
       style="fill:#000000;fill-opacity:1;fill-rule:nonzero;stroke:none"
       id="path300"
       inkscape:connector-curvature="0" /><path
       d="m 276.42,251.22 0.47998,0 0,341.52 -0.47998,0 0,-341.52 z"
       style="fill:#000000;fill-opacity:1;fill-rule:nonzero;stroke:none"
       id="path302"
       inkscape:connector-curvature="0" /><path
       d="m 299.04,251.22 0.47998,0 0,341.52 -0.47998,0 0,-341.52 z"
       style="fill:#000000;fill-opacity:1;fill-rule:nonzero;stroke:none"
       id="path304"
       inkscape:connector-curvature="0" /><path
       d="m 314.04,251.22 0.47998,0 0,341.52 -0.47998,0 0,-341.52 z"
       style="fill:#000000;fill-opacity:1;fill-rule:nonzero;stroke:none"
       id="path306"
       inkscape:connector-curvature="0" /><path
       d="m 329.04,251.22 0.47998,0 0,341.52 -0.47998,0 0,-341.52 z"
       style="fill:#000000;fill-opacity:1;fill-rule:nonzero;stroke:none"
       id="path308"
       inkscape:connector-curvature="0" /><path
       d="m 344.04,251.22 0.47998,0 0,341.52 -0.47998,0 0,-341.52 z"
       style="fill:#000000;fill-opacity:1;fill-rule:nonzero;stroke:none"
       id="path310"
       inkscape:connector-curvature="0" /><path
       d="m 358.26,251.22 0.47998,0 0,351.54 -0.47998,0 0,-351.54 z"
       style="fill:#000000;fill-opacity:1;fill-rule:nonzero;stroke:none"
       id="path312"
       inkscape:connector-curvature="0" /><path
       d="m 370.8,251.22 0.47998,0 0,351.54 -0.47998,0 0,-351.54 z"
       style="fill:#000000;fill-opacity:1;fill-rule:nonzero;stroke:none"
       id="path314"
       inkscape:connector-curvature="0" /><path
       d="m 382.02,251.22 0.48001,0 0,351.54 -0.48001,0 0,-351.54 z"
       style="fill:#000000;fill-opacity:1;fill-rule:nonzero;stroke:none"
       id="path316"
       inkscape:connector-curvature="0" /><path
       d="m 397.02,251.22 0.48001,0 0,351.54 -0.48001,0 0,-351.54 z"
       style="fill:#000000;fill-opacity:1;fill-rule:nonzero;stroke:none"
       id="path318"
       inkscape:connector-curvature="0" /><path
       d="m 419.64,251.22 0.47998,0 0,351.54 -0.47998,0 0,-351.54 z"
       style="fill:#000000;fill-opacity:1;fill-rule:nonzero;stroke:none"
       id="path320"
       inkscape:connector-curvature="0" /><path
       d="m 437.4,251.22 0.48001,0 0,351.54 -0.48001,0 0,-351.54 z"
       style="fill:#000000;fill-opacity:1;fill-rule:nonzero;stroke:none"
       id="path322"
       inkscape:connector-curvature="0" /><path
       d="m 459.42,251.22 0.47998,0 0,351.54 -0.47998,0 0,-351.54 z"
       style="fill:#000000;fill-opacity:1;fill-rule:nonzero;stroke:none"
       id="path324"
       inkscape:connector-curvature="0" /><path
       d="m 488.46,251.22 0.48001,0 0,351.54 -0.48001,0 0,-351.54 z"
       style="fill:#000000;fill-opacity:1;fill-rule:nonzero;stroke:none"
       id="path326"
       inkscape:connector-curvature="0" /><path
       d="m 503.46,251.22 0.47998,0 0,351.54 -0.47998,0 0,-351.54 z"
       style="fill:#000000;fill-opacity:1;fill-rule:nonzero;stroke:none"
       id="path328"
       inkscape:connector-curvature="0" /><path
       d="m 530.88,251.76 0.48004,0 0,350.52 -0.48004,0 0,-350.52 z"
       style="fill:#000000;fill-opacity:1;fill-rule:nonzero;stroke:none"
       id="path330"
       inkscape:connector-curvature="0" /><path
       d="m 62.76,602.28 468.6,0 0,0.47998 -468.6,0 0,-0.47998 z"
       style="fill:#000000;fill-opacity:1;fill-rule:nonzero;stroke:none"
       id="path332"
       inkscape:connector-curvature="0" /><path
       d="m 191.46,592.26 167.34,0 0,0.47998 -167.34,0 0,-0.47998 z"
       style="fill:#000000;fill-opacity:1;fill-rule:nonzero;stroke:none"
       id="path334"
       inkscape:connector-curvature="0" /><path
       d="m 63.24,492.54 467.64,0 0,0.47998 -467.64,0 0,-0.47998 z"
       style="fill:#000000;fill-opacity:1;fill-rule:nonzero;stroke:none"
       id="path336"
       inkscape:connector-curvature="0" /><path
       d="m 63.24,490.02 467.64,0 0,0.48001 -467.64,0 0,-0.48001 z"
       style="fill:#000000;fill-opacity:1;fill-rule:nonzero;stroke:none"
       id="path338"
       inkscape:connector-curvature="0" /><path
       d="m 62.76,471.24 468.6,0 0,0.47998 -468.6,0 0,-0.47998 z"
       style="fill:#000000;fill-opacity:1;fill-rule:nonzero;stroke:none"
       id="path340"
       inkscape:connector-curvature="0" /><path
       d="m 62.76,443.28 468.6,0 0,0.48001 -468.6,0 0,-0.48001 z"
       style="fill:#000000;fill-opacity:1;fill-rule:nonzero;stroke:none"
       id="path342"
       inkscape:connector-curvature="0" /><path
       d="m 62.76,423.24 468.6,0 0,0.48001 -468.6,0 0,-0.48001 z"
       style="fill:#000000;fill-opacity:1;fill-rule:nonzero;stroke:none"
       id="path344"
       inkscape:connector-curvature="0" /><path
       d="m 62.76,395.28 468.6,0 0,0.48001 -468.6,0 0,-0.48001 z"
       style="fill:#000000;fill-opacity:1;fill-rule:nonzero;stroke:none"
       id="path346"
       inkscape:connector-curvature="0" /><path
       d="m 62.76,375.24 468.6,0 0,0.48001 -468.6,0 0,-0.48001 z"
       style="fill:#000000;fill-opacity:1;fill-rule:nonzero;stroke:none"
       id="path348"
       inkscape:connector-curvature="0" /><path
       d="m 62.76,347.28 468.6,0 0,0.48001 -468.6,0 0,-0.48001 z"
       style="fill:#000000;fill-opacity:1;fill-rule:nonzero;stroke:none"
       id="path350"
       inkscape:connector-curvature="0" /><path
       d="m 62.76,327.24 468.6,0 0,0.48001 -468.6,0 0,-0.48001 z"
       style="fill:#000000;fill-opacity:1;fill-rule:nonzero;stroke:none"
       id="path352"
       inkscape:connector-curvature="0" /><path
       d="m 62.76,299.28 468.6,0 0,0.48001 -468.6,0 0,-0.48001 z"
       style="fill:#000000;fill-opacity:1;fill-rule:nonzero;stroke:none"
       id="path354"
       inkscape:connector-curvature="0" /><path
       d="m 62.76,279.24 468.6,0 0,0.48001 -468.6,0 0,-0.48001 z"
       style="fill:#000000;fill-opacity:1;fill-rule:nonzero;stroke:none"
       id="path356"
       inkscape:connector-curvature="0" /><path
       d="m 62.76,251.28 468.6,0 0,0.48 -468.6,0 0,-0.48 z"
       style="fill:#000000;fill-opacity:1;fill-rule:nonzero;stroke:none"
       id="path358"
       inkscape:connector-curvature="0" /></g></svg>