<?xml version="1.0" encoding="UTF-8" standalone="no"?>
<!-- Created with Inkscape (http://www.inkscape.org/) -->

<svg
   xmlns:dc="http://purl.org/dc/elements/1.1/"
   xmlns:cc="http://creativecommons.org/ns#"
   xmlns:rdf="http://www.w3.org/1999/02/22-rdf-syntax-ns#"
   xmlns:svg="http://www.w3.org/2000/svg"
   xmlns="http://www.w3.org/2000/svg"
   xmlns:sodipodi="http://sodipodi.sourceforge.net/DTD/sodipodi-0.dtd"
   xmlns:inkscape="http://www.inkscape.org/namespaces/inkscape"
   id="svg2"
   version="1.1"
   inkscape:version="0.48.4 r9939"
   width="338.17499"
   height="322.35001"
   xml:space="preserve"
   sodipodi:docname="paper58_compensacion_errores.svg"
   inkscape:export-filename="/media/datos/Datos/Proyectos/TFC_eurobot/references/odometria/paper58_compensacion_errores.png"
   inkscape:export-xdpi="98"
   inkscape:export-ydpi="98"><metadata
     id="metadata8"><rdf:RDF><cc:Work
         rdf:about=""><dc:format>image/svg+xml</dc:format><dc:type
           rdf:resource="http://purl.org/dc/dcmitype/StillImage" /><dc:title></dc:title></cc:Work></rdf:RDF></metadata><defs
     id="defs6"><clipPath
       clipPathUnits="userSpaceOnUse"
       id="clipPath172"><path
         d="m 339.18,456.12 128.28,0 0,5.7 -128.28,0 0,-5.7 z"
         id="path174"
         inkscape:connector-curvature="0" /></clipPath><clipPath
       clipPathUnits="userSpaceOnUse"
       id="clipPath196"><path
         d="m 288.3,456.12 49.2,0 0,42.24 -49.2,0 0,-42.24 z"
         id="path198"
         inkscape:connector-curvature="0" /></clipPath><clipPath
       clipPathUnits="userSpaceOnUse"
       id="clipPath208"><path
         d="m 477.96,456.12 57.24,0 0,46.62 -57.24,0 0,-46.62 z"
         id="path210"
         inkscape:connector-curvature="0" /></clipPath><clipPath
       clipPathUnits="userSpaceOnUse"
       id="clipPath282"><path
         d="M 0,0 8,0 8,8 0,8 0,0 z"
         id="path284"
         inkscape:connector-curvature="0" /></clipPath><pattern
       patternTransform="matrix(0.24001,0,0,0.24001,153,198)"
       patternUnits="userSpaceOnUse"
       x="0"
       y="0"
       width="8"
       height="8"
       id="pattern286"><g
         id="g288"><g
           clip-path="url(#clipPath282)"
           id="g290"><path
             d="M 0,0 8,8 M 0,-8 8,0 m -8,8 8,8"
             style="fill:none;stroke:#000000;stroke-opacity:1;stroke-width:1;stroke-linecap:square;stroke-linejoin:miter;stroke-miterlimit:10;stroke-dasharray:none"
             id="path292" /></g></g></pattern></defs><sodipodi:namedview
     pagecolor="#ffffff"
     bordercolor="#666666"
     borderopacity="1"
     objecttolerance="10"
     gridtolerance="10"
     guidetolerance="10"
     inkscape:pageopacity="0"
     inkscape:pageshadow="2"
     inkscape:window-width="1920"
     inkscape:window-height="1021"
     id="namedview4"
     showgrid="false"
     fit-margin-top="0"
     fit-margin-left="0"
     fit-margin-right="0"
     fit-margin-bottom="0"
     inkscape:zoom="1.3485026"
     inkscape:cx="-86.938816"
     inkscape:cy="131.85042"
     inkscape:window-x="0"
     inkscape:window-y="25"
     inkscape:window-maximized="1"
     inkscape:current-layer="g10" /><g
     id="g10"
     inkscape:groupmode="layer"
     inkscape:label="paper58"
     transform="matrix(1.25,0,0,-1.25,-339.6,892.5)"><g
       id="g4205"><path
         id="path184"
         style="fill:none;stroke:#008000;stroke-width:2.30599999;stroke-linecap:square;stroke-linejoin:miter;stroke-miterlimit:10;stroke-opacity:1;stroke-dasharray:none"
         d="m 402.9,675.06 -28.14,0"
         inkscape:connector-curvature="0" /><path
         id="path186"
         style="fill:#008000;fill-opacity:1;fill-rule:evenodd;stroke:#008000;stroke-width:2.30599999;stroke-linecap:square;stroke-linejoin:miter;stroke-miterlimit:10;stroke-opacity:1;stroke-dasharray:none"
         d="m 393.6,670.32 9.3,4.74 -9.3,4.56 0,-9.3 z"
         inkscape:connector-curvature="0" /><path
         id="path188"
         style="fill:none;stroke:#008000;stroke-width:2.30599999;stroke-linecap:square;stroke-linejoin:miter;stroke-miterlimit:10;stroke-opacity:1;stroke-dasharray:none"
         d="m 511.08,662.88 -0.12,2.1 -0.36,2.04 -0.48,2.04 -0.84,1.98 -0.96,1.92 -1.2,1.68 -1.38,1.74 -1.56,1.44 -1.68,1.32 -1.86,1.14 -1.92,0.96 -1.92,0.72 -2.22,0.48 -2.04,0.36 -2.22,0.12"
         inkscape:connector-curvature="0" /><path
         id="path190"
         style="fill:#008000;fill-opacity:1;fill-rule:evenodd;stroke:#008000;stroke-width:2.30599999;stroke-linecap:square;stroke-linejoin:miter;stroke-miterlimit:10;stroke-opacity:1;stroke-dasharray:none"
         d="m 505.86,671.88 5.34,-9 3.9,9.6 -9.24,-0.6 z"
         inkscape:connector-curvature="0" /><g
         id="g192"><g
           clip-path="url(#clipPath196)"
           id="g194"><path
             id="path200"
             style="fill:none;stroke:#008000;stroke-width:2.30599999;stroke-linecap:square;stroke-linejoin:miter;stroke-miterlimit:10;stroke-opacity:1;stroke-dasharray:none"
             d="m 299.22,480.18 0.12,-2.34 0.36,-2.28 0.6,-2.22 0.9,-2.04 1.08,-2.04 1.32,-1.86 1.44,-1.8 1.74,-1.44 1.8,-1.38 1.92,-1.08 2.22,-0.96 2.04,-0.6 2.34,-0.36 2.16,-0.12"
             inkscape:connector-curvature="0" /></g></g><path
         id="path202"
         style="fill:#008000;fill-opacity:1;fill-rule:evenodd;stroke:#008000;stroke-width:2.30599999;stroke-linecap:square;stroke-linejoin:miter;stroke-miterlimit:10;stroke-opacity:1;stroke-dasharray:none"
         d="m 304.44,471.18 -5.22,9 -4.02,-9.6 9.24,0.6 z"
         inkscape:connector-curvature="0" /><g
         id="g204"><g
           clip-path="url(#clipPath208)"
           id="g206"><path
             id="path212"
             style="fill:none;stroke:#008000;stroke-width:2.30599999;stroke-linecap:square;stroke-linejoin:miter;stroke-miterlimit:10;stroke-opacity:1;stroke-dasharray:none"
             d="m 496.14,464.28 2.34,0.12 2.28,0.36 2.22,0.6 2.16,0.96 2.1,1.08 1.8,1.32 1.8,1.5 1.5,1.68 1.44,1.8 1.08,2.1 0.84,2.04 0.72,2.22 0.42,2.16 0.12,2.34"
             inkscape:connector-curvature="0" /></g></g><path
         id="path214"
         style="fill:#008000;fill-opacity:1;fill-rule:evenodd;stroke:#008000;stroke-width:2.30599999;stroke-linecap:square;stroke-linejoin:miter;stroke-miterlimit:10;stroke-opacity:1;stroke-dasharray:none"
         d="m 505.14,469.5 -9,-5.34 9.72,-4.02 -0.72,9.36 z"
         inkscape:connector-curvature="0" /><text
         id="text216"
         transform="matrix(1,0,0,-1,310.38,672.96)"><tspan
           id="tspan218"
           sodipodi:role="line"
           y="0"
           x="0 8.5842896 12.87 20.025721 25.03215"
           style="font-size:12.86999989px;font-variant:normal;font-weight:bold;writing-mode:lr-tb;fill:#008080;fill-opacity:1;fill-rule:nonzero;stroke:none;font-family:Arial Black;-inkscape-font-specification:Arial Bold">Start</tspan></text>
<text
         id="text220"
         transform="matrix(1,0,0,-1,406.8,670.8)"><tspan
           id="tspan222"
           sodipodi:role="line"
           y="0"
           x="0 6.2314668 11.901999 15.2982 22.661734 28.332266 31.728466"
           style="font-size:10.19880009px;font-variant:normal;font-weight:normal;writing-mode:lr-tb;fill:#008000;fill-opacity:1;fill-rule:nonzero;stroke:none;font-family:Arial Black;-inkscape-font-specification:Arial">Forward</tspan></text>
<path
         id="path224"
         style="fill:#00ffff;fill-opacity:1;fill-rule:evenodd;stroke:#000000;stroke-width:1.57799995;stroke-linecap:square;stroke-linejoin:miter;stroke-miterlimit:10;stroke-opacity:1;stroke-dasharray:none"
         d="m 312.78,664.98 c 0,2.22 -1.8,3.96 -4.02,3.96 -2.22,0 -3.96,-1.74 -3.96,-3.96 0,-2.16 1.74,-3.96 3.96,-3.96 2.22,0 4.02,1.8 4.02,3.96 z"
         inkscape:connector-curvature="0" /><path
         id="path226"
         style="fill:none;stroke:#800080;stroke-width:0.36399999;stroke-linecap:square;stroke-linejoin:miter;stroke-miterlimit:10;stroke-opacity:1;stroke-dasharray:none"
         d="m 434.88,668.22 -39.24,-33"
         inkscape:connector-curvature="0" /><path
         id="path228"
         style="fill:none;stroke:#008000;stroke-width:1.57799995;stroke-linecap:square;stroke-linejoin:miter;stroke-miterlimit:10;stroke-opacity:1;stroke-dasharray:none"
         d="m 308.94,664.62 0,-192.24"
         inkscape:connector-curvature="0" /><path
         id="path230"
         style="fill:none;stroke:#ff00ff;stroke-width:1.5776;stroke-linecap:square;stroke-linejoin:miter;stroke-miterlimit:10;stroke-opacity:1;stroke-dasharray:9.4656, 3.1552;stroke-dashoffset:0"
         d="m 308.94,664.62 16.5,0.12 14.58,0.12 13.14,0 11.64,0.12 10.56,0.24 9.72,0.24 9.24,0.24 9.06,0.36 9,0.48 9.36,0.6 9.96,0.72 10.8,0.84 11.88,1.14 13.38,1.08 14.94,1.44 17.1,1.44"
         inkscape:connector-curvature="0" /><path
         id="path232"
         style="fill:none;stroke:#000000;stroke-width:0.06;stroke-linecap:square;stroke-linejoin:miter;stroke-miterlimit:10;stroke-opacity:1;stroke-dasharray:8.64, 5.76, 2.88, 5.76;stroke-dashoffset:0"
         d="m 499.8,673.8 40.08,3.78"
         inkscape:connector-curvature="0" /><path
         id="path234"
         style="fill:none;stroke:#008000;stroke-width:1.57799995;stroke-linecap:square;stroke-linejoin:miter;stroke-miterlimit:10;stroke-opacity:1;stroke-dasharray:none"
         d="m 501,664.62 -192.06,0 M 501,472.38 l 0,192.24 m -192.06,-192.24 192.06,0"
         inkscape:connector-curvature="0" /><path
         id="path236"
         style="fill:#00ffff;fill-opacity:1;fill-rule:evenodd;stroke:#000000;stroke-width:1.21399999;stroke-linecap:square;stroke-linejoin:miter;stroke-miterlimit:10;stroke-opacity:1;stroke-dasharray:none"
         d="m 352.92,676.62 8.1,0 0,-1.2 -8.1,0 0,1.2 z"
         inkscape:connector-curvature="0" /><path
         id="path238"
         style="fill:#00ffff;fill-opacity:1;fill-rule:evenodd;stroke:#000000;stroke-width:1.21399999;stroke-linecap:square;stroke-linejoin:miter;stroke-miterlimit:10;stroke-opacity:1;stroke-dasharray:none"
         d="m 352.92,652.68 8.1,0 0,1.2 -8.1,0 0,-1.2 z"
         inkscape:connector-curvature="0" /><path
         id="path240"
         style="fill:#c0c0c0;fill-opacity:1;fill-rule:evenodd;stroke:#000000;stroke-width:1.21399999;stroke-linecap:square;stroke-linejoin:miter;stroke-miterlimit:10;stroke-opacity:1;stroke-dasharray:none"
         d="m 384.96,664.62 -27.84,-10.74 0,21.54 27.84,-10.8 z"
         inkscape:connector-curvature="0" /><text
         id="text242"
         transform="matrix(1,0,0,-1,320.94,648.78)"><tspan
           id="tspan244"
           sodipodi:role="line"
           y="0"
           x="0 8.5842896 16.447861"
           style="font-size:12.86999989px;font-variant:normal;font-weight:bold;writing-mode:lr-tb;fill:#008080;fill-opacity:1;fill-rule:nonzero;stroke:none;font-family:Arial Black;-inkscape-font-specification:Arial Bold">End</tspan></text>
<path
         id="path246"
         style="fill:none;stroke:#000000;stroke-width:0.06;stroke-linecap:square;stroke-linejoin:miter;stroke-miterlimit:10;stroke-opacity:1;stroke-dasharray:none"
         d="m 308.94,664.62 9.96,7.26 m 0.6,-13.38 -10.56,6.12"
         inkscape:connector-curvature="0" /><path
         id="path248"
         style="fill:none;stroke:#ff00ff;stroke-width:1.5776;stroke-linecap:square;stroke-linejoin:miter;stroke-miterlimit:10;stroke-opacity:1;stroke-dasharray:6.3104, 3.1552;stroke-dashoffset:0"
         d="m 499.8,673.8 0,-16.5 0.12,-14.58 0,-12.96 0.12,-11.7 0.24,-10.68 0.24,-9.66 0.24,-9.24 0.36,-9 0.54,-9.12 0.6,-9.36 0.72,-9.84 0.96,-10.8 0.96,-11.88 1.2,-13.38 1.38,-15 1.68,-17.16 m 0,0 -16.62,0 -14.58,-0.12 -13.14,0 -11.64,-0.12 -10.56,-0.24 -9.72,-0.24 -9.24,-0.24 -9.06,-0.36 -9,-0.48 -9.36,-0.6 -9.96,-0.72 -10.8,-0.9 -11.88,-1.08 -13.38,-1.08 -14.94,-1.44 -16.98,-1.62 m 0,0 -0.12,16.68 -0.12,14.52 0,13.02 -0.12,11.64 -0.24,10.68 -0.24,9.72 -0.24,9.24 -0.36,9 -0.54,9.12 -0.6,9.3 -0.72,9.84 -0.96,10.8 -0.96,11.94 -1.2,13.32 -2.94,32.1"
         inkscape:connector-curvature="0" /><path
         id="path250"
         style="fill:none;stroke:#800000;stroke-width:0.36399999;stroke-linecap:square;stroke-linejoin:miter;stroke-miterlimit:10;stroke-opacity:1;stroke-dasharray:none"
         d="m 459.24,570.24 48.96,-87.18 m -49.8,109.44 40.44,80.94"
         inkscape:connector-curvature="0" /><path
         id="path252"
         style="fill:none;stroke:#800080;stroke-width:0.36399999;stroke-linecap:square;stroke-linejoin:miter;stroke-miterlimit:10;stroke-opacity:1;stroke-dasharray:none"
         d="m 315.96,566.1 37.8,32.58 m -0.48,-0.36 49.38,-117.06"
         inkscape:connector-curvature="0" /><text
         id="text254"
         transform="matrix(1,0,0,-1,398.04,507.96)"><tspan
           id="tspan256"
           sodipodi:role="line"
           y="0"
           x="0 6.8025994 10.1988 15.869333 19.265533 24.936066 28.332266 34.0028 39.673332 43.069534 48.740067 57.235664 65.731262 71.401802"
           style="font-size:10.19880009px;font-variant:normal;font-weight:normal;writing-mode:lr-tb;fill:#008000;fill-opacity:1;fill-rule:nonzero;stroke:none;font-family:Arial Black;-inkscape-font-specification:Arial">Pre-programmed</tspan><tspan
           id="tspan258"
           sodipodi:role="line"
           y="9.1197672"
           x="0 5.0994 10.769933 16.440466 22.110998 25.507198 31.177732 34.012997 39.683529 45.354065 48.189331 53.859863 56.695129 59.530396 65.200928 73.696526 76.531792 81.631195 84.466461 90.136993 98.632591"
           style="font-size:10.19880009px;font-variant:normal;font-weight:normal;writing-mode:lr-tb;fill:#008000;fill-opacity:1;fill-rule:nonzero;stroke:none;font-family:Arial Black;-inkscape-font-specification:Arial">square path, 4m x 4m.</tspan></text>
<path
         id="path260"
         style="fill:none;stroke:#000000;stroke-width:0.06;stroke-linecap:square;stroke-linejoin:miter;stroke-miterlimit:10;stroke-opacity:1;stroke-dasharray:none"
         d="m 428.04,472.38 2.82,24.9"
         inkscape:connector-curvature="0" /><path
         id="path262"
         style="fill:#00ffff;fill-opacity:1;fill-rule:evenodd;stroke:#000000;stroke-width:1.21399999;stroke-linecap:square;stroke-linejoin:miter;stroke-miterlimit:10;stroke-opacity:1;stroke-dasharray:none"
         d="m 475.92,471.78 7.98,0 0,-1.2 -7.98,0 0,1.2 z"
         inkscape:connector-curvature="0" /><path
         id="path264"
         style="fill:#00ffff;fill-opacity:1;fill-rule:evenodd;stroke:#000000;stroke-width:1.21399999;stroke-linecap:square;stroke-linejoin:miter;stroke-miterlimit:10;stroke-opacity:1;stroke-dasharray:none"
         d="m 475.92,493.38 7.98,0 0,1.08 -7.98,0 0,-1.08 z"
         inkscape:connector-curvature="0" /><path
         id="path266"
         style="fill:#c0c0c0;fill-opacity:1;fill-rule:evenodd;stroke:#000000;stroke-width:1.21399999;stroke-linecap:square;stroke-linejoin:miter;stroke-miterlimit:10;stroke-opacity:1;stroke-dasharray:none"
         d="m 451.86,482.58 27.78,10.8 0,-21.6 -27.78,10.8 z"
         inkscape:connector-curvature="0" /><path
         id="path268"
         style="fill:#00ffff;fill-opacity:1;fill-rule:evenodd;stroke:#000000;stroke-width:1.21399999;stroke-linecap:square;stroke-linejoin:miter;stroke-miterlimit:10;stroke-opacity:1;stroke-dasharray:none"
         d="m 305.88,526.08 1.26,0 0,-8.04 -1.26,0 0,8.04 z"
         inkscape:connector-curvature="0" /><path
         id="path270"
         style="fill:#00ffff;fill-opacity:1;fill-rule:evenodd;stroke:#000000;stroke-width:1.21399999;stroke-linecap:square;stroke-linejoin:miter;stroke-miterlimit:10;stroke-opacity:1;stroke-dasharray:none"
         d="m 328.62,518.04 1.2,0 0,8.04 -1.2,0 0,-8.04 z"
         inkscape:connector-curvature="0" /><path
         id="path272"
         style="fill:#c0c0c0;fill-opacity:1;fill-rule:evenodd;stroke:#000000;stroke-width:1.21399999;stroke-linecap:square;stroke-linejoin:miter;stroke-miterlimit:10;stroke-opacity:1;stroke-dasharray:none"
         d="m 317.94,549.96 10.68,-27.66 -21.48,0 10.8,27.66 z"
         inkscape:connector-curvature="0" /><path
         id="path274"
         style="fill:#00ffff;fill-opacity:1;fill-rule:evenodd;stroke:#000000;stroke-width:1.21399999;stroke-linecap:square;stroke-linejoin:miter;stroke-miterlimit:10;stroke-opacity:1;stroke-dasharray:none"
         d="m 511.74,627.18 1.2,0 0,-7.98 -1.2,0 0,7.98 z"
         inkscape:connector-curvature="0" /><path
         id="path276"
         style="fill:#00ffff;fill-opacity:1;fill-rule:evenodd;stroke:#000000;stroke-width:1.21399999;stroke-linecap:square;stroke-linejoin:miter;stroke-miterlimit:10;stroke-opacity:1;stroke-dasharray:none"
         d="m 489,619.2 1.08,0 0,7.98 -1.08,0 0,-7.98 z"
         inkscape:connector-curvature="0" /><path
         id="path278"
         style="fill:#c0c0c0;fill-opacity:1;fill-rule:evenodd;stroke:#000000;stroke-width:1.21399999;stroke-linecap:square;stroke-linejoin:miter;stroke-miterlimit:10;stroke-opacity:1;stroke-dasharray:none"
         d="m 500.88,595.26 -10.8,27.66 21.66,0 -10.86,-27.66 z"
         inkscape:connector-curvature="0" /><path
         id="path280"
         style="fill:#ffffff;fill-opacity:1;fill-rule:evenodd;stroke:none"
         d="m 293.4,610.32 -4.62,0 0,89.46 160.62,0 0,-4.62 -156,0 0,-84.84"
         inkscape:connector-curvature="0" /><path
         id="path294"
         style="fill:url(#pattern286);fill-opacity:1;fill-rule:evenodd;stroke:#000000;stroke-width:0.36399999;stroke-linecap:square;stroke-linejoin:miter;stroke-miterlimit:10;stroke-opacity:1;stroke-dasharray:none"
         d="m 293.4,610.32 -4.62,0 0,89.46 160.62,0 0,-4.62 -156,0 0,-84.84 z"
         inkscape:connector-curvature="0" /><path
         id="path296"
         style="fill:#ffffff;fill-opacity:1;fill-rule:nonzero;stroke:none"
         d="m 309.9,712.32 67.68,0 0,-11.34 -67.68,0 0,11.34 z"
         inkscape:connector-curvature="0" /><text
         id="text298"
         transform="matrix(1,0,0,-1,309.9,703.2)"><tspan
           id="tspan300"
           sodipodi:role="line"
           y="0"
           x="0 7.3635335 13.034066 15.869333 21.539865 24.936066 30.606598 36.27713 41.37653 47.047066 49.882332 57.245865 62.916397 65.180534"
           style="font-size:10.19880009px;font-variant:normal;font-weight:normal;writing-mode:lr-tb;fill:#000000;fill-opacity:1;fill-rule:nonzero;stroke:none;font-family:Arial Black;-inkscape-font-specification:Arial">Reference wall</tspan></text>
<path
         id="path302"
         style="fill:#ffffff;fill-opacity:1;fill-rule:nonzero;stroke:none"
         d="m 358.02,667.02 17.82,0 0,-7.38 -17.82,0 0,7.38 z"
         inkscape:connector-curvature="0" /><text
         id="text304"
         transform="matrix(1,0,0,-1,358.02,661.0801)"><tspan
           id="tspan306"
           sodipodi:role="line"
           y="0"
           x="0 4.8213716 8.5342283 12.247086 15.959942"
           style="font-size:6.67780018px;font-variant:normal;font-weight:normal;writing-mode:lr-tb;fill:#000000;fill-opacity:1;fill-rule:nonzero;stroke:none;font-family:Arial Black;-inkscape-font-specification:Arial">Robot</tspan></text>
<path
         id="path308"
         style="fill:#ffffff;fill-opacity:1;fill-rule:nonzero;stroke:none"
         d="m 381.42,591.72 9.48,0 0,-9.48 -9.48,0 0,9.48 z"
         inkscape:connector-curvature="0" /><text
         id="text310"
         transform="matrix(1,0,0,-1,381.42,584.1)"><tspan
           id="tspan312"
           sodipodi:role="line"
           y="0"
           x="0 4.7254996"
           style="font-size:8.49909973px;font-variant:normal;font-weight:normal;writing-mode:lr-tb;fill:#800000;fill-opacity:1;fill-rule:nonzero;stroke:none;font-family:Arial Black;-inkscape-font-specification:Arial">93</tspan></text>
<path
         id="path314"
         style="fill:#ffffff;fill-opacity:1;fill-rule:nonzero;stroke:none"
         d="m 390.42,591.78 2.7,0 0,-5.46 -2.7,0 0,5.46 z"
         inkscape:connector-curvature="0" /><text
         id="text316"
         transform="matrix(1,0,0,-1,390.42,587.4)"><tspan
           id="tspan318"
           y="0"
           x="0"
           style="font-size:4.85650015px;font-variant:normal;font-weight:normal;writing-mode:lr-tb;fill:#800000;fill-opacity:1;fill-rule:nonzero;stroke:none;font-family:Arial Black;-inkscape-font-specification:Arial">o</tspan></text>
<path
         id="path320"
         style="fill:#ffffff;fill-opacity:1;fill-rule:nonzero;stroke:none"
         d="m 392.94,591.72 17.46,0 0,-9.48 -17.46,0 0,9.48 z"
         inkscape:connector-curvature="0" /><text
         id="text322"
         transform="matrix(1,0,0,-1,392.94,584.1)"><tspan
           id="tspan324"
           sodipodi:role="line"
           y="0"
           x="0 2.8302002 5.1929502 9.9184494 12.74865"
           style="font-size:8.49909973px;font-variant:normal;font-weight:normal;writing-mode:lr-tb;fill:#800000;fill-opacity:1;fill-rule:nonzero;stroke:none;font-family:Arial Black;-inkscape-font-specification:Arial">-turn</tspan></text>
<path
         id="path326"
         style="fill:#ffffff;fill-opacity:1;fill-rule:nonzero;stroke:none"
         d="m 409.62,591.72 53.4,0 0,-9.48 -53.4,0 0,9.48 z"
         inkscape:connector-curvature="0" /><text
         id="text328"
         transform="matrix(1,0,0,-1,411.98275,584.1)"><tspan
           id="tspan330"
           sodipodi:role="line"
           y="0"
           x="0 1.8868002 6.6122999 10.86185 13.2246 17.9501 22.675598 27.401098 29.763847 34.489349 36.852097 39.214848 43.940346 48.665848"
           style="font-size:8.49909973px;font-variant:normal;font-weight:normal;writing-mode:lr-tb;fill:#800000;fill-opacity:1;fill-rule:nonzero;stroke:none;font-family:Arial Black;-inkscape-font-specification:Arial">instead of 90 </tspan></text>
<path
         id="path332"
         style="fill:#ffffff;fill-opacity:1;fill-rule:nonzero;stroke:none"
         d="m 460.26,591.78 2.7,0 0,-5.46 -2.7,0 0,5.46 z"
         inkscape:connector-curvature="0" /><text
         id="text334"
         transform="matrix(1,0,0,-1,460.26,587.4)"><tspan
           id="tspan336"
           y="0"
           x="0"
           style="font-size:4.85650015px;font-variant:normal;font-weight:normal;writing-mode:lr-tb;fill:#800000;fill-opacity:1;fill-rule:nonzero;stroke:none;font-family:Arial Black;-inkscape-font-specification:Arial">o</tspan></text>
<path
         id="path338"
         style="fill:#ffffff;fill-opacity:1;fill-rule:nonzero;stroke:none"
         d="m 462.78,591.72 19.8,0 0,-9.48 -19.8,0 0,9.48 z"
         inkscape:connector-curvature="0" /><text
         id="text340"
         transform="matrix(1,0,0,-1,462.78,584.1)"><tspan
           id="tspan342"
           sodipodi:role="line"
           y="0"
           x="0 2.8302002 5.1929502 9.9184494 12.74865 17.47415"
           style="font-size:8.49909973px;font-variant:normal;font-weight:normal;writing-mode:lr-tb;fill:#800000;fill-opacity:1;fill-rule:nonzero;stroke:none;font-family:Arial Black;-inkscape-font-specification:Arial">-turn </tspan></text>
<path
         id="path344"
         style="fill:#ffffff;fill-opacity:1;fill-rule:nonzero;stroke:none"
         d="m 381.42,580.56 110.46,0 0,-9.48 -110.46,0 0,9.48 z"
         inkscape:connector-curvature="0" /><text
         id="text346"
         transform="matrix(1,0,0,-1,381.42,572.94)"><tspan
           id="tspan348"
           sodipodi:role="line"
           y="0"
           x="0 2.8302002 7.5556998 12.281199 17.006699 19.36945 21.732199 26.457699 28.820448 33.545948 38.271446 42.520996 47.246498 50.076698 52.439445 57.164948 59.051746 63.777245 66.139999 70.389549 72.752296 77.477798 82.203293 86.928795 91.654297 94.017044 96.379791 98.742546 103.46804 108.19354"
           style="font-size:8.49909973px;font-variant:normal;font-weight:normal;writing-mode:lr-tb;fill:#800000;fill-opacity:1;fill-rule:nonzero;stroke:none;font-family:Arial Black;-inkscape-font-specification:Arial">(due to uncertainty about the </tspan></text>
<path
         id="path350"
         style="fill:#ffffff;fill-opacity:1;fill-rule:nonzero;stroke:none"
         d="m 381.42,569.4 77.52,0 0,-9.48 -77.52,0 0,9.48 z"
         inkscape:connector-curvature="0" /><text
         id="text352"
         transform="matrix(1,0,0,-1,381.42,561.78)"><tspan
           id="tspan354"
           sodipodi:role="line"
           y="0"
           x="0 4.7254996 7.0882492 9.4509993 14.176498 18.426048 20.788799 22.675598 26.925148 31.650648 34.013397 40.14975 44.875248 49.600746 54.326248 56.213047 60.938545 65.664047 69.913597 74.639099"
           style="font-size:8.49909973px;font-variant:normal;font-weight:normal;writing-mode:lr-tb;fill:#800000;fill-opacity:1;fill-rule:nonzero;stroke:none;font-family:Arial Black;-inkscape-font-specification:Arial">effective wheelbase)</tspan></text>
<path
         id="path356"
         style="fill:none;stroke:#000000;stroke-width:0.06;stroke-linecap:square;stroke-linejoin:miter;stroke-miterlimit:10;stroke-opacity:1;stroke-dasharray:none"
         d="m 534.54,676.98 0,-2.94 0.12,-0.24 m 0,0 -0.24,-3.36 -0.48,-3.3 -0.84,-3.3 -1.14,-3 -1.44,-3.06 -1.68,-2.64 -1.98,-2.7 -2.16,-2.28 -2.28,-2.22 -2.7,-1.92 -2.64,-1.68 -3.06,-1.5 -3.06,-1.08 -3.24,-0.84 -3.3,-0.48 -3.42,-0.24"
         inkscape:connector-curvature="0" /><path
         id="path358"
         style="fill:#000000;fill-opacity:1;fill-rule:evenodd;stroke:#000000;stroke-width:0.06;stroke-linecap:square;stroke-linejoin:miter;stroke-miterlimit:10;stroke-opacity:1;stroke-dasharray:none"
         d="m 506.1,637.5 -5.1,2.7 5.1,2.52 -2.52,-2.52 2.52,-2.7 z"
         inkscape:connector-curvature="0" /><text
         id="text360"
         transform="matrix(1,0,0,-1,516.6599,652.8)"><tspan
           id="tspan362"
           sodipodi:role="line"
           y="0"
           x="0 4.7254996"
           style="font-size:8.49909973px;font-variant:normal;font-weight:normal;writing-mode:lr-tb;fill:#000000;fill-opacity:1;fill-rule:nonzero;stroke:none;font-family:Arial Black;-inkscape-font-specification:Arial">93</tspan></text>
<text
         id="text364"
         transform="matrix(1,0,0,-1,525.6599,656.1)"><tspan
           id="tspan366"
           y="0"
           x="0"
           style="font-size:4.85650015px;font-variant:normal;font-weight:normal;writing-mode:lr-tb;fill:#000000;fill-opacity:1;fill-rule:nonzero;stroke:none;font-family:Arial Black;-inkscape-font-specification:Arial">o</tspan></text>
<text
         id="text368"
         transform="matrix(1,0,0,-1,335.52026,628.13986)"><tspan
           id="tspan370"
           sodipodi:role="line"
           y="0"
           x="0 6.1363502 10.86185 13.69205 17.941601 22.667099 27.392599 29.755348 31.642149 36.367649 40.617199 42.97995 47.705448 52.430946 57.156448 59.519196 64.244698 66.607445 68.9702 73.219749 75.582497 78.412697 83.138199 85.024994 89.750496 94.475998 96.838745 99.201492 103.92699 108.6525 111.01524 115.74075"
           style="font-size:8.49909973px;font-variant:normal;font-weight:normal;writing-mode:lr-tb;fill:#800080;fill-opacity:1;fill-rule:nonzero;stroke:none;font-family:Arial Black;-inkscape-font-specification:Arial">Curved instead of straight path </tspan><tspan
           id="tspan372"
           sodipodi:role="line"
           y="9.6600771"
           x="2.3627498 5.1929502 9.9184494 14.64395 19.36945 21.732199 24.094948 28.820448 31.183197 35.908699 40.634197 45.359695 50.085197 54.810696 59.536194 61.422997 63.785744 69.922096 74.647598 79.373093 84.098595 85.985397 88.348145 93.073647 94.960442 99.685944 106.76569 111.4912 113.85394 118.57944 121.40965 125.65919 128.4894 130.85214"
           style="font-size:8.49909973px;font-variant:normal;font-weight:normal;writing-mode:lr-tb;fill:#800080;fill-opacity:1;fill-rule:nonzero;stroke:none;font-family:Arial Black;-inkscape-font-specification:Arial">(due to unequal wheel diameters). </tspan><tspan
           id="tspan374"
           sodipodi:role="line"
           y="19.380499"
           x="0 2.3627498 7.0882492 9.4509993 11.813749 16.539249 21.264748 23.627499 28.352997 32.602547 37.328049 44.407799 49.133297 51.020096 55.745598 60.471096 65.196594 69.922096 72.752296 77.477798 79.840546 82.203293 84.566048 89.291542 91.178345 95.427895 97.790642 102.04019 106.76569 111.4912 115.74075 120.46624"
           style="font-size:8.49909973px;font-variant:normal;font-weight:normal;writing-mode:lr-tb;fill:#800080;fill-opacity:1;fill-rule:nonzero;stroke:none;font-family:Arial Black;-inkscape-font-specification:Arial">In the example here, this causes</tspan><tspan
           id="tspan376"
           sodipodi:role="line"
           y="29.100918"
           x="0 4.7254996 7.0882492"
           style="font-size:8.49909973px;font-variant:normal;font-weight:normal;writing-mode:lr-tb;fill:#800080;fill-opacity:1;fill-rule:nonzero;stroke:none;font-family:Arial Black;-inkscape-font-specification:Arial">a 3</tspan></text>
<text
         id="text378"
         transform="matrix(1,0,0,-1,346.68,602.4)"><tspan
           id="tspan380"
           y="0"
           x="0"
           style="font-size:4.85650015px;font-variant:normal;font-weight:normal;writing-mode:lr-tb;fill:#800080;fill-opacity:1;fill-rule:nonzero;stroke:none;font-family:Arial Black;-inkscape-font-specification:Arial">o</tspan></text>
<text
         id="text382"
         transform="matrix(1,0,0,-1,351.74275,599.04)"><tspan
           id="tspan384"
           sodipodi:role="line"
           y="0"
           x="0 4.7254996 7.5556998 9.4425001 14.167999 18.893499 21.256248 25.981749 28.344498 30.231298 34.956799 39.682297 42.045048 46.770546 49.600746 52.430946 57.156448"
           style="font-size:8.49909973px;font-variant:normal;font-weight:normal;writing-mode:lr-tb;fill:#800080;fill-opacity:1;fill-rule:nonzero;stroke:none;font-family:Arial Black;-inkscape-font-specification:Arial">orientation error</tspan></text>
<path
         id="path386"
         style="fill:#ffffff;fill-opacity:1;fill-rule:nonzero;stroke:none"
         d="m 271.68,714 0.72,0 0,-0.72 -0.72,0 0,0.72 z"
         inkscape:connector-curvature="0" /><path
         id="path388"
         style="fill:#ffffff;fill-opacity:1;fill-rule:nonzero;stroke:none"
         d="m 271.68,714 270.54,0 0,-0.72 -270.54,0 0,0.72 z"
         inkscape:connector-curvature="0" /><path
         id="path390"
         style="fill:#ffffff;fill-opacity:1;fill-rule:nonzero;stroke:none"
         d="m 541.5,714 0.72,0 0,-0.72 -0.72,0 0,0.72 z"
         inkscape:connector-curvature="0" /><path
         id="path392"
         style="fill:#ffffff;fill-opacity:1;fill-rule:nonzero;stroke:none"
         d="m 271.68,713.28 0.72,0 0,-257.16 -0.72,0 0,257.16 z"
         inkscape:connector-curvature="0" /><path
         id="path394"
         style="fill:#ffffff;fill-opacity:1;fill-rule:nonzero;stroke:none"
         d="m 541.5,713.28 0.72,0 0,-257.16 -0.72,0 0,257.16 z"
         inkscape:connector-curvature="0" /></g></g></svg>