<?xml version="1.0" encoding="UTF-8" standalone="no"?>
<!-- Created with Inkscape (http://www.inkscape.org/) -->

<svg
   xmlns:dc="http://purl.org/dc/elements/1.1/"
   xmlns:cc="http://creativecommons.org/ns#"
   xmlns:rdf="http://www.w3.org/1999/02/22-rdf-syntax-ns#"
   xmlns:svg="http://www.w3.org/2000/svg"
   xmlns="http://www.w3.org/2000/svg"
   xmlns:sodipodi="http://sodipodi.sourceforge.net/DTD/sodipodi-0.dtd"
   xmlns:inkscape="http://www.inkscape.org/namespaces/inkscape"
   id="svg2"
   version="1.1"
   inkscape:version="0.48.4 r9939"
   width="258.24374"
   height="211.64999"
   xml:space="preserve"
   sodipodi:docname="paper58_errores_giro.svg"
   inkscape:export-filename="/media/datos/Datos/Proyectos/TFC_eurobot/book-latex/figures/paper58_errores_giro.png"
   inkscape:export-xdpi="369"
   inkscape:export-ydpi="369"><metadata
     id="metadata8"><rdf:RDF><cc:Work
         rdf:about=""><dc:format>image/svg+xml</dc:format><dc:type
           rdf:resource="http://purl.org/dc/dcmitype/StillImage" /><dc:title /></cc:Work></rdf:RDF></metadata><defs
     id="defs6"><clipPath
       clipPathUnits="userSpaceOnUse"
       id="clipPath58"><path
         d="m 86.4,664.92 17.82,0 0,9.3 -17.82,0 0,-9.3 z"
         id="path60"
         inkscape:connector-curvature="0" /></clipPath><clipPath
       clipPathUnits="userSpaceOnUse"
       id="clipPath348"><path
         d="m 149.7,274.98 7.98,0 0,14.1 -7.98,0 0,-14.1 z"
         id="path350"
         inkscape:connector-curvature="0" /></clipPath><clipPath
       clipPathUnits="userSpaceOnUse"
       id="clipPath402"><path
         d="m 132.48,168.48 42.9,0 0,9.3 -42.9,0 0,-9.3 z"
         id="path404"
         inkscape:connector-curvature="0" /></clipPath><clipPath
       clipPathUnits="userSpaceOnUse"
       id="clipPath416"><path
         d="m 137.34,175.08 7.98,0 0,14.1 -7.98,0 0,-14.1 z"
         id="path418"
         inkscape:connector-curvature="0" /></clipPath><clipPath
       clipPathUnits="userSpaceOnUse"
       id="clipPath476"><path
         d="m 335.52,148.44 62.16,0 0,109.86 -62.16,0 0,-109.86 z"
         id="path478"
         inkscape:connector-curvature="0" /></clipPath><clipPath
       clipPathUnits="userSpaceOnUse"
       id="clipPath514"><path
         d="m 392.34,138.84 102.24,0 0,43.08 -102.24,0 0,-43.08 z"
         id="path516"
         inkscape:connector-curvature="0" /></clipPath><marker
       inkscape:stockid="Arrow1Lstart"
       orient="auto"
       refY="0"
       refX="0"
       id="Arrow1Lstart"
       style="overflow:visible"><path
         inkscape:connector-curvature="0"
         id="path4287"
         d="M 0,0 5,-5 -12.5,0 5,5 0,0 z"
         style="fill-rule:evenodd;stroke:#000000;stroke-width:1pt"
         transform="matrix(0.8,0,0,0.8,10,0)" /></marker><marker
       inkscape:stockid="Arrow1Lend"
       orient="auto"
       refY="0"
       refX="0"
       id="Arrow1Lend"
       style="overflow:visible"><path
         inkscape:connector-curvature="0"
         id="path4290"
         d="M 0,0 5,-5 -12.5,0 5,5 0,0 z"
         style="fill-rule:evenodd;stroke:#000000;stroke-width:1pt"
         transform="matrix(-0.8,0,0,-0.8,-10,0)" /></marker><marker
       inkscape:stockid="Arrow1Lstart"
       orient="auto"
       refY="0"
       refX="0"
       id="marker5513"
       style="overflow:visible"><path
         inkscape:connector-curvature="0"
         id="path5515"
         d="M 0,0 5,-5 -12.5,0 5,5 0,0 z"
         style="fill-rule:evenodd;stroke:#000000;stroke-width:1pt"
         transform="matrix(0.8,0,0,0.8,10,0)" /></marker><marker
       inkscape:stockid="Arrow1Lend"
       orient="auto"
       refY="0"
       refX="0"
       id="marker5517"
       style="overflow:visible"><path
         inkscape:connector-curvature="0"
         id="path5519"
         d="M 0,0 5,-5 -12.5,0 5,5 0,0 z"
         style="fill-rule:evenodd;stroke:#000000;stroke-width:1pt"
         transform="matrix(-0.8,0,0,-0.8,-10,0)" /></marker><marker
       inkscape:stockid="Arrow1Lstart"
       orient="auto"
       refY="0"
       refX="0"
       id="marker5521"
       style="overflow:visible"><path
         inkscape:connector-curvature="0"
         id="path5523"
         d="M 0,0 5,-5 -12.5,0 5,5 0,0 z"
         style="fill-rule:evenodd;stroke:#000000;stroke-width:1pt"
         transform="matrix(0.8,0,0,0.8,10,0)" /></marker><marker
       inkscape:stockid="Arrow1Lend"
       orient="auto"
       refY="0"
       refX="0"
       id="marker5525"
       style="overflow:visible"><path
         inkscape:connector-curvature="0"
         id="path5527"
         d="M 0,0 5,-5 -12.5,0 5,5 0,0 z"
         style="fill-rule:evenodd;stroke:#000000;stroke-width:1pt"
         transform="matrix(-0.8,0,0,-0.8,-10,0)" /></marker><marker
       inkscape:stockid="Arrow1Lstart"
       orient="auto"
       refY="0"
       refX="0"
       id="marker5529"
       style="overflow:visible"><path
         inkscape:connector-curvature="0"
         id="path5531"
         d="M 0,0 5,-5 -12.5,0 5,5 0,0 z"
         style="fill-rule:evenodd;stroke:#000000;stroke-width:1pt"
         transform="matrix(0.8,0,0,0.8,10,0)" /></marker><marker
       inkscape:stockid="Arrow1Lend"
       orient="auto"
       refY="0"
       refX="0"
       id="marker5533"
       style="overflow:visible"><path
         inkscape:connector-curvature="0"
         id="path5535"
         d="M 0,0 5,-5 -12.5,0 5,5 0,0 z"
         style="fill-rule:evenodd;stroke:#000000;stroke-width:1pt"
         transform="matrix(-0.8,0,0,-0.8,-10,0)" /></marker></defs><sodipodi:namedview
     pagecolor="#ffffff"
     bordercolor="#666666"
     borderopacity="1"
     objecttolerance="10"
     gridtolerance="10"
     guidetolerance="10"
     inkscape:pageopacity="0"
     inkscape:pageshadow="2"
     inkscape:window-width="1366"
     inkscape:window-height="709"
     id="namedview4"
     showgrid="false"
     fit-margin-top="0"
     fit-margin-left="0"
     fit-margin-right="0"
     fit-margin-bottom="0"
     inkscape:zoom="1.9070707"
     inkscape:cx="143.76275"
     inkscape:cy="97.72798"
     inkscape:window-x="0"
     inkscape:window-y="25"
     inkscape:window-maximized="1"
     inkscape:current-layer="g10" /><g
     id="g10"
     inkscape:groupmode="layer"
     inkscape:label="paper58"
     transform="matrix(1.25,0,0,-1.25,-419.53125,385.2)"><path
       d="m 335.7,139.02 204.12,0 0,168.24 -204.12,0 0,-168.24 z"
       style="fill:#ffffff;fill-opacity:1;fill-rule:evenodd;stroke:#ffffff;stroke-width:0.15000001;stroke-linecap:square;stroke-linejoin:miter;stroke-miterlimit:10;stroke-opacity:1;stroke-dasharray:none"
       id="path468"
       inkscape:connector-curvature="0" /><path
       d="m 439.86,203.4 c 0,0.96 -0.84,1.74 -1.8,1.74 -0.96,0 -1.74,-0.78 -1.74,-1.74 0,-0.96 0.78,-1.74 1.74,-1.74 0.96,0 1.8,0.78 1.8,1.74 z"
       style="fill:#ffffff;fill-opacity:1;fill-rule:evenodd;stroke:#000000;stroke-width:0.06;stroke-linecap:square;stroke-linejoin:miter;stroke-miterlimit:10;stroke-opacity:1;stroke-dasharray:none"
       id="path470"
       inkscape:connector-curvature="0" /><g
       id="g472"><g
         id="g474"
         clip-path="url(#clipPath476)"><path
           d="m 359.64,220.32 0,-33.84"
           style="fill:none;stroke:#c0c0c0;stroke-width:4.9380002;stroke-linecap:square;stroke-linejoin:miter;stroke-miterlimit:10;stroke-opacity:1;stroke-dasharray:none"
           id="path480"
           inkscape:connector-curvature="0" /></g></g><path
       d="m 498.96,216.54 0,-26.34"
       style="fill:none;stroke:#c0c0c0;stroke-width:4.9380002;stroke-linecap:square;stroke-linejoin:miter;stroke-miterlimit:10;stroke-opacity:1;stroke-dasharray:none"
       id="path482"
       inkscape:connector-curvature="0" /><path
       d="m 359.64,203.4 139.32,0"
       style="fill:none;stroke:#000000;stroke-width:0.06;stroke-linecap:square;stroke-linejoin:miter;stroke-miterlimit:10;stroke-opacity:1;stroke-dasharray:none"
       id="path484"
       inkscape:connector-curvature="0" /><path
       d="m 530.1,203.4 -100.8,0"
       style="fill:none;stroke:#000000;stroke-width:0.449;stroke-linecap:square;stroke-linejoin:miter;stroke-miterlimit:10;stroke-opacity:1;stroke-dasharray:none"
       id="path486"
       inkscape:connector-curvature="0" /><path
       d="m 522.18,199.32 7.92,4.08 -7.92,4.02 0,-8.1 z"
       style="fill:#ffffff;fill-opacity:1;fill-rule:evenodd;stroke:#000000;stroke-width:0.449;stroke-linecap:square;stroke-linejoin:miter;stroke-miterlimit:10;stroke-opacity:1;stroke-dasharray:none"
       id="path488"
       inkscape:connector-curvature="0" /><path
       d="m 429.3,203.4 0,98.34"
       style="fill:none;stroke:#000000;stroke-width:0.449;stroke-linecap:square;stroke-linejoin:miter;stroke-miterlimit:10;stroke-opacity:1;stroke-dasharray:none"
       id="path490"
       inkscape:connector-curvature="0" /><path
       d="m 425.4,293.82 3.9,7.92 4.02,-7.92 -7.92,0 z"
       style="fill:#ffffff;fill-opacity:1;fill-rule:evenodd;stroke:#000000;stroke-width:0.449;stroke-linecap:square;stroke-linejoin:miter;stroke-miterlimit:10;stroke-opacity:1;stroke-dasharray:none"
       id="path492"
       inkscape:connector-curvature="0" /><text
       transform="matrix(1,0,0,-1,531.78,199.0201)"
       id="text494"><tspan
         style="font-size:14.82349968px;font-variant:normal;font-weight:bold;writing-mode:lr-tb;fill:#000000;fill-opacity:1;fill-rule:nonzero;stroke:none;font-family:Arial;-inkscape-font-specification:Arial Bold"
         x="0"
         y="0"
         id="tspan496">x</tspan></text>
<text
       transform="matrix(1,0,0,-1,436.2,295.0201)"
       id="text498"><tspan
         style="font-size:12.57750034px;font-variant:normal;font-weight:bold;writing-mode:lr-tb;fill:#000000;fill-opacity:1;fill-rule:nonzero;stroke:none;font-family:Arial;-inkscape-font-specification:Arial Bold"
         x="0"
         y="0"
         id="tspan500">y</tspan></text>
<text
       transform="matrix(1,0,0,-1,420.00018,207.11973)"
       id="text502"><tspan
         style="font-size:12.57750034px;font-variant:normal;font-weight:normal;writing-mode:lr-tb;fill:#000080;fill-opacity:1;fill-rule:nonzero;stroke:none;font-family:Arial;-inkscape-font-specification:Arial"
         x="0"
         y="0"
         id="tspan504">C</tspan><tspan
         style="font-size:12.57750034px;font-variant:normal;font-weight:normal;writing-mode:lr-tb;fill:#800000;fill-opacity:1;fill-rule:nonzero;stroke:none;font-family:Arial;-inkscape-font-specification:Arial"
         x="6.5994143"
         y="17.219854"
         id="tspan506">O</tspan></text>
<path
       d="M 447.9,282.72 414.78,280.2"
       style="fill:none;stroke:#808080;stroke-width:4.9380002;stroke-linecap:square;stroke-linejoin:miter;stroke-miterlimit:10;stroke-opacity:1;stroke-dasharray:none"
       id="path508"
       inkscape:connector-curvature="0" /><g
       id="g510"><g
         id="g512"
         clip-path="url(#clipPath514)"><path
           d="m 456.54,143.94 -26.22,-2.28"
           style="fill:none;stroke:#808080;stroke-width:4.9380002;stroke-linecap:square;stroke-linejoin:miter;stroke-miterlimit:10;stroke-opacity:1;stroke-dasharray:none"
           id="path518"
           inkscape:connector-curvature="0" /></g></g><path
       d="m 431.4,282 12,-139.26"
       style="fill:none;stroke:#000000;stroke-width:0.449;stroke-linecap:square;stroke-linejoin:miter;stroke-miterlimit:10;stroke-opacity:1;stroke-dasharray:none"
       id="path520"
       inkscape:connector-curvature="0" /><text
       transform="matrix(1,0,0,-1,442.32,214.3201)"
       id="text522"><tspan
         style="font-size:12.57750034px;font-variant:normal;font-weight:normal;writing-mode:lr-tb;fill:#000080;fill-opacity:1;fill-rule:nonzero;stroke:none;font-family:Arial;-inkscape-font-specification:Arial"
         x="0 9.0809546"
         y="0"
         sodipodi:role="line"
         id="tspan524">C'</tspan></text>
<path
       d="m 438.24,212.28 c 0,0.48 -0.42,0.84 -0.9,0.84 -0.48,0 -0.84,-0.36 -0.84,-0.84 0,-0.48 0.36,-0.9 0.84,-0.9 0.48,0 0.9,0.42 0.9,0.9 z"
       style="fill:#0080ff;fill-opacity:1;fill-rule:evenodd;stroke:#000000;stroke-width:0.06;stroke-linecap:square;stroke-linejoin:miter;stroke-miterlimit:10;stroke-opacity:1;stroke-dasharray:none"
       id="path526"
       inkscape:connector-curvature="0" /><path
       d="m 426.72,208.14 2.4,-4.74 m 8.4,8.82 4.98,5.82"
       style="fill:none;stroke:#000080;stroke-width:0.06;stroke-linecap:square;stroke-linejoin:miter;stroke-miterlimit:10;stroke-opacity:1;stroke-dasharray:none"
       id="path528"
       inkscape:connector-curvature="0" /><path
       d="m 434.22,199.5 4.08,4.02"
       style="fill:none;stroke:#800000;stroke-width:0.06;stroke-linecap:square;stroke-linejoin:miter;stroke-miterlimit:10;stroke-opacity:1;stroke-dasharray:none"
       id="path530"
       inkscape:connector-curvature="0" /><path
       d="m 359.64,203.4 0.3,7.62 1.02,7.5 1.8,7.02 2.28,6.9 3,6.54 3.6,6.3 4.02,5.88 4.5,5.34 5.1,4.98 5.52,4.5 5.88,4.02 6.12,3.42 6.6,2.88 6.9,2.22 7.2,1.68 7.44,0.9"
       style="fill:none;stroke:#000000;stroke-width:0.449;stroke-linecap:square;stroke-linejoin:miter;stroke-miterlimit:10;stroke-opacity:1;stroke-dasharray:none"
       id="path532"
       inkscape:connector-curvature="0" /><path
       d="m 424.68,283.62 6.24,-2.52 -5.82,-3.48 2.82,3.3 -3.24,2.7 z"
       style="fill:#000000;fill-opacity:1;fill-rule:evenodd;stroke:#000000;stroke-width:0.449;stroke-linecap:square;stroke-linejoin:miter;stroke-miterlimit:10;stroke-opacity:1;stroke-dasharray:none"
       id="path534"
       inkscape:connector-curvature="0" /><path
       d="m 350.34,220.32 0,-33.84"
       style="fill:none;stroke:#000000;stroke-width:0.449;stroke-linecap:square;stroke-linejoin:miter;stroke-miterlimit:10;stroke-opacity:1;stroke-dasharray:none"
       id="path558"
       inkscape:connector-curvature="0" /><path
       d="m 351.24,218.34 -0.9,1.98 -1.02,-1.98 1.02,1.08 0.9,-1.08 z"
       style="fill:#000000;fill-opacity:1;fill-rule:evenodd;stroke:#000000;stroke-width:0.449;stroke-linecap:square;stroke-linejoin:miter;stroke-miterlimit:10;stroke-opacity:1;stroke-dasharray:none"
       id="path560"
       inkscape:connector-curvature="0" /><path
       d="m 351.24,220.92 -1.92,0"
       style="fill:none;stroke:#000000;stroke-width:0.449;stroke-linecap:square;stroke-linejoin:miter;stroke-miterlimit:10;stroke-opacity:1;stroke-dasharray:none"
       id="path562"
       inkscape:connector-curvature="0" /><path
       d="m 351.24,188.4 -0.9,-1.92 -1.02,1.92 1.02,-1.02 0.9,1.02 z"
       style="fill:#000000;fill-opacity:1;fill-rule:evenodd;stroke:#000000;stroke-width:0.449;stroke-linecap:square;stroke-linejoin:miter;stroke-miterlimit:10;stroke-opacity:1;stroke-dasharray:none"
       id="path564"
       inkscape:connector-curvature="0" /><path
       d="m 351.24,185.88 -1.92,0"
       style="fill:none;stroke:#000000;stroke-width:0.449;stroke-linecap:square;stroke-linejoin:miter;stroke-miterlimit:10;stroke-opacity:1;stroke-dasharray:none"
       id="path566"
       inkscape:connector-curvature="0" /><text
       transform="matrix(1,0,0,-1,365.46,256.2001)"
       id="text576"><tspan
         style="font-size:12.57750034px;font-variant:normal;font-weight:normal;writing-mode:lr-tb;fill:#000000;fill-opacity:1;fill-rule:nonzero;stroke:none;font-family:Arial;-inkscape-font-specification:Arial"
         x="0"
         y="0"
         id="tspan578">U</tspan></text>
<text
       transform="matrix(1,0,0,-1,374.16,254.8801)"
       id="text580"><tspan
         style="font-size:7.33690023px;font-variant:normal;font-weight:normal;writing-mode:lr-tb;fill:#000000;fill-opacity:1;fill-rule:nonzero;stroke:none;font-family:Arial;-inkscape-font-specification:Arial"
         x="0"
         y="0"
         id="tspan582">L</tspan></text>
<path
       d="m 507.18,215.82 0,-25.02"
       style="fill:none;stroke:#000000;stroke-width:0.449;stroke-linecap:square;stroke-linejoin:miter;stroke-miterlimit:10;stroke-opacity:1;stroke-dasharray:none"
       id="path592"
       inkscape:connector-curvature="0" /><path
       d="m 508.26,213.84 -1.08,1.98 -1.02,-1.98 1.02,1.08 1.08,-1.08 z"
       style="fill:#000000;fill-opacity:1;fill-rule:evenodd;stroke:#000000;stroke-width:0.449;stroke-linecap:square;stroke-linejoin:miter;stroke-miterlimit:10;stroke-opacity:1;stroke-dasharray:none"
       id="path594"
       inkscape:connector-curvature="0" /><path
       d="m 508.26,216.42 -2.1,0"
       style="fill:none;stroke:#000000;stroke-width:0.449;stroke-linecap:square;stroke-linejoin:miter;stroke-miterlimit:10;stroke-opacity:1;stroke-dasharray:none"
       id="path596"
       inkscape:connector-curvature="0" /><path
       d="m 508.26,192.9 -1.08,-2.1 -1.02,2.1 1.02,-1.08 1.08,1.08 z"
       style="fill:#000000;fill-opacity:1;fill-rule:evenodd;stroke:#000000;stroke-width:0.449;stroke-linecap:square;stroke-linejoin:miter;stroke-miterlimit:10;stroke-opacity:1;stroke-dasharray:none"
       id="path598"
       inkscape:connector-curvature="0" /><path
       d="m 508.26,190.32 -2.1,0"
       style="fill:none;stroke:#000000;stroke-width:0.449;stroke-linecap:square;stroke-linejoin:miter;stroke-miterlimit:10;stroke-opacity:1;stroke-dasharray:none"
       id="path600"
       inkscape:connector-curvature="0" /><path
       d="m 438.3,203.52 -77.76,0"
       style="fill:none;stroke:#000000;stroke-width:1.04700005;stroke-linecap:square;stroke-linejoin:miter;stroke-miterlimit:10;stroke-opacity:1;stroke-dasharray:none"
       id="path602"
       inkscape:connector-curvature="0" /><path
       d="m 368.64,199.5 -8.1,4.02 8.1,3.9 -4.08,-3.9 4.08,-4.02 z"
       style="fill:#000000;fill-opacity:1;fill-rule:evenodd;stroke:#000000;stroke-width:1.04700005;stroke-linecap:square;stroke-linejoin:miter;stroke-miterlimit:10;stroke-opacity:1;stroke-dasharray:none"
       id="path604"
       inkscape:connector-curvature="0" /><path
       d="m 411,203.4 0,2.64 0.48,2.4 0.6,2.4 0.72,2.4 1.08,2.28 1.2,2.1 1.32,1.92 1.5,1.8 1.8,1.62 1.8,1.68 1.98,1.32 2.1,1.2 2.22,1.08 2.4,0.72 2.4,0.6 2.52,0.3"
       style="fill:none;stroke:#000000;stroke-width:0.449;stroke-linecap:square;stroke-linejoin:miter;stroke-miterlimit:10;stroke-opacity:1;stroke-dasharray:none"
       id="path606"
       inkscape:connector-curvature="0" /><path
       d="m 430.92,231.54 4.2,-1.68 -3.72,-2.4 1.62,2.28 -2.1,1.8 z"
       style="fill:#000000;fill-opacity:1;fill-rule:evenodd;stroke:#000000;stroke-width:0.449;stroke-linecap:square;stroke-linejoin:miter;stroke-miterlimit:10;stroke-opacity:1;stroke-dasharray:none"
       id="path608"
       inkscape:connector-curvature="0" /><text
       transform="matrix(1,0,0,-1,408.3,215.8201)"
       id="text610"><tspan
         style="font-size:15.72189999px;font-variant:normal;font-weight:normal;writing-mode:lr-tb;fill:#000000;fill-opacity:1;fill-rule:nonzero;stroke:none;font-family:SymbolMT;-inkscape-font-specification:SymbolMT"
         x="0"
         y="0"
         id="tspan612">τ</tspan></text>
<path
       d="m 497.76,203.4 -59.16,0"
       style="fill:none;stroke:#000000;stroke-width:1.04700005;stroke-linecap:square;stroke-linejoin:miter;stroke-miterlimit:10;stroke-opacity:1;stroke-dasharray:none"
       id="path614"
       inkscape:connector-curvature="0" /><path
       d="m 489.84,199.32 7.92,4.08 -7.92,3.84 3.9,-3.84 -3.9,-4.08 z"
       style="fill:#000000;fill-opacity:1;fill-rule:evenodd;stroke:#000000;stroke-width:1.04700005;stroke-linecap:square;stroke-linejoin:miter;stroke-miterlimit:10;stroke-opacity:1;stroke-dasharray:none"
       id="path616"
       inkscape:connector-curvature="0" /><path
       d="m 430.14,203.46 c 0,0.48 -0.42,0.84 -0.9,0.84 -0.48,0 -0.84,-0.36 -0.84,-0.84 0,-0.48 0.36,-0.9 0.84,-0.9 0.48,0 0.9,0.42 0.9,0.9 z"
       style="fill:#0080ff;fill-opacity:1;fill-rule:evenodd;stroke:#000000;stroke-width:0.06;stroke-linecap:square;stroke-linejoin:miter;stroke-miterlimit:10;stroke-opacity:1;stroke-dasharray:none"
       id="path618"
       inkscape:connector-curvature="0" /><path
       d="m 429.3,204 0,0.9 0.12,0.54 0.18,0.78 0.12,0.72 0.3,0.6 0.48,0.6 0.42,0.6 0.48,0.6 0.6,0.48 0.6,0.6 0.6,0.3 0.6,0.42 0.72,0.3 0.78,0.18 0.72,0.3 0.9,0"
       style="fill:none;stroke:#000080;stroke-width:0.449;stroke-linecap:square;stroke-linejoin:miter;stroke-miterlimit:10;stroke-opacity:1;stroke-dasharray:none"
       id="path620"
       inkscape:connector-curvature="0" /><path
       d="m 434.7,212.22 2.22,-0.3 -1.62,-1.5 0.72,1.2 -1.32,0.6 z"
       style="fill:#000080;fill-opacity:1;fill-rule:evenodd;stroke:#000080;stroke-width:0.449;stroke-linecap:square;stroke-linejoin:miter;stroke-miterlimit:10;stroke-opacity:1;stroke-dasharray:none"
       id="path622"
       inkscape:connector-curvature="0" /><path
       d="m 428.82,179.7 -68.28,0"
       style="fill:none;stroke:#000000;stroke-width:0.449;stroke-linecap:square;stroke-linejoin:miter;stroke-miterlimit:10;stroke-opacity:1;stroke-dasharray:none"
       id="path624"
       inkscape:connector-curvature="0" /><path
       d="m 424.98,177.78 3.84,1.92 -3.84,1.98 1.92,-1.98 -1.92,-1.92 z"
       style="fill:#000000;fill-opacity:1;fill-rule:evenodd;stroke:#000000;stroke-width:0.449;stroke-linecap:square;stroke-linejoin:miter;stroke-miterlimit:10;stroke-opacity:1;stroke-dasharray:none"
       id="path626"
       inkscape:connector-curvature="0" /><path
       d="m 364.56,177.78 -4.02,1.92 4.02,1.98 -2.1,-1.98 2.1,-1.92 z"
       style="fill:#000000;fill-opacity:1;fill-rule:evenodd;stroke:#000000;stroke-width:0.449;stroke-linecap:square;stroke-linejoin:miter;stroke-miterlimit:10;stroke-opacity:1;stroke-dasharray:none"
       id="path628"
       inkscape:connector-curvature="0" /><path
       d="m 498.36,179.7 -68.64,0"
       style="fill:none;stroke:#000000;stroke-width:0.449;stroke-linecap:square;stroke-linejoin:miter;stroke-miterlimit:10;stroke-opacity:1;stroke-dasharray:none"
       id="path630"
       inkscape:connector-curvature="0" /><path
       d="m 494.34,177.78 4.02,1.92 -4.02,2.1 2.04,-2.1 -2.04,-1.92 z"
       style="fill:#000000;fill-opacity:1;fill-rule:evenodd;stroke:#000000;stroke-width:0.449;stroke-linecap:square;stroke-linejoin:miter;stroke-miterlimit:10;stroke-opacity:1;stroke-dasharray:none"
       id="path632"
       inkscape:connector-curvature="0" /><path
       d="m 433.8,177.78 -4.08,1.92 4.08,2.1 -2.1,-2.1 2.1,-1.92 z"
       style="fill:#000000;fill-opacity:1;fill-rule:evenodd;stroke:#000000;stroke-width:0.449;stroke-linecap:square;stroke-linejoin:miter;stroke-miterlimit:10;stroke-opacity:1;stroke-dasharray:none"
       id="path634"
       inkscape:connector-curvature="0" /><path
       d="m 429.3,183.78 0,-7.68"
       style="fill:none;stroke:#000000;stroke-width:0.06;stroke-linecap:square;stroke-linejoin:miter;stroke-miterlimit:10;stroke-opacity:1;stroke-dasharray:none"
       id="path636"
       inkscape:connector-curvature="0" /><path
       d="m 438.12,206.52 0,-6.42"
       style="fill:none;stroke:#000000;stroke-width:1.04700005;stroke-linecap:square;stroke-linejoin:miter;stroke-miterlimit:10;stroke-opacity:1;stroke-dasharray:none"
       id="path642"
       inkscape:connector-curvature="0" /><path
       d="m 359.94,183.78 0,-7.68 m 139.14,7.68 0,-7.68"
       style="fill:none;stroke:#000000;stroke-width:0.06;stroke-linecap:square;stroke-linejoin:miter;stroke-miterlimit:10;stroke-opacity:1;stroke-dasharray:none"
       id="path644"
       inkscape:connector-curvature="0" /><path
       d="m 541.5,308.16 0.72,0 0,-0.72 -0.72,0 0,0.72 z"
       style="fill:#ffffff;fill-opacity:1;fill-rule:nonzero;stroke:none"
       id="path650"
       inkscape:connector-curvature="0" /><path
       d="m 541.5,307.44 0.72,0 0,-168.6 -0.72,0 0,168.6 z"
       style="fill:#ffffff;fill-opacity:1;fill-rule:nonzero;stroke:none"
       id="path654"
       inkscape:connector-curvature="0" /><text
       xml:space="preserve"
       style="font-size:7.19999981px;font-style:normal;font-variant:normal;font-weight:normal;font-stretch:normal;line-height:125%;letter-spacing:0px;word-spacing:0px;fill:#000000;fill-opacity:1;stroke:none;font-family:Symbol;-inkscape-font-specification:Symbol"
       x="392.48776"
       y="-183.37354"
       id="text5453"
       sodipodi:linespacing="125%"
       transform="scale(1,-1)"><tspan
         sodipodi:role="line"
         id="tspan5455"
         x="392.48776"
         y="-183.37354">b/2</tspan></text>
<text
       xml:space="preserve"
       style="font-size:7.19999981px;font-style:normal;font-variant:normal;font-weight:normal;font-stretch:normal;line-height:125%;letter-spacing:0px;word-spacing:0px;fill:#000000;fill-opacity:1;stroke:none;font-family:Symbol;-inkscape-font-specification:Symbol"
       x="459.32343"
       y="-183.37354"
       id="text5453-7"
       sodipodi:linespacing="125%"
       transform="scale(1,-1)"><tspan
         sodipodi:role="line"
         id="tspan5455-9"
         x="459.32343"
         y="-183.37354">b/2</tspan></text>
<text
       xml:space="preserve"
       style="font-size:7.19999981px;font-style:normal;font-variant:normal;font-weight:normal;font-stretch:normal;line-height:125%;letter-spacing:0px;word-spacing:0px;fill:#000000;fill-opacity:1;stroke:none;font-family:Symbol;-inkscape-font-specification:Symbol"
       x="340.36581"
       y="-201.41646"
       id="text5483"
       sodipodi:linespacing="125%"
       transform="scale(1,-1)"><tspan
         sodipodi:role="line"
         id="tspan5485"
         x="340.36581"
         y="-201.41646">D<tspan
   style="font-size:52%;baseline-shift:sub"
   id="tspan3094">L</tspan></tspan></text>
<text
       xml:space="preserve"
       style="font-size:7.19999981px;font-style:normal;font-variant:normal;font-weight:normal;font-stretch:normal;line-height:125%;letter-spacing:0px;word-spacing:0px;fill:#000000;fill-opacity:1;stroke:none;font-family:Symbol;-inkscape-font-specification:Symbol"
       x="509.58228"
       y="-208.5322"
       id="text5487"
       sodipodi:linespacing="125%"
       transform="scale(1,-1)"><tspan
         sodipodi:role="line"
         id="tspan5489"
         x="509.58228"
         y="-208.5322">D<tspan
   style="font-size:52%;baseline-shift:sub"
   id="tspan3096">R</tspan></tspan></text>
<text
       xml:space="preserve"
       style="font-size:7.19999981px;font-style:normal;font-variant:normal;font-weight:normal;font-stretch:normal;line-height:125%;letter-spacing:0px;word-spacing:0px;fill:#000000;fill-opacity:1;stroke:none;font-family:Symbol;-inkscape-font-specification:Symbol"
       x="390.96609"
       y="-207.43858"
       id="text3772"
       sodipodi:linespacing="125%"
       transform="scale(1,-1)"><tspan
         sodipodi:role="line"
         id="tspan3774"
         x="390.96609"
         y="-207.43858">r<tspan
   style="font-size:52%;baseline-shift:sub"
   id="tspan3098">L</tspan></tspan></text>
<text
       xml:space="preserve"
       style="font-size:7.19999981px;font-style:normal;font-variant:normal;font-weight:normal;font-stretch:normal;line-height:125%;letter-spacing:0px;word-spacing:0px;fill:#000000;fill-opacity:1;stroke:none;font-family:Symbol;-inkscape-font-specification:Symbol"
       x="463.74789"
       y="-207.01907"
       id="text3778"
       sodipodi:linespacing="125%"
       transform="scale(1,-1)"><tspan
         sodipodi:role="line"
         id="tspan3780"
         x="463.74789"
         y="-207.01907">r<tspan
   style="font-size:52%;baseline-shift:sub"
   id="tspan3100">R</tspan></tspan></text>
</g></svg>