<?xml version="1.0" encoding="UTF-8" standalone="no"?>
<!-- Created with Inkscape (http://www.inkscape.org/) -->

<svg
   xmlns:dc="http://purl.org/dc/elements/1.1/"
   xmlns:cc="http://creativecommons.org/ns#"
   xmlns:rdf="http://www.w3.org/1999/02/22-rdf-syntax-ns#"
   xmlns:svg="http://www.w3.org/2000/svg"
   xmlns="http://www.w3.org/2000/svg"
   xmlns:sodipodi="http://sodipodi.sourceforge.net/DTD/sodipodi-0.dtd"
   xmlns:inkscape="http://www.inkscape.org/namespaces/inkscape"
   id="svg2"
   version="1.1"
   inkscape:version="0.48.4 r9939"
   width="571.21655"
   height="149.25311"
   xml:space="preserve"
   sodipodi:docname="paper58.pdf"><metadata
     id="metadata8"><rdf:RDF><cc:Work
         rdf:about=""><dc:format>image/svg+xml</dc:format><dc:type
           rdf:resource="http://purl.org/dc/dcmitype/StillImage" /><dc:title></dc:title></cc:Work></rdf:RDF></metadata><defs
     id="defs6"><clipPath
       clipPathUnits="userSpaceOnUse"
       id="clipPath184"><path
         d="m 105.12,412.68 53.28,0 0,9.3 -53.28,0 0,-9.3 z"
         id="path186"
         inkscape:connector-curvature="0" /></clipPath><clipPath
       clipPathUnits="userSpaceOnUse"
       id="clipPath324"><path
         d="m 437.4,544.44 102.54,0 0,14.1 -102.54,0 0,-14.1 z"
         id="path326"
         inkscape:connector-curvature="0" /></clipPath><clipPath
       clipPathUnits="userSpaceOnUse"
       id="clipPath360"><path
         d="m 402.36,510.3 137.58,0 0,13.02 -137.58,0 0,-13.02 z"
         id="path362"
         inkscape:connector-curvature="0" /></clipPath><clipPath
       clipPathUnits="userSpaceOnUse"
       id="clipPath376"><path
         d="m 402.36,510.3 137.58,0 0,13.02 -137.58,0 0,-13.02 z"
         id="path378"
         inkscape:connector-curvature="0" /></clipPath><clipPath
       clipPathUnits="userSpaceOnUse"
       id="clipPath392"><path
         d="m 402.36,510.3 137.58,0 0,13.02 -137.58,0 0,-13.02 z"
         id="path394"
         inkscape:connector-curvature="0" /></clipPath><clipPath
       clipPathUnits="userSpaceOnUse"
       id="clipPath482"><path
         d="m 437.4,544.44 102.54,0 0,14.1 -102.54,0 0,-14.1 z"
         id="path484"
         inkscape:connector-curvature="0" /></clipPath><clipPath
       clipPathUnits="userSpaceOnUse"
       id="clipPath518"><path
         d="m 402.36,510.3 137.58,0 0,13.02 -137.58,0 0,-13.02 z"
         id="path520"
         inkscape:connector-curvature="0" /></clipPath><clipPath
       clipPathUnits="userSpaceOnUse"
       id="clipPath534"><path
         d="m 402.36,510.3 137.58,0 0,13.02 -137.58,0 0,-13.02 z"
         id="path536"
         inkscape:connector-curvature="0" /></clipPath><clipPath
       clipPathUnits="userSpaceOnUse"
       id="clipPath550"><path
         d="m 402.36,510.3 137.58,0 0,13.02 -137.58,0 0,-13.02 z"
         id="path552"
         inkscape:connector-curvature="0" /></clipPath><clipPath
       clipPathUnits="userSpaceOnUse"
       id="clipPath654"><path
         d="m 86.4,172.68 439.92,0 0,5.58 -439.92,0 0,-5.58 z"
         id="path656"
         inkscape:connector-curvature="0" /></clipPath><clipPath
       clipPathUnits="userSpaceOnUse"
       id="clipPath668"><path
         d="m 86.4,172.68 430.44,0 0,22.26 -430.44,0 0,-22.26 z"
         id="path670"
         inkscape:connector-curvature="0" /></clipPath><clipPath
       clipPathUnits="userSpaceOnUse"
       id="clipPath686"><path
         d="m 461.52,115.92 5.58,0 0,119.34 -5.58,0 0,-119.34 z"
         id="path688"
         inkscape:connector-curvature="0" /></clipPath></defs><sodipodi:namedview
     pagecolor="#ffffff"
     bordercolor="#666666"
     borderopacity="1"
     objecttolerance="10"
     gridtolerance="10"
     guidetolerance="10"
     inkscape:pageopacity="0"
     inkscape:pageshadow="2"
     inkscape:window-width="1920"
     inkscape:window-height="1021"
     id="namedview4"
     showgrid="false"
     fit-margin-top="0"
     fit-margin-left="0"
     fit-margin-right="0"
     fit-margin-bottom="0"
     inkscape:zoom="1.3485026"
     inkscape:cx="225.73498"
     inkscape:cy="93.672756"
     inkscape:window-x="0"
     inkscape:window-y="25"
     inkscape:window-maximized="1"
     inkscape:current-layer="g10" /><g
     id="g10"
     inkscape:groupmode="layer"
     inkscape:label="paper58"
     transform="matrix(1.25,0,0,-1.25,-107.75647,294.075)"><path
       d="m 90.535424,115.92051 452.579996,0 0,118.56 -452.579996,0 0,-118.56 z"
       style="fill:#ffffff;fill-opacity:1;fill-rule:evenodd;stroke:#ffffff;stroke-width:0.126;stroke-linecap:square;stroke-linejoin:miter;stroke-miterlimit:10;stroke-opacity:1;stroke-dasharray:none"
       id="path622"
       inkscape:connector-curvature="0" /><path
       d="m 520.44,138.06 -16.8,-15.24 -78.78,0 -16.5,15.24 0,74.76 16.5,15.18 78.78,0 16.8,-15.18 0,-74.76 z"
       style="fill:#ffffff;fill-opacity:1;fill-rule:evenodd;stroke:#000000;stroke-width:0.25099999;stroke-linecap:square;stroke-linejoin:miter;stroke-miterlimit:10;stroke-opacity:1;stroke-dasharray:none"
       id="path624"
       inkscape:connector-curvature="0" /><path
       d="m 423.12,162.24 -0.12,0.12 -0.12,0 -0.18,0.12 -0.12,0.12 0,0.18 -0.12,0.12 0,25.14 0.12,0.12 0,0.12 0.3,0.3 4.14,0 0,-0.18 0.12,0 0.12,-0.12 0,-0.12 0.12,-0.12 0,-0.36 0.12,-0.12 0,-24.3 -0.12,0 0,-0.36 -0.12,0 0,-0.3 -0.12,0 0,-0.12 -0.12,0 0,-0.12 -0.24,0 0,-0.12 -3.66,0 z"
       style="fill:#808080;fill-opacity:1;fill-rule:evenodd;stroke:#000000;stroke-width:0.75400001;stroke-linecap:square;stroke-linejoin:miter;stroke-miterlimit:10;stroke-opacity:1;stroke-dasharray:none"
       id="path626"
       inkscape:connector-curvature="0" /><path
       d="m 505.56,191.7 0.12,0 0.12,-0.12 0.12,0 0,-0.12 0.12,-0.18 0.12,-0.12 0,-0.36 0.12,-0.12 0,-30.06 -0.12,0 0,-0.36 -0.12,-0.12 0,-0.12 -0.12,-0.12 -0.12,-0.18 -0.12,-0.12 -0.12,0 0,-0.12 -3.78,0 -0.12,0.12 -0.18,0 -0.12,0.12 -0.12,0.18 -0.12,0.12 0,0.12 -0.12,0.12 0,30.78 0.12,0.12 0,0.12 0.12,0 0,0.18 0.24,0.24 4.08,0 z"
       style="fill:#808080;fill-opacity:1;fill-rule:evenodd;stroke:#000000;stroke-width:0.75400001;stroke-linecap:square;stroke-linejoin:miter;stroke-miterlimit:10;stroke-opacity:1;stroke-dasharray:none"
       id="path628"
       inkscape:connector-curvature="0" /><text
       transform="scale(1,-1)"
       id="text630"
       style="font-size:9.60000038px;font-style:normal;font-variant:normal;font-weight:normal;font-stretch:normal;text-align:start;line-height:125%;writing-mode:lr-tb;text-anchor:start;font-family:Sans;-inkscape-font-specification:Sans"
       sodipodi:linespacing="125%"
       x="441.9722"
       y="-138.48102"><tspan
         sodipodi:role="line"
         id="tspan3755"
         x="441.9722"
         y="-138.48102">Ruedas de</tspan><tspan
         sodipodi:role="line"
         id="tspan3757"
         x="441.9722"
         y="-126.48102">encoder</tspan></text>
<path
       d="m 409.74,183.18 12.36,0 0,-15.42 -12.36,0 0,15.42 z"
       style="fill:#00c2c2;fill-opacity:1;fill-rule:evenodd;stroke:#000000;stroke-width:0.75400001;stroke-linecap:square;stroke-linejoin:miter;stroke-miterlimit:10;stroke-opacity:1;stroke-dasharray:none"
       id="path636"
       inkscape:connector-curvature="0" /><path
       d="m 506.7,183.18 11.88,0 0,-15.42 -11.88,0 0,15.42 z"
       style="fill:#00c2c2;fill-opacity:1;fill-rule:evenodd;stroke:#000000;stroke-width:0.75400001;stroke-linecap:square;stroke-linejoin:miter;stroke-miterlimit:10;stroke-opacity:1;stroke-dasharray:none"
       id="path638"
       inkscape:connector-curvature="0" /><path
       d="m 449.52,147.24 -23.88,16.5 m 42.9,-16.5 33.48,14.16"
       style="fill:none;stroke:#000000;stroke-width:0.377;stroke-linecap:square;stroke-linejoin:miter;stroke-miterlimit:10;stroke-opacity:1;stroke-dasharray:none"
       id="path640"
       inkscape:connector-curvature="0" /><path
       d="m 419.22,134.22 0,-0.9 0.36,-0.72 0.12,-0.3 0.48,-0.48 0.3,-0.24 0.12,-0.12 0.24,0 0.24,-0.12 0.24,0 0.3,-0.12 0.24,0.12 0.24,0 0.12,0.12 0.24,0 0.24,0.12 0.3,0.24 0.48,0.48 0.12,0.3 0.24,0.48 0.18,0.24 0,0.66 0.12,0.24 0,11.28 -0.12,0.36 0,0.6 -0.18,0.24 -0.12,0.3 -0.24,0.48 -0.48,0.48 -0.3,0.24 -0.24,0.18 -0.24,0 -0.12,0.12 -1.02,0 -0.24,-0.12 -0.24,0 -0.12,-0.18 -0.3,-0.24 -0.48,-0.48 -0.24,-0.48 -0.12,-0.3 -0.12,-0.24 0,-12.24 z"
       style="fill:#000000;fill-opacity:1;fill-rule:evenodd;stroke:#000000;stroke-width:0.75400001;stroke-linecap:square;stroke-linejoin:miter;stroke-miterlimit:10;stroke-opacity:1;stroke-dasharray:none"
       id="path642"
       inkscape:connector-curvature="0" /><path
       d="m 506.28,134.22 0,-0.9 0.18,-0.24 0.24,-0.48 0.12,-0.3 0.12,-0.12 0.12,-0.24 0.24,-0.12 0.12,-0.24 0.3,-0.12 0.24,0 0.24,-0.12 0.12,0 0.36,-0.12 0.3,0.12 0.12,0 0.24,0.12 0.24,0 0.24,0.12 0.12,0.24 0.3,0.12 0.12,0.24 0.12,0.12 0.12,0.3 0.36,0.72 0,0.66 0.12,0.24 0,10.98 -0.12,0.42 0,0.6 -0.24,0.48 -0.12,0.3 -0.24,0.48 -0.12,0.12 -0.3,0.24 -0.12,0.12 -0.24,0.12 -0.24,0 -0.24,0.12 -0.9,0 -0.24,-0.12 -0.24,0 -0.3,-0.12 -0.48,-0.48 -0.24,-0.48 -0.12,-0.3 -0.12,-0.24 -0.18,-0.24 0,-12 z"
       style="fill:#000000;fill-opacity:1;fill-rule:evenodd;stroke:#000000;stroke-width:0.75400001;stroke-linecap:square;stroke-linejoin:miter;stroke-miterlimit:10;stroke-opacity:1;stroke-dasharray:none"
       id="path644"
       inkscape:connector-curvature="0" /><path
       d="m 418.44,203.94 0,-0.84 0.12,-0.3 0.36,-0.72 0.12,-0.12 0.18,-0.24 0.24,-0.12 0.12,-0.3 0.24,-0.12 0.24,0 0.3,-0.12 0.12,0 0.36,-0.12 0.24,0.12 0.12,0 0.24,0.12 0.3,0 0.24,0.12 0.12,0.3 0.24,0.12 0.12,0.24 0.12,0.12 0.12,0.24 0.18,0.24 0.12,0.24 0.12,0.3 0,0.6 0.12,0.24 0,11.04 -0.12,0.36 0,0.66 -0.24,0.48 -0.18,0.24 -0.12,0.24 -0.12,0.12 -0.12,0.3 -0.24,0.12 -0.12,0.24 -0.24,0.12 -0.3,0 -0.24,0.12 -0.84,0 -0.3,-0.12 -0.24,0 -0.24,-0.12 -0.12,-0.24 -0.24,-0.12 -0.18,-0.3 -0.12,-0.12 -0.48,-0.96 0,-12.06 z"
       style="fill:#000000;fill-opacity:1;fill-rule:evenodd;stroke:#000000;stroke-width:0.75400001;stroke-linecap:square;stroke-linejoin:miter;stroke-miterlimit:10;stroke-opacity:1;stroke-dasharray:none"
       id="path646"
       inkscape:connector-curvature="0" /><path
       d="m 507.06,203.94 0,-0.84 0.12,-0.3 0.36,-0.72 0.18,-0.12 0.36,-0.36 0.24,-0.3 0.12,-0.12 0.24,0 0.3,-0.12 0.24,0 0.24,-0.12 0.24,0.12 0.24,0 0.18,0.12 0.24,0 0.24,0.12 0.24,0.3 0.36,0.36 0.18,0.12 0.36,0.72 0.12,0.3 0,0.6 0.12,0.24 0,11.28 -0.12,0.36 0,0.66 -0.48,0.96 -0.78,0.78 -0.24,0.12 -0.24,0 -0.18,0.12 -0.96,0 -0.3,-0.12 -0.24,0 -0.9,-0.9 -0.48,-0.96 0,-12.3 z"
       style="fill:#000000;fill-opacity:1;fill-rule:evenodd;stroke:#000000;stroke-width:0.75400001;stroke-linecap:square;stroke-linejoin:miter;stroke-miterlimit:10;stroke-opacity:1;stroke-dasharray:none"
       id="path648"
       inkscape:connector-curvature="0" /><g
       id="g650"><g
         id="g652"
         clip-path="url(#clipPath654)"><path
           d="m 86.88,175.5 436.62,0"
           style="fill:none;stroke:#000000;stroke-width:0.25099999;stroke-linecap:square;stroke-linejoin:miter;stroke-miterlimit:10;stroke-opacity:1;stroke-dasharray:0.503, 0.503, 0, 0.503, 0, 0.503;stroke-dashoffset:0"
           id="path658"
           inkscape:connector-curvature="0" /></g></g><g
       id="g664"><g
         id="g666"
         clip-path="url(#clipPath668)"><path
           d="m 86.88,175.5 427.14,16.68"
           style="fill:none;stroke:#000000;stroke-width:0.25099999;stroke-linecap:square;stroke-linejoin:miter;stroke-miterlimit:10;stroke-opacity:1;stroke-dasharray:0.503, 0.503, 0, 0.503, 0, 0.503;stroke-dashoffset:0"
           id="path672"
           inkscape:connector-curvature="0" /></g></g><text
       transform="matrix(1,0,0,-1,279.30073,185.27984)"
       id="text678"><tspan
         style="font-size:10.51879978px;font-variant:normal;font-weight:normal;writing-mode:lr-tb;fill:#000000;fill-opacity:1;fill-rule:nonzero;stroke:none;font-family:Arial;-inkscape-font-specification:Arial"
         x="0"
         y="0"
         id="tspan680">R</tspan></text>
<g
       id="g682"><g
         id="g684"
         clip-path="url(#clipPath686)"><path
           d="m 464.28,234.78 0,-118.38"
           style="fill:none;stroke:#000000;stroke-width:0.25099999;stroke-linecap:square;stroke-linejoin:miter;stroke-miterlimit:10;stroke-opacity:1;stroke-dasharray:0.503, 0.503, 0, 0.503;stroke-dashoffset:0"
           id="path690"
           inkscape:connector-curvature="0" /></g></g><path
       d="m 431.58,188.58 0,-26.34"
       style="fill:none;stroke:#000000;stroke-width:0.25099999;stroke-linecap:square;stroke-linejoin:miter;stroke-miterlimit:10;stroke-opacity:1;stroke-dasharray:none"
       id="path692"
       inkscape:connector-curvature="0" /><path
       d="m 433.2,185.16 -1.62,3.42 -1.68,-3.42 1.68,1.74 1.62,-1.74 z"
       style="fill:#000000;fill-opacity:1;fill-rule:evenodd;stroke:#000000;stroke-width:0.06;stroke-linecap:square;stroke-linejoin:miter;stroke-miterlimit:10;stroke-opacity:1;stroke-dasharray:none"
       id="path694"
       inkscape:connector-curvature="0" /><path
       d="m 433.2,188.58 -3.3,0"
       style="fill:none;stroke:#000000;stroke-width:0.06;stroke-linecap:square;stroke-linejoin:miter;stroke-miterlimit:10;stroke-opacity:1;stroke-dasharray:none"
       id="path696"
       inkscape:connector-curvature="0" /><path
       d="m 433.2,165.66 -1.62,-3.42 -1.68,3.42 1.68,-1.68 1.62,1.68 z"
       style="fill:#000000;fill-opacity:1;fill-rule:evenodd;stroke:#000000;stroke-width:0.06;stroke-linecap:square;stroke-linejoin:miter;stroke-miterlimit:10;stroke-opacity:1;stroke-dasharray:none"
       id="path698"
       inkscape:connector-curvature="0" /><path
       d="m 433.2,162.24 -3.3,0"
       style="fill:none;stroke:#000000;stroke-width:0.06;stroke-linecap:square;stroke-linejoin:miter;stroke-miterlimit:10;stroke-opacity:1;stroke-dasharray:none"
       id="path700"
       inkscape:connector-curvature="0" /><path
       d="m 524.64,192.18 0,-33.06"
       style="fill:none;stroke:#000000;stroke-width:0.25099999;stroke-linecap:square;stroke-linejoin:miter;stroke-miterlimit:10;stroke-opacity:1;stroke-dasharray:none"
       id="path702"
       inkscape:connector-curvature="0" /><path
       d="m 526.26,188.94 -1.62,3.24 -1.68,-3.24 1.68,1.62 1.62,-1.62 z"
       style="fill:#000000;fill-opacity:1;fill-rule:evenodd;stroke:#000000;stroke-width:0.06;stroke-linecap:square;stroke-linejoin:miter;stroke-miterlimit:10;stroke-opacity:1;stroke-dasharray:none"
       id="path704"
       inkscape:connector-curvature="0" /><path
       d="m 526.26,192.18 -3.3,0"
       style="fill:none;stroke:#000000;stroke-width:0.06;stroke-linecap:square;stroke-linejoin:miter;stroke-miterlimit:10;stroke-opacity:1;stroke-dasharray:none"
       id="path706"
       inkscape:connector-curvature="0" /><path
       d="m 526.26,162.36 -1.62,-3.24 -1.68,3.24 1.68,-1.62 1.62,1.62 z"
       style="fill:#000000;fill-opacity:1;fill-rule:evenodd;stroke:#000000;stroke-width:0.06;stroke-linecap:square;stroke-linejoin:miter;stroke-miterlimit:10;stroke-opacity:1;stroke-dasharray:none"
       id="path708"
       inkscape:connector-curvature="0" /><path
       d="m 526.26,159.12 -3.3,0"
       style="fill:none;stroke:#000000;stroke-width:0.06;stroke-linecap:square;stroke-linejoin:miter;stroke-miterlimit:10;stroke-opacity:1;stroke-dasharray:none"
       id="path710"
       inkscape:connector-curvature="0" /><text
       transform="matrix(1,0,0,-1,458.7,194.8201)"
       id="text712"><tspan
         style="font-size:10.51879978px;font-variant:normal;font-weight:normal;writing-mode:lr-tb;fill:#000000;fill-opacity:1;fill-rule:nonzero;stroke:none;font-family:Arial;-inkscape-font-specification:Arial"
         x="0"
         y="0"
         id="tspan714">b</tspan><tspan
         style="font-size:10.51879978px;font-variant:normal;font-weight:normal;writing-mode:lr-tb;fill:#000000;fill-opacity:1;fill-rule:nonzero;stroke:none;font-family:Arial;-inkscape-font-specification:Arial"
         x="-23.699907"
         y="16.140047"
         id="tspan716">D</tspan></text>
<text
       transform="matrix(1,0,0,-1,442.32,177.42)"
       id="text718"><tspan
         style="font-size:6.13600016px;font-variant:normal;font-weight:normal;writing-mode:lr-tb;fill:#000000;fill-opacity:1;fill-rule:nonzero;stroke:none;font-family:Arial;-inkscape-font-specification:Arial"
         x="0"
         y="0"
         id="tspan720">L</tspan></text>
<text
       transform="matrix(1,0,0,-1,527.7599,175.3801)"
       id="text722"><tspan
         style="font-size:10.51879978px;font-variant:normal;font-weight:normal;writing-mode:lr-tb;fill:#000000;fill-opacity:1;fill-rule:nonzero;stroke:none;font-family:Arial;-inkscape-font-specification:Arial"
         x="0"
         y="0"
         id="tspan724">D</tspan></text>
<text
       transform="matrix(1,0,0,-1,534.96,174.1201)"
       id="text726"><tspan
         style="font-size:6.13600016px;font-variant:normal;font-weight:normal;writing-mode:lr-tb;fill:#000000;fill-opacity:1;fill-rule:nonzero;stroke:none;font-family:Arial;-inkscape-font-specification:Arial"
         x="0"
         y="0"
         id="tspan728">R</tspan></text>
<path
       d="m 424.98,194.34 79.44,0"
       style="fill:none;stroke:#000000;stroke-width:0.25099999;stroke-linecap:square;stroke-linejoin:miter;stroke-miterlimit:10;stroke-opacity:1;stroke-dasharray:none"
       id="path730"
       inkscape:connector-curvature="0" /><path
       d="m 428.28,196.08 -3.3,-1.74 3.3,-1.68 -1.62,1.68 1.62,1.74 z"
       style="fill:#000000;fill-opacity:1;fill-rule:evenodd;stroke:#000000;stroke-width:0.06;stroke-linecap:square;stroke-linejoin:miter;stroke-miterlimit:10;stroke-opacity:1;stroke-dasharray:none"
       id="path732"
       inkscape:connector-curvature="0" /><path
       d="m 424.98,196.08 0,-3.42"
       style="fill:none;stroke:#000000;stroke-width:0.06;stroke-linecap:square;stroke-linejoin:miter;stroke-miterlimit:10;stroke-opacity:1;stroke-dasharray:none"
       id="path734"
       inkscape:connector-curvature="0" /><path
       d="m 501,196.08 3.42,-1.74 -3.42,-1.68 1.8,1.68 -1.8,1.74 z"
       style="fill:#000000;fill-opacity:1;fill-rule:evenodd;stroke:#000000;stroke-width:0.06;stroke-linecap:square;stroke-linejoin:miter;stroke-miterlimit:10;stroke-opacity:1;stroke-dasharray:none"
       id="path736"
       inkscape:connector-curvature="0" /><path
       d="m 504.42,196.08 0,-3.42"
       style="fill:none;stroke:#000000;stroke-width:0.06;stroke-linecap:square;stroke-linejoin:miter;stroke-miterlimit:10;stroke-opacity:1;stroke-dasharray:none"
       id="path738"
       inkscape:connector-curvature="0" /><path
       d="m 541.14,235.26 0.72,0 0,-119.34 -0.72,0 0,119.34 z"
       style="fill:#ffffff;fill-opacity:1;fill-rule:nonzero;stroke:none"
       id="path748"
       inkscape:connector-curvature="0" /><text
       xml:space="preserve"
       style="font-size:11.19999981px;font-style:normal;font-variant:normal;font-weight:normal;font-stretch:normal;line-height:125%;letter-spacing:0px;word-spacing:0px;fill:#000000;fill-opacity:1;stroke:none;font-family:Symbol;-inkscape-font-specification:Symbol"
       x="85.576271"
       y="-179.96187"
       id="text3751"
       sodipodi:linespacing="125%"
       transform="scale(1,-1)"><tspan
         sodipodi:role="line"
         id="tspan3753"
         x="85.576271"
         y="-179.96187">C</tspan></text>
</g></svg>